%TF.GenerationSoftware,KiCad,Pcbnew,(5.1.10)-1*%
%TF.CreationDate,2022-01-17T18:11:01+07:00*%
%TF.ProjectId,CC2640R2F Module,43433236-3430-4523-9246-204d6f64756c,rev?*%
%TF.SameCoordinates,Original*%
%TF.FileFunction,Soldermask,Bot*%
%TF.FilePolarity,Negative*%
%FSLAX46Y46*%
G04 Gerber Fmt 4.6, Leading zero omitted, Abs format (unit mm)*
G04 Created by KiCad (PCBNEW (5.1.10)-1) date 2022-01-17 18:11:01*
%MOMM*%
%LPD*%
G01*
G04 APERTURE LIST*
%ADD10O,1.200000X1.900000*%
%ADD11C,1.450000*%
%ADD12O,1.700000X1.700000*%
%ADD13R,1.700000X1.700000*%
%ADD14C,2.000000*%
%ADD15C,1.400000*%
%ADD16C,1.700000*%
G04 APERTURE END LIST*
D10*
%TO.C,JTAG CONNECTOR*%
X129300000Y-69250000D03*
X122300000Y-69250000D03*
D11*
X128300000Y-66550000D03*
X123300000Y-66550000D03*
%TD*%
D12*
%TO.C,SDA SCL*%
X110800000Y-26260000D03*
D13*
X110800000Y-28800000D03*
%TD*%
D12*
%TO.C,3V3 TX RX GND*%
X110800000Y-14780000D03*
X110800000Y-17320000D03*
X110800000Y-19860000D03*
D13*
X110800000Y-22400000D03*
%TD*%
D12*
%TO.C,J2*%
X145600000Y-62880000D03*
X145600000Y-60340000D03*
X145600000Y-57800000D03*
X145600000Y-55260000D03*
X145600000Y-52720000D03*
X145600000Y-50180000D03*
X145600000Y-47640000D03*
X145600000Y-45100000D03*
X145600000Y-42560000D03*
X145600000Y-40020000D03*
X145600000Y-37480000D03*
X145600000Y-34940000D03*
X145600000Y-32400000D03*
X145600000Y-29860000D03*
X145600000Y-27320000D03*
X145600000Y-24780000D03*
X145600000Y-22240000D03*
X145600000Y-19700000D03*
X145600000Y-17160000D03*
D13*
X145600000Y-14620000D03*
%TD*%
D12*
%TO.C,J1*%
X107000000Y-14700000D03*
X107000000Y-17240000D03*
X107000000Y-19780000D03*
X107000000Y-22320000D03*
X107000000Y-24860000D03*
X107000000Y-27400000D03*
X107000000Y-29940000D03*
X107000000Y-32480000D03*
X107000000Y-35020000D03*
X107000000Y-37560000D03*
X107000000Y-40100000D03*
X107000000Y-42640000D03*
X107000000Y-45180000D03*
X107000000Y-47720000D03*
X107000000Y-50260000D03*
X107000000Y-52800000D03*
X107000000Y-55340000D03*
X107000000Y-57880000D03*
X107000000Y-60420000D03*
D13*
X107000000Y-62960000D03*
%TD*%
D14*
%TO.C,TP20*%
X117750000Y-69000000D03*
%TD*%
%TO.C,TP19*%
X113500000Y-69000000D03*
%TD*%
D12*
%TO.C,BOOT*%
X110800000Y-42540000D03*
D13*
X110800000Y-40000000D03*
%TD*%
D15*
%TO.C,Reset*%
X136750000Y-31040000D03*
X136750000Y-28500000D03*
%TD*%
D16*
%TO.C,J3*%
X115040000Y-61000000D03*
X117580000Y-61000000D03*
X120120000Y-61000000D03*
X122660000Y-61000000D03*
X125200000Y-61000000D03*
X127740000Y-61000000D03*
X130280000Y-61000000D03*
X132820000Y-61000000D03*
X135360000Y-61000000D03*
X137900000Y-61000000D03*
X115040000Y-58460000D03*
X117580000Y-58460000D03*
X120120000Y-58460000D03*
X122660000Y-58460000D03*
X125200000Y-58460000D03*
X127740000Y-58460000D03*
X130280000Y-58460000D03*
X132820000Y-58460000D03*
X135360000Y-58460000D03*
G36*
G01*
X137300000Y-57610000D02*
X138500000Y-57610000D01*
G75*
G02*
X138750000Y-57860000I0J-250000D01*
G01*
X138750000Y-59060000D01*
G75*
G02*
X138500000Y-59310000I-250000J0D01*
G01*
X137300000Y-59310000D01*
G75*
G02*
X137050000Y-59060000I0J250000D01*
G01*
X137050000Y-57860000D01*
G75*
G02*
X137300000Y-57610000I250000J0D01*
G01*
G37*
%TD*%
M02*
