%TF.GenerationSoftware,KiCad,Pcbnew,(5.1.10)-1*%
%TF.CreationDate,2022-01-17T18:11:01+07:00*%
%TF.ProjectId,CC2640R2F Module,43433236-3430-4523-9246-204d6f64756c,rev?*%
%TF.SameCoordinates,Original*%
%TF.FileFunction,Legend,Top*%
%TF.FilePolarity,Positive*%
%FSLAX46Y46*%
G04 Gerber Fmt 4.6, Leading zero omitted, Abs format (unit mm)*
G04 Created by KiCad (PCBNEW (5.1.10)-1) date 2022-01-17 18:11:01*
%MOMM*%
%LPD*%
G01*
G04 APERTURE LIST*
%ADD10C,0.150000*%
%ADD11C,0.120000*%
G04 APERTURE END LIST*
D10*
X148012095Y-14084380D02*
X148012095Y-14579619D01*
X147707333Y-14312952D01*
X147707333Y-14427238D01*
X147669238Y-14503428D01*
X147631142Y-14541523D01*
X147554952Y-14579619D01*
X147364476Y-14579619D01*
X147288285Y-14541523D01*
X147250190Y-14503428D01*
X147212095Y-14427238D01*
X147212095Y-14198666D01*
X147250190Y-14122476D01*
X147288285Y-14084380D01*
X148012095Y-15074857D02*
X148012095Y-15151047D01*
X147974000Y-15227238D01*
X147935904Y-15265333D01*
X147859714Y-15303428D01*
X147707333Y-15341523D01*
X147516857Y-15341523D01*
X147364476Y-15303428D01*
X147288285Y-15265333D01*
X147250190Y-15227238D01*
X147212095Y-15151047D01*
X147212095Y-15074857D01*
X147250190Y-14998666D01*
X147288285Y-14960571D01*
X147364476Y-14922476D01*
X147516857Y-14884380D01*
X147707333Y-14884380D01*
X147859714Y-14922476D01*
X147935904Y-14960571D01*
X147974000Y-14998666D01*
X148012095Y-15074857D01*
X147935904Y-16662476D02*
X147974000Y-16700571D01*
X148012095Y-16776761D01*
X148012095Y-16967238D01*
X147974000Y-17043428D01*
X147935904Y-17081523D01*
X147859714Y-17119619D01*
X147783523Y-17119619D01*
X147669238Y-17081523D01*
X147212095Y-16624380D01*
X147212095Y-17119619D01*
X147212095Y-17500571D02*
X147212095Y-17652952D01*
X147250190Y-17729142D01*
X147288285Y-17767238D01*
X147402571Y-17843428D01*
X147554952Y-17881523D01*
X147859714Y-17881523D01*
X147935904Y-17843428D01*
X147974000Y-17805333D01*
X148012095Y-17729142D01*
X148012095Y-17576761D01*
X147974000Y-17500571D01*
X147935904Y-17462476D01*
X147859714Y-17424380D01*
X147669238Y-17424380D01*
X147593047Y-17462476D01*
X147554952Y-17500571D01*
X147516857Y-17576761D01*
X147516857Y-17729142D01*
X147554952Y-17805333D01*
X147593047Y-17843428D01*
X147669238Y-17881523D01*
X147935904Y-19202476D02*
X147974000Y-19240571D01*
X148012095Y-19316761D01*
X148012095Y-19507238D01*
X147974000Y-19583428D01*
X147935904Y-19621523D01*
X147859714Y-19659619D01*
X147783523Y-19659619D01*
X147669238Y-19621523D01*
X147212095Y-19164380D01*
X147212095Y-19659619D01*
X147669238Y-20116761D02*
X147707333Y-20040571D01*
X147745428Y-20002476D01*
X147821619Y-19964380D01*
X147859714Y-19964380D01*
X147935904Y-20002476D01*
X147974000Y-20040571D01*
X148012095Y-20116761D01*
X148012095Y-20269142D01*
X147974000Y-20345333D01*
X147935904Y-20383428D01*
X147859714Y-20421523D01*
X147821619Y-20421523D01*
X147745428Y-20383428D01*
X147707333Y-20345333D01*
X147669238Y-20269142D01*
X147669238Y-20116761D01*
X147631142Y-20040571D01*
X147593047Y-20002476D01*
X147516857Y-19964380D01*
X147364476Y-19964380D01*
X147288285Y-20002476D01*
X147250190Y-20040571D01*
X147212095Y-20116761D01*
X147212095Y-20269142D01*
X147250190Y-20345333D01*
X147288285Y-20383428D01*
X147364476Y-20421523D01*
X147516857Y-20421523D01*
X147593047Y-20383428D01*
X147631142Y-20345333D01*
X147669238Y-20269142D01*
X147935904Y-21742476D02*
X147974000Y-21780571D01*
X148012095Y-21856761D01*
X148012095Y-22047238D01*
X147974000Y-22123428D01*
X147935904Y-22161523D01*
X147859714Y-22199619D01*
X147783523Y-22199619D01*
X147669238Y-22161523D01*
X147212095Y-21704380D01*
X147212095Y-22199619D01*
X148012095Y-22466285D02*
X148012095Y-22999619D01*
X147212095Y-22656761D01*
X147935904Y-24282476D02*
X147974000Y-24320571D01*
X148012095Y-24396761D01*
X148012095Y-24587238D01*
X147974000Y-24663428D01*
X147935904Y-24701523D01*
X147859714Y-24739619D01*
X147783523Y-24739619D01*
X147669238Y-24701523D01*
X147212095Y-24244380D01*
X147212095Y-24739619D01*
X148012095Y-25425333D02*
X148012095Y-25272952D01*
X147974000Y-25196761D01*
X147935904Y-25158666D01*
X147821619Y-25082476D01*
X147669238Y-25044380D01*
X147364476Y-25044380D01*
X147288285Y-25082476D01*
X147250190Y-25120571D01*
X147212095Y-25196761D01*
X147212095Y-25349142D01*
X147250190Y-25425333D01*
X147288285Y-25463428D01*
X147364476Y-25501523D01*
X147554952Y-25501523D01*
X147631142Y-25463428D01*
X147669238Y-25425333D01*
X147707333Y-25349142D01*
X147707333Y-25196761D01*
X147669238Y-25120571D01*
X147631142Y-25082476D01*
X147554952Y-25044380D01*
X147935904Y-26822476D02*
X147974000Y-26860571D01*
X148012095Y-26936761D01*
X148012095Y-27127238D01*
X147974000Y-27203428D01*
X147935904Y-27241523D01*
X147859714Y-27279619D01*
X147783523Y-27279619D01*
X147669238Y-27241523D01*
X147212095Y-26784380D01*
X147212095Y-27279619D01*
X148012095Y-28003428D02*
X148012095Y-27622476D01*
X147631142Y-27584380D01*
X147669238Y-27622476D01*
X147707333Y-27698666D01*
X147707333Y-27889142D01*
X147669238Y-27965333D01*
X147631142Y-28003428D01*
X147554952Y-28041523D01*
X147364476Y-28041523D01*
X147288285Y-28003428D01*
X147250190Y-27965333D01*
X147212095Y-27889142D01*
X147212095Y-27698666D01*
X147250190Y-27622476D01*
X147288285Y-27584380D01*
X147935904Y-29362476D02*
X147974000Y-29400571D01*
X148012095Y-29476761D01*
X148012095Y-29667238D01*
X147974000Y-29743428D01*
X147935904Y-29781523D01*
X147859714Y-29819619D01*
X147783523Y-29819619D01*
X147669238Y-29781523D01*
X147212095Y-29324380D01*
X147212095Y-29819619D01*
X147745428Y-30505333D02*
X147212095Y-30505333D01*
X148050190Y-30314857D02*
X147478761Y-30124380D01*
X147478761Y-30619619D01*
X147935904Y-31902476D02*
X147974000Y-31940571D01*
X148012095Y-32016761D01*
X148012095Y-32207238D01*
X147974000Y-32283428D01*
X147935904Y-32321523D01*
X147859714Y-32359619D01*
X147783523Y-32359619D01*
X147669238Y-32321523D01*
X147212095Y-31864380D01*
X147212095Y-32359619D01*
X148012095Y-32626285D02*
X148012095Y-33121523D01*
X147707333Y-32854857D01*
X147707333Y-32969142D01*
X147669238Y-33045333D01*
X147631142Y-33083428D01*
X147554952Y-33121523D01*
X147364476Y-33121523D01*
X147288285Y-33083428D01*
X147250190Y-33045333D01*
X147212095Y-32969142D01*
X147212095Y-32740571D01*
X147250190Y-32664380D01*
X147288285Y-32626285D01*
X147935904Y-34442476D02*
X147974000Y-34480571D01*
X148012095Y-34556761D01*
X148012095Y-34747238D01*
X147974000Y-34823428D01*
X147935904Y-34861523D01*
X147859714Y-34899619D01*
X147783523Y-34899619D01*
X147669238Y-34861523D01*
X147212095Y-34404380D01*
X147212095Y-34899619D01*
X147935904Y-35204380D02*
X147974000Y-35242476D01*
X148012095Y-35318666D01*
X148012095Y-35509142D01*
X147974000Y-35585333D01*
X147935904Y-35623428D01*
X147859714Y-35661523D01*
X147783523Y-35661523D01*
X147669238Y-35623428D01*
X147212095Y-35166285D01*
X147212095Y-35661523D01*
X147935904Y-36982476D02*
X147974000Y-37020571D01*
X148012095Y-37096761D01*
X148012095Y-37287238D01*
X147974000Y-37363428D01*
X147935904Y-37401523D01*
X147859714Y-37439619D01*
X147783523Y-37439619D01*
X147669238Y-37401523D01*
X147212095Y-36944380D01*
X147212095Y-37439619D01*
X147212095Y-38201523D02*
X147212095Y-37744380D01*
X147212095Y-37972952D02*
X148012095Y-37972952D01*
X147897809Y-37896761D01*
X147821619Y-37820571D01*
X147783523Y-37744380D01*
X147935904Y-39522476D02*
X147974000Y-39560571D01*
X148012095Y-39636761D01*
X148012095Y-39827238D01*
X147974000Y-39903428D01*
X147935904Y-39941523D01*
X147859714Y-39979619D01*
X147783523Y-39979619D01*
X147669238Y-39941523D01*
X147212095Y-39484380D01*
X147212095Y-39979619D01*
X148012095Y-40474857D02*
X148012095Y-40551047D01*
X147974000Y-40627238D01*
X147935904Y-40665333D01*
X147859714Y-40703428D01*
X147707333Y-40741523D01*
X147516857Y-40741523D01*
X147364476Y-40703428D01*
X147288285Y-40665333D01*
X147250190Y-40627238D01*
X147212095Y-40551047D01*
X147212095Y-40474857D01*
X147250190Y-40398666D01*
X147288285Y-40360571D01*
X147364476Y-40322476D01*
X147516857Y-40284380D01*
X147707333Y-40284380D01*
X147859714Y-40322476D01*
X147935904Y-40360571D01*
X147974000Y-40398666D01*
X148012095Y-40474857D01*
X147212095Y-42519619D02*
X147212095Y-42062476D01*
X147212095Y-42291047D02*
X148012095Y-42291047D01*
X147897809Y-42214857D01*
X147821619Y-42138666D01*
X147783523Y-42062476D01*
X147212095Y-42900571D02*
X147212095Y-43052952D01*
X147250190Y-43129142D01*
X147288285Y-43167238D01*
X147402571Y-43243428D01*
X147554952Y-43281523D01*
X147859714Y-43281523D01*
X147935904Y-43243428D01*
X147974000Y-43205333D01*
X148012095Y-43129142D01*
X148012095Y-42976761D01*
X147974000Y-42900571D01*
X147935904Y-42862476D01*
X147859714Y-42824380D01*
X147669238Y-42824380D01*
X147593047Y-42862476D01*
X147554952Y-42900571D01*
X147516857Y-42976761D01*
X147516857Y-43129142D01*
X147554952Y-43205333D01*
X147593047Y-43243428D01*
X147669238Y-43281523D01*
X147212095Y-45059619D02*
X147212095Y-44602476D01*
X147212095Y-44831047D02*
X148012095Y-44831047D01*
X147897809Y-44754857D01*
X147821619Y-44678666D01*
X147783523Y-44602476D01*
X147669238Y-45516761D02*
X147707333Y-45440571D01*
X147745428Y-45402476D01*
X147821619Y-45364380D01*
X147859714Y-45364380D01*
X147935904Y-45402476D01*
X147974000Y-45440571D01*
X148012095Y-45516761D01*
X148012095Y-45669142D01*
X147974000Y-45745333D01*
X147935904Y-45783428D01*
X147859714Y-45821523D01*
X147821619Y-45821523D01*
X147745428Y-45783428D01*
X147707333Y-45745333D01*
X147669238Y-45669142D01*
X147669238Y-45516761D01*
X147631142Y-45440571D01*
X147593047Y-45402476D01*
X147516857Y-45364380D01*
X147364476Y-45364380D01*
X147288285Y-45402476D01*
X147250190Y-45440571D01*
X147212095Y-45516761D01*
X147212095Y-45669142D01*
X147250190Y-45745333D01*
X147288285Y-45783428D01*
X147364476Y-45821523D01*
X147516857Y-45821523D01*
X147593047Y-45783428D01*
X147631142Y-45745333D01*
X147669238Y-45669142D01*
X148012095Y-46761523D02*
X148012095Y-47256761D01*
X147707333Y-46990095D01*
X147707333Y-47104380D01*
X147669238Y-47180571D01*
X147631142Y-47218666D01*
X147554952Y-47256761D01*
X147364476Y-47256761D01*
X147288285Y-47218666D01*
X147250190Y-47180571D01*
X147212095Y-47104380D01*
X147212095Y-46875809D01*
X147250190Y-46799619D01*
X147288285Y-46761523D01*
X148012095Y-47485333D02*
X147212095Y-47752000D01*
X148012095Y-48018666D01*
X148012095Y-48209142D02*
X148012095Y-48704380D01*
X147707333Y-48437714D01*
X147707333Y-48552000D01*
X147669238Y-48628190D01*
X147631142Y-48666285D01*
X147554952Y-48704380D01*
X147364476Y-48704380D01*
X147288285Y-48666285D01*
X147250190Y-48628190D01*
X147212095Y-48552000D01*
X147212095Y-48323428D01*
X147250190Y-48247238D01*
X147288285Y-48209142D01*
X147974000Y-49682476D02*
X148012095Y-49606285D01*
X148012095Y-49492000D01*
X147974000Y-49377714D01*
X147897809Y-49301523D01*
X147821619Y-49263428D01*
X147669238Y-49225333D01*
X147554952Y-49225333D01*
X147402571Y-49263428D01*
X147326380Y-49301523D01*
X147250190Y-49377714D01*
X147212095Y-49492000D01*
X147212095Y-49568190D01*
X147250190Y-49682476D01*
X147288285Y-49720571D01*
X147554952Y-49720571D01*
X147554952Y-49568190D01*
X147212095Y-50063428D02*
X148012095Y-50063428D01*
X147212095Y-50520571D01*
X148012095Y-50520571D01*
X147212095Y-50901523D02*
X148012095Y-50901523D01*
X148012095Y-51092000D01*
X147974000Y-51206285D01*
X147897809Y-51282476D01*
X147821619Y-51320571D01*
X147669238Y-51358666D01*
X147554952Y-51358666D01*
X147402571Y-51320571D01*
X147326380Y-51282476D01*
X147250190Y-51206285D01*
X147212095Y-51092000D01*
X147212095Y-50901523D01*
X148012095Y-52679619D02*
X148012095Y-52298666D01*
X147631142Y-52260571D01*
X147669238Y-52298666D01*
X147707333Y-52374857D01*
X147707333Y-52565333D01*
X147669238Y-52641523D01*
X147631142Y-52679619D01*
X147554952Y-52717714D01*
X147364476Y-52717714D01*
X147288285Y-52679619D01*
X147250190Y-52641523D01*
X147212095Y-52565333D01*
X147212095Y-52374857D01*
X147250190Y-52298666D01*
X147288285Y-52260571D01*
X148012095Y-52946285D02*
X147212095Y-53212952D01*
X148012095Y-53479619D01*
X148012095Y-54552952D02*
X148012095Y-55010095D01*
X147212095Y-54781523D02*
X148012095Y-54781523D01*
X147212095Y-55276761D02*
X148012095Y-55276761D01*
X148012095Y-55467238D01*
X147974000Y-55581523D01*
X147897809Y-55657714D01*
X147821619Y-55695809D01*
X147669238Y-55733904D01*
X147554952Y-55733904D01*
X147402571Y-55695809D01*
X147326380Y-55657714D01*
X147250190Y-55581523D01*
X147212095Y-55467238D01*
X147212095Y-55276761D01*
X147212095Y-56076761D02*
X148012095Y-56076761D01*
X148012095Y-56864380D02*
X148012095Y-57321523D01*
X147212095Y-57092952D02*
X148012095Y-57092952D01*
X147212095Y-57588190D02*
X148012095Y-57588190D01*
X148012095Y-57778666D01*
X147974000Y-57892952D01*
X147897809Y-57969142D01*
X147821619Y-58007238D01*
X147669238Y-58045333D01*
X147554952Y-58045333D01*
X147402571Y-58007238D01*
X147326380Y-57969142D01*
X147250190Y-57892952D01*
X147212095Y-57778666D01*
X147212095Y-57588190D01*
X148012095Y-58540571D02*
X148012095Y-58692952D01*
X147974000Y-58769142D01*
X147897809Y-58845333D01*
X147745428Y-58883428D01*
X147478761Y-58883428D01*
X147326380Y-58845333D01*
X147250190Y-58769142D01*
X147212095Y-58692952D01*
X147212095Y-58540571D01*
X147250190Y-58464380D01*
X147326380Y-58388190D01*
X147478761Y-58350095D01*
X147745428Y-58350095D01*
X147897809Y-58388190D01*
X147974000Y-58464380D01*
X148012095Y-58540571D01*
X148012095Y-59461523D02*
X148012095Y-59956761D01*
X147707333Y-59690095D01*
X147707333Y-59804380D01*
X147669238Y-59880571D01*
X147631142Y-59918666D01*
X147554952Y-59956761D01*
X147364476Y-59956761D01*
X147288285Y-59918666D01*
X147250190Y-59880571D01*
X147212095Y-59804380D01*
X147212095Y-59575809D01*
X147250190Y-59499619D01*
X147288285Y-59461523D01*
X148012095Y-60185333D02*
X147212095Y-60452000D01*
X148012095Y-60718666D01*
X148012095Y-60909142D02*
X148012095Y-61404380D01*
X147707333Y-61137714D01*
X147707333Y-61252000D01*
X147669238Y-61328190D01*
X147631142Y-61366285D01*
X147554952Y-61404380D01*
X147364476Y-61404380D01*
X147288285Y-61366285D01*
X147250190Y-61328190D01*
X147212095Y-61252000D01*
X147212095Y-61023428D01*
X147250190Y-60947238D01*
X147288285Y-60909142D01*
X147974000Y-62382476D02*
X148012095Y-62306285D01*
X148012095Y-62192000D01*
X147974000Y-62077714D01*
X147897809Y-62001523D01*
X147821619Y-61963428D01*
X147669238Y-61925333D01*
X147554952Y-61925333D01*
X147402571Y-61963428D01*
X147326380Y-62001523D01*
X147250190Y-62077714D01*
X147212095Y-62192000D01*
X147212095Y-62268190D01*
X147250190Y-62382476D01*
X147288285Y-62420571D01*
X147554952Y-62420571D01*
X147554952Y-62268190D01*
X147212095Y-62763428D02*
X148012095Y-62763428D01*
X147212095Y-63220571D01*
X148012095Y-63220571D01*
X147212095Y-63601523D02*
X148012095Y-63601523D01*
X148012095Y-63792000D01*
X147974000Y-63906285D01*
X147897809Y-63982476D01*
X147821619Y-64020571D01*
X147669238Y-64058666D01*
X147554952Y-64058666D01*
X147402571Y-64020571D01*
X147326380Y-63982476D01*
X147250190Y-63906285D01*
X147212095Y-63792000D01*
X147212095Y-63601523D01*
X104248000Y-63601523D02*
X104209904Y-63677714D01*
X104209904Y-63792000D01*
X104248000Y-63906285D01*
X104324190Y-63982476D01*
X104400380Y-64020571D01*
X104552761Y-64058666D01*
X104667047Y-64058666D01*
X104819428Y-64020571D01*
X104895619Y-63982476D01*
X104971809Y-63906285D01*
X105009904Y-63792000D01*
X105009904Y-63715809D01*
X104971809Y-63601523D01*
X104933714Y-63563428D01*
X104667047Y-63563428D01*
X104667047Y-63715809D01*
X105009904Y-63220571D02*
X104209904Y-63220571D01*
X105009904Y-62763428D01*
X104209904Y-62763428D01*
X105009904Y-62382476D02*
X104209904Y-62382476D01*
X104209904Y-62192000D01*
X104248000Y-62077714D01*
X104324190Y-62001523D01*
X104400380Y-61963428D01*
X104552761Y-61925333D01*
X104667047Y-61925333D01*
X104819428Y-61963428D01*
X104895619Y-62001523D01*
X104971809Y-62077714D01*
X105009904Y-62192000D01*
X105009904Y-62382476D01*
X104209904Y-60604380D02*
X104209904Y-60985333D01*
X104590857Y-61023428D01*
X104552761Y-60985333D01*
X104514666Y-60909142D01*
X104514666Y-60718666D01*
X104552761Y-60642476D01*
X104590857Y-60604380D01*
X104667047Y-60566285D01*
X104857523Y-60566285D01*
X104933714Y-60604380D01*
X104971809Y-60642476D01*
X105009904Y-60718666D01*
X105009904Y-60909142D01*
X104971809Y-60985333D01*
X104933714Y-61023428D01*
X104209904Y-60337714D02*
X105009904Y-60071047D01*
X104209904Y-59804380D01*
X104209904Y-58940571D02*
X104209904Y-58483428D01*
X105009904Y-58712000D02*
X104209904Y-58712000D01*
X104933714Y-57759619D02*
X104971809Y-57797714D01*
X105009904Y-57912000D01*
X105009904Y-57988190D01*
X104971809Y-58102476D01*
X104895619Y-58178666D01*
X104819428Y-58216761D01*
X104667047Y-58254857D01*
X104552761Y-58254857D01*
X104400380Y-58216761D01*
X104324190Y-58178666D01*
X104248000Y-58102476D01*
X104209904Y-57988190D01*
X104209904Y-57912000D01*
X104248000Y-57797714D01*
X104286095Y-57759619D01*
X105009904Y-57416761D02*
X104209904Y-57416761D01*
X105009904Y-56959619D02*
X104552761Y-57302476D01*
X104209904Y-56959619D02*
X104667047Y-57416761D01*
X104209904Y-56184666D02*
X104209904Y-55727523D01*
X105009904Y-55956095D02*
X104209904Y-55956095D01*
X105009904Y-55460857D02*
X104209904Y-55460857D01*
X104781333Y-55194190D01*
X104209904Y-54927523D01*
X105009904Y-54927523D01*
X104971809Y-54584666D02*
X105009904Y-54470380D01*
X105009904Y-54279904D01*
X104971809Y-54203714D01*
X104933714Y-54165619D01*
X104857523Y-54127523D01*
X104781333Y-54127523D01*
X104705142Y-54165619D01*
X104667047Y-54203714D01*
X104628952Y-54279904D01*
X104590857Y-54432285D01*
X104552761Y-54508476D01*
X104514666Y-54546571D01*
X104438476Y-54584666D01*
X104362285Y-54584666D01*
X104286095Y-54546571D01*
X104248000Y-54508476D01*
X104209904Y-54432285D01*
X104209904Y-54241809D01*
X104248000Y-54127523D01*
X105009904Y-52965333D02*
X105009904Y-53346285D01*
X104209904Y-53346285D01*
X105009904Y-52279619D02*
X105009904Y-52736761D01*
X105009904Y-52508190D02*
X104209904Y-52508190D01*
X104324190Y-52584380D01*
X104400380Y-52660571D01*
X104438476Y-52736761D01*
X105009904Y-50425333D02*
X105009904Y-50806285D01*
X104209904Y-50806285D01*
X104286095Y-50196761D02*
X104248000Y-50158666D01*
X104209904Y-50082476D01*
X104209904Y-49892000D01*
X104248000Y-49815809D01*
X104286095Y-49777714D01*
X104362285Y-49739619D01*
X104438476Y-49739619D01*
X104552761Y-49777714D01*
X105009904Y-50234857D01*
X105009904Y-49739619D01*
X105009904Y-47885333D02*
X105009904Y-48266285D01*
X104209904Y-48266285D01*
X104209904Y-47694857D02*
X104209904Y-47199619D01*
X104514666Y-47466285D01*
X104514666Y-47352000D01*
X104552761Y-47275809D01*
X104590857Y-47237714D01*
X104667047Y-47199619D01*
X104857523Y-47199619D01*
X104933714Y-47237714D01*
X104971809Y-47275809D01*
X105009904Y-47352000D01*
X105009904Y-47580571D01*
X104971809Y-47656761D01*
X104933714Y-47694857D01*
X104971809Y-46278666D02*
X105009904Y-46164380D01*
X105009904Y-45973904D01*
X104971809Y-45897714D01*
X104933714Y-45859619D01*
X104857523Y-45821523D01*
X104781333Y-45821523D01*
X104705142Y-45859619D01*
X104667047Y-45897714D01*
X104628952Y-45973904D01*
X104590857Y-46126285D01*
X104552761Y-46202476D01*
X104514666Y-46240571D01*
X104438476Y-46278666D01*
X104362285Y-46278666D01*
X104286095Y-46240571D01*
X104248000Y-46202476D01*
X104209904Y-46126285D01*
X104209904Y-45935809D01*
X104248000Y-45821523D01*
X104209904Y-45554857D02*
X105009904Y-45364380D01*
X104438476Y-45212000D01*
X105009904Y-45059619D01*
X104209904Y-44869142D01*
X105009904Y-44145333D02*
X105009904Y-44602476D01*
X105009904Y-44373904D02*
X104209904Y-44373904D01*
X104324190Y-44450095D01*
X104400380Y-44526285D01*
X104438476Y-44602476D01*
X105009904Y-43795809D02*
X104209904Y-43795809D01*
X104514666Y-43795809D02*
X104476571Y-43719619D01*
X104476571Y-43567238D01*
X104514666Y-43491047D01*
X104552761Y-43452952D01*
X104628952Y-43414857D01*
X104857523Y-43414857D01*
X104933714Y-43452952D01*
X104971809Y-43491047D01*
X105009904Y-43567238D01*
X105009904Y-43719619D01*
X104971809Y-43795809D01*
X105009904Y-42957714D02*
X104971809Y-43033904D01*
X104933714Y-43072000D01*
X104857523Y-43110095D01*
X104628952Y-43110095D01*
X104552761Y-43072000D01*
X104514666Y-43033904D01*
X104476571Y-42957714D01*
X104476571Y-42843428D01*
X104514666Y-42767238D01*
X104552761Y-42729142D01*
X104628952Y-42691047D01*
X104857523Y-42691047D01*
X104933714Y-42729142D01*
X104971809Y-42767238D01*
X105009904Y-42843428D01*
X105009904Y-42957714D01*
X105009904Y-42233904D02*
X104971809Y-42310095D01*
X104933714Y-42348190D01*
X104857523Y-42386285D01*
X104628952Y-42386285D01*
X104552761Y-42348190D01*
X104514666Y-42310095D01*
X104476571Y-42233904D01*
X104476571Y-42119619D01*
X104514666Y-42043428D01*
X104552761Y-42005333D01*
X104628952Y-41967238D01*
X104857523Y-41967238D01*
X104933714Y-42005333D01*
X104971809Y-42043428D01*
X105009904Y-42119619D01*
X105009904Y-42233904D01*
X104476571Y-41738666D02*
X104476571Y-41433904D01*
X104209904Y-41624380D02*
X104895619Y-41624380D01*
X104971809Y-41586285D01*
X105009904Y-41510095D01*
X105009904Y-41433904D01*
X105009904Y-40284380D02*
X105009904Y-40741523D01*
X105009904Y-40512952D02*
X104209904Y-40512952D01*
X104324190Y-40589142D01*
X104400380Y-40665333D01*
X104438476Y-40741523D01*
X104209904Y-39789142D02*
X104209904Y-39712952D01*
X104248000Y-39636761D01*
X104286095Y-39598666D01*
X104362285Y-39560571D01*
X104514666Y-39522476D01*
X104705142Y-39522476D01*
X104857523Y-39560571D01*
X104933714Y-39598666D01*
X104971809Y-39636761D01*
X105009904Y-39712952D01*
X105009904Y-39789142D01*
X104971809Y-39865333D01*
X104933714Y-39903428D01*
X104857523Y-39941523D01*
X104705142Y-39979619D01*
X104514666Y-39979619D01*
X104362285Y-39941523D01*
X104286095Y-39903428D01*
X104248000Y-39865333D01*
X104209904Y-39789142D01*
X105009904Y-37744380D02*
X105009904Y-37592000D01*
X104971809Y-37515809D01*
X104933714Y-37477714D01*
X104819428Y-37401523D01*
X104667047Y-37363428D01*
X104362285Y-37363428D01*
X104286095Y-37401523D01*
X104248000Y-37439619D01*
X104209904Y-37515809D01*
X104209904Y-37668190D01*
X104248000Y-37744380D01*
X104286095Y-37782476D01*
X104362285Y-37820571D01*
X104552761Y-37820571D01*
X104628952Y-37782476D01*
X104667047Y-37744380D01*
X104705142Y-37668190D01*
X104705142Y-37515809D01*
X104667047Y-37439619D01*
X104628952Y-37401523D01*
X104552761Y-37363428D01*
X104552761Y-35128190D02*
X104514666Y-35204380D01*
X104476571Y-35242476D01*
X104400380Y-35280571D01*
X104362285Y-35280571D01*
X104286095Y-35242476D01*
X104248000Y-35204380D01*
X104209904Y-35128190D01*
X104209904Y-34975809D01*
X104248000Y-34899619D01*
X104286095Y-34861523D01*
X104362285Y-34823428D01*
X104400380Y-34823428D01*
X104476571Y-34861523D01*
X104514666Y-34899619D01*
X104552761Y-34975809D01*
X104552761Y-35128190D01*
X104590857Y-35204380D01*
X104628952Y-35242476D01*
X104705142Y-35280571D01*
X104857523Y-35280571D01*
X104933714Y-35242476D01*
X104971809Y-35204380D01*
X105009904Y-35128190D01*
X105009904Y-34975809D01*
X104971809Y-34899619D01*
X104933714Y-34861523D01*
X104857523Y-34823428D01*
X104705142Y-34823428D01*
X104628952Y-34861523D01*
X104590857Y-34899619D01*
X104552761Y-34975809D01*
X104209904Y-32778666D02*
X104209904Y-32245333D01*
X105009904Y-32588190D01*
X104209904Y-29819619D02*
X104209904Y-29972000D01*
X104248000Y-30048190D01*
X104286095Y-30086285D01*
X104400380Y-30162476D01*
X104552761Y-30200571D01*
X104857523Y-30200571D01*
X104933714Y-30162476D01*
X104971809Y-30124380D01*
X105009904Y-30048190D01*
X105009904Y-29895809D01*
X104971809Y-29819619D01*
X104933714Y-29781523D01*
X104857523Y-29743428D01*
X104667047Y-29743428D01*
X104590857Y-29781523D01*
X104552761Y-29819619D01*
X104514666Y-29895809D01*
X104514666Y-30048190D01*
X104552761Y-30124380D01*
X104590857Y-30162476D01*
X104667047Y-30200571D01*
X104971809Y-28403428D02*
X105009904Y-28289142D01*
X105009904Y-28098666D01*
X104971809Y-28022476D01*
X104933714Y-27984380D01*
X104857523Y-27946285D01*
X104781333Y-27946285D01*
X104705142Y-27984380D01*
X104667047Y-28022476D01*
X104628952Y-28098666D01*
X104590857Y-28251047D01*
X104552761Y-28327238D01*
X104514666Y-28365333D01*
X104438476Y-28403428D01*
X104362285Y-28403428D01*
X104286095Y-28365333D01*
X104248000Y-28327238D01*
X104209904Y-28251047D01*
X104209904Y-28060571D01*
X104248000Y-27946285D01*
X105009904Y-27603428D02*
X104209904Y-27603428D01*
X104209904Y-27412952D01*
X104248000Y-27298666D01*
X104324190Y-27222476D01*
X104400380Y-27184380D01*
X104552761Y-27146285D01*
X104667047Y-27146285D01*
X104819428Y-27184380D01*
X104895619Y-27222476D01*
X104971809Y-27298666D01*
X105009904Y-27412952D01*
X105009904Y-27603428D01*
X104781333Y-26841523D02*
X104781333Y-26460571D01*
X105009904Y-26917714D02*
X104209904Y-26651047D01*
X105009904Y-26384380D01*
X104971809Y-25590380D02*
X105009904Y-25476095D01*
X105009904Y-25285619D01*
X104971809Y-25209428D01*
X104933714Y-25171333D01*
X104857523Y-25133238D01*
X104781333Y-25133238D01*
X104705142Y-25171333D01*
X104667047Y-25209428D01*
X104628952Y-25285619D01*
X104590857Y-25438000D01*
X104552761Y-25514190D01*
X104514666Y-25552285D01*
X104438476Y-25590380D01*
X104362285Y-25590380D01*
X104286095Y-25552285D01*
X104248000Y-25514190D01*
X104209904Y-25438000D01*
X104209904Y-25247523D01*
X104248000Y-25133238D01*
X104933714Y-24333238D02*
X104971809Y-24371333D01*
X105009904Y-24485619D01*
X105009904Y-24561809D01*
X104971809Y-24676095D01*
X104895619Y-24752285D01*
X104819428Y-24790380D01*
X104667047Y-24828476D01*
X104552761Y-24828476D01*
X104400380Y-24790380D01*
X104324190Y-24752285D01*
X104248000Y-24676095D01*
X104209904Y-24561809D01*
X104209904Y-24485619D01*
X104248000Y-24371333D01*
X104286095Y-24333238D01*
X105009904Y-23609428D02*
X105009904Y-23990380D01*
X104209904Y-23990380D01*
X104209904Y-22961523D02*
X104209904Y-22504380D01*
X105009904Y-22732952D02*
X104209904Y-22732952D01*
X104209904Y-22313904D02*
X105009904Y-21780571D01*
X104209904Y-21780571D02*
X105009904Y-22313904D01*
X105009904Y-19945333D02*
X104628952Y-20212000D01*
X105009904Y-20402476D02*
X104209904Y-20402476D01*
X104209904Y-20097714D01*
X104248000Y-20021523D01*
X104286095Y-19983428D01*
X104362285Y-19945333D01*
X104476571Y-19945333D01*
X104552761Y-19983428D01*
X104590857Y-20021523D01*
X104628952Y-20097714D01*
X104628952Y-20402476D01*
X104209904Y-19678666D02*
X105009904Y-19145333D01*
X104209904Y-19145333D02*
X105009904Y-19678666D01*
X105009904Y-17043428D02*
X105009904Y-17500571D01*
X105009904Y-17272000D02*
X104209904Y-17272000D01*
X104324190Y-17348190D01*
X104400380Y-17424380D01*
X104438476Y-17500571D01*
X104209904Y-14262095D02*
X104209904Y-14185904D01*
X104248000Y-14109714D01*
X104286095Y-14071619D01*
X104362285Y-14033523D01*
X104514666Y-13995428D01*
X104705142Y-13995428D01*
X104857523Y-14033523D01*
X104933714Y-14071619D01*
X104971809Y-14109714D01*
X105009904Y-14185904D01*
X105009904Y-14262095D01*
X104971809Y-14338285D01*
X104933714Y-14376380D01*
X104857523Y-14414476D01*
X104705142Y-14452571D01*
X104514666Y-14452571D01*
X104362285Y-14414476D01*
X104286095Y-14376380D01*
X104248000Y-14338285D01*
X104209904Y-14262095D01*
D11*
%TO.C,JTAG CONNECTOR*%
X121900000Y-66250000D02*
X122350000Y-66250000D01*
X121900000Y-68100000D02*
X121900000Y-66250000D01*
X129700000Y-70650000D02*
X129700000Y-70400000D01*
X121900000Y-70650000D02*
X121900000Y-70400000D01*
X129700000Y-68100000D02*
X129700000Y-66250000D01*
X129700000Y-66250000D02*
X129250000Y-66250000D01*
X124100000Y-65700000D02*
X124550000Y-65700000D01*
X124100000Y-65700000D02*
X124100000Y-66150000D01*
%TO.C,U1*%
X120810000Y-50710000D02*
X120810000Y-49450000D01*
X120810000Y-43890000D02*
X120810000Y-45150000D01*
X117050000Y-50710000D02*
X120810000Y-50710000D01*
X114800000Y-43890000D02*
X120810000Y-43890000D01*
%TO.C,SW1*%
X136020000Y-17795000D02*
X136050000Y-17795000D01*
X142480000Y-17795000D02*
X142450000Y-17795000D01*
X142480000Y-24255000D02*
X142450000Y-24255000D01*
X136050000Y-24255000D02*
X136020000Y-24255000D01*
X137950000Y-17795000D02*
X140550000Y-17795000D01*
X136020000Y-24255000D02*
X136020000Y-17795000D01*
X137950000Y-24255000D02*
X140550000Y-24255000D01*
X142480000Y-24255000D02*
X142480000Y-17795000D01*
%TO.C,SDA SCL*%
X112130000Y-24930000D02*
X109470000Y-24930000D01*
X112130000Y-27530000D02*
X112130000Y-24930000D01*
X109470000Y-27530000D02*
X109470000Y-24930000D01*
X112130000Y-27530000D02*
X109470000Y-27530000D01*
X112130000Y-28800000D02*
X112130000Y-30130000D01*
X112130000Y-30130000D02*
X110800000Y-30130000D01*
%TO.C,3V3 TX RX GND*%
X112130000Y-13450000D02*
X109470000Y-13450000D01*
X112130000Y-21130000D02*
X112130000Y-13450000D01*
X109470000Y-21130000D02*
X109470000Y-13450000D01*
X112130000Y-21130000D02*
X109470000Y-21130000D01*
X112130000Y-22400000D02*
X112130000Y-23730000D01*
X112130000Y-23730000D02*
X110800000Y-23730000D01*
%TO.C,J2*%
X144270000Y-64210000D02*
X146930000Y-64210000D01*
X144270000Y-15890000D02*
X144270000Y-64210000D01*
X146930000Y-15890000D02*
X146930000Y-64210000D01*
X144270000Y-15890000D02*
X146930000Y-15890000D01*
X144270000Y-14620000D02*
X144270000Y-13290000D01*
X144270000Y-13290000D02*
X145600000Y-13290000D01*
%TO.C,J1*%
X108330000Y-13370000D02*
X105670000Y-13370000D01*
X108330000Y-61690000D02*
X108330000Y-13370000D01*
X105670000Y-61690000D02*
X105670000Y-13370000D01*
X108330000Y-61690000D02*
X105670000Y-61690000D01*
X108330000Y-62960000D02*
X108330000Y-64290000D01*
X108330000Y-64290000D02*
X107000000Y-64290000D01*
%TO.C,TP20*%
X119250000Y-69000000D02*
G75*
G03*
X119250000Y-69000000I-1500000J0D01*
G01*
%TO.C,TP19*%
X115000000Y-69000000D02*
G75*
G03*
X115000000Y-69000000I-1500000J0D01*
G01*
%TO.C,BOOT*%
X109470000Y-43870000D02*
X112130000Y-43870000D01*
X109470000Y-41270000D02*
X109470000Y-43870000D01*
X112130000Y-41270000D02*
X112130000Y-43870000D01*
X109470000Y-41270000D02*
X112130000Y-41270000D01*
X109470000Y-40000000D02*
X109470000Y-38670000D01*
X109470000Y-38670000D02*
X110800000Y-38670000D01*
%TO.C,R34*%
X135265000Y-68314564D02*
X135265000Y-67860436D01*
X136735000Y-68314564D02*
X136735000Y-67860436D01*
%TO.C,R14*%
X110522500Y-33337742D02*
X110522500Y-33812258D01*
X109477500Y-33337742D02*
X109477500Y-33812258D01*
%TO.C,R13*%
X112322500Y-33337742D02*
X112322500Y-33812258D01*
X111277500Y-33337742D02*
X111277500Y-33812258D01*
%TO.C,R11*%
X139522500Y-29087742D02*
X139522500Y-29562258D01*
X138477500Y-29087742D02*
X138477500Y-29562258D01*
%TO.C,R9*%
X127177500Y-49657258D02*
X127177500Y-49182742D01*
X128222500Y-49657258D02*
X128222500Y-49182742D01*
%TO.C,R8*%
X130777500Y-49657258D02*
X130777500Y-49182742D01*
X131822500Y-49657258D02*
X131822500Y-49182742D01*
%TO.C,R7*%
X134377500Y-49657258D02*
X134377500Y-49182742D01*
X135422500Y-49657258D02*
X135422500Y-49182742D01*
%TO.C,R1*%
X110537742Y-44777500D02*
X111012258Y-44777500D01*
X110537742Y-45822500D02*
X111012258Y-45822500D01*
%TO.C,M1*%
X115480000Y-7330000D02*
X115480000Y-35330000D01*
X132980000Y-35330000D02*
X132980000Y-33330000D01*
X132980000Y-33330000D02*
X132980000Y-32330000D01*
X132980000Y-32330000D02*
X132980000Y-31330000D01*
X132980000Y-31330000D02*
X132980000Y-30330000D01*
X132980000Y-30330000D02*
X132980000Y-29330000D01*
X132980000Y-29330000D02*
X132980000Y-28330000D01*
X132980000Y-28330000D02*
X132980000Y-27330000D01*
X132980000Y-27330000D02*
X132980000Y-26330000D01*
X132980000Y-26330000D02*
X132980000Y-25330000D01*
X132980000Y-25330000D02*
X132980000Y-24330000D01*
X132980000Y-24330000D02*
X132980000Y-23330000D01*
X132980000Y-23330000D02*
X132980000Y-22330000D01*
X132980000Y-22330000D02*
X132980000Y-21330000D01*
X132980000Y-21330000D02*
X132980000Y-20330000D01*
X132980000Y-20330000D02*
X132980000Y-19330000D01*
X132980000Y-19330000D02*
X132980000Y-18330000D01*
X132980000Y-18330000D02*
X132980000Y-17330000D01*
X132980000Y-17330000D02*
X132980000Y-16330000D01*
X132980000Y-16330000D02*
X132980000Y-15330000D01*
X132980000Y-15330000D02*
X132980000Y-14330000D01*
X132980000Y-14330000D02*
X132980000Y-13330000D01*
X132980000Y-13330000D02*
X132980000Y-12330000D01*
X132980000Y-12330000D02*
X132980000Y-11330000D01*
X132980000Y-11330000D02*
X132980000Y-10330000D01*
X132980000Y-10330000D02*
X132980000Y-9330000D01*
X132980000Y-9330000D02*
X132980000Y-8330000D01*
X132980000Y-8330000D02*
X132980000Y-8320000D01*
X132980000Y-8320000D02*
X132980000Y-8310000D01*
X132980000Y-8310000D02*
X132980000Y-8300000D01*
X132980000Y-8300000D02*
X132980000Y-8290000D01*
X132980000Y-8290000D02*
X132980000Y-8280000D01*
X132980000Y-8280000D02*
X132980000Y-8270000D01*
X132980000Y-8270000D02*
X132980000Y-8260000D01*
X132980000Y-8260000D02*
X132980000Y-8230000D01*
X132980000Y-8230000D02*
X132980000Y-8130000D01*
X132980000Y-8130000D02*
X132980000Y-8030000D01*
X132980000Y-8030000D02*
X132980000Y-7930000D01*
X132980000Y-7930000D02*
X132980000Y-7830000D01*
X132980000Y-7830000D02*
X132980000Y-7630000D01*
X132980000Y-7630000D02*
X132980000Y-7430000D01*
X132980000Y-7430000D02*
X132980000Y-7330000D01*
X132980000Y-35330000D02*
X131980000Y-35330000D01*
X131980000Y-35330000D02*
X130980000Y-35330000D01*
X130980000Y-35330000D02*
X129980000Y-35330000D01*
X129980000Y-35330000D02*
X128980000Y-35330000D01*
X128980000Y-35330000D02*
X127980000Y-35330000D01*
X127980000Y-35330000D02*
X126980000Y-35330000D01*
X126980000Y-35330000D02*
X125980000Y-35330000D01*
X125980000Y-35330000D02*
X124980000Y-35330000D01*
X124980000Y-35330000D02*
X123980000Y-35330000D01*
X123980000Y-35330000D02*
X122980000Y-35330000D01*
X122980000Y-35330000D02*
X121980000Y-35330000D01*
X121980000Y-35330000D02*
X120980000Y-35330000D01*
X120980000Y-35330000D02*
X119980000Y-35330000D01*
X119980000Y-35330000D02*
X118980000Y-35330000D01*
X118980000Y-35330000D02*
X117980000Y-35330000D01*
X117980000Y-35330000D02*
X116980000Y-35330000D01*
X116980000Y-35330000D02*
X115980000Y-35330000D01*
X115980000Y-35330000D02*
X115480000Y-35330000D01*
X132980000Y-7330000D02*
X132980000Y-6630000D01*
X132980000Y-6630000D02*
X115480000Y-6630000D01*
X115480000Y-6630000D02*
X115480000Y-7330000D01*
%TO.C,L3*%
X117375279Y-66260000D02*
X117049721Y-66260000D01*
X117375279Y-65240000D02*
X117049721Y-65240000D01*
D10*
%TO.C,Reset*%
X137650000Y-27970000D02*
X137650000Y-31570000D01*
X137650000Y-31570000D02*
X137150000Y-32070000D01*
X137150000Y-32070000D02*
X136350000Y-32070000D01*
X136350000Y-32070000D02*
X135850000Y-31570000D01*
X135850000Y-31570000D02*
X135850000Y-27970000D01*
X135850000Y-27970000D02*
X136350000Y-27470000D01*
X136350000Y-27470000D02*
X137150000Y-27470000D01*
X137150000Y-27470000D02*
X137650000Y-27970000D01*
D11*
%TO.C,J3*%
X143110000Y-55170000D02*
X143110000Y-64290000D01*
X143110000Y-64290000D02*
X109830000Y-64290000D01*
X109830000Y-64290000D02*
X109830000Y-55170000D01*
X109830000Y-55170000D02*
X143110000Y-55170000D01*
X128520000Y-55170000D02*
X128520000Y-56480000D01*
X128520000Y-56480000D02*
X141810000Y-56480000D01*
X141810000Y-56480000D02*
X141810000Y-62980000D01*
X141810000Y-62980000D02*
X111130000Y-62980000D01*
X111130000Y-62980000D02*
X111130000Y-56480000D01*
X111130000Y-56480000D02*
X124420000Y-56480000D01*
X124420000Y-56480000D02*
X124420000Y-56480000D01*
X124420000Y-56480000D02*
X124420000Y-55170000D01*
X137900000Y-54780000D02*
X138400000Y-53780000D01*
X138400000Y-53780000D02*
X137400000Y-53780000D01*
X137400000Y-53780000D02*
X137900000Y-54780000D01*
%TO.C,D5*%
X125165000Y-48580000D02*
X125165000Y-50865000D01*
X125165000Y-50865000D02*
X126635000Y-50865000D01*
X126635000Y-50865000D02*
X126635000Y-48580000D01*
%TO.C,D4*%
X128765000Y-48580000D02*
X128765000Y-50865000D01*
X128765000Y-50865000D02*
X130235000Y-50865000D01*
X130235000Y-50865000D02*
X130235000Y-48580000D01*
%TO.C,D3*%
X132365000Y-48580000D02*
X132365000Y-50865000D01*
X132365000Y-50865000D02*
X133835000Y-50865000D01*
X133835000Y-50865000D02*
X133835000Y-48580000D01*
%TO.C,C24*%
X139985000Y-67788748D02*
X139985000Y-68311252D01*
X138515000Y-67788748D02*
X138515000Y-68311252D01*
%TO.C,C23*%
X133335000Y-67788748D02*
X133335000Y-68311252D01*
X131865000Y-67788748D02*
X131865000Y-68311252D01*
%TO.C,C9*%
X140240000Y-29415580D02*
X140240000Y-29134420D01*
X141260000Y-29415580D02*
X141260000Y-29134420D01*
%TO.C,C8*%
X136915580Y-35260000D02*
X136634420Y-35260000D01*
X136915580Y-34240000D02*
X136634420Y-34240000D01*
%TO.C,C2*%
X124165000Y-45711252D02*
X124165000Y-45188748D01*
X125635000Y-45711252D02*
X125635000Y-45188748D01*
%TO.C,C1*%
X110665000Y-52811252D02*
X110665000Y-52288748D01*
X112135000Y-52811252D02*
X112135000Y-52288748D01*
%TO.C,JTAG CONNECTOR*%
D10*
X114419809Y-53300380D02*
X114419809Y-54014666D01*
X114372190Y-54157523D01*
X114276952Y-54252761D01*
X114134095Y-54300380D01*
X114038857Y-54300380D01*
X114753142Y-53300380D02*
X115324571Y-53300380D01*
X115038857Y-54300380D02*
X115038857Y-53300380D01*
X115610285Y-54014666D02*
X116086476Y-54014666D01*
X115515047Y-54300380D02*
X115848380Y-53300380D01*
X116181714Y-54300380D01*
X117038857Y-53348000D02*
X116943619Y-53300380D01*
X116800761Y-53300380D01*
X116657904Y-53348000D01*
X116562666Y-53443238D01*
X116515047Y-53538476D01*
X116467428Y-53728952D01*
X116467428Y-53871809D01*
X116515047Y-54062285D01*
X116562666Y-54157523D01*
X116657904Y-54252761D01*
X116800761Y-54300380D01*
X116896000Y-54300380D01*
X117038857Y-54252761D01*
X117086476Y-54205142D01*
X117086476Y-53871809D01*
X116896000Y-53871809D01*
X118848380Y-54205142D02*
X118800761Y-54252761D01*
X118657904Y-54300380D01*
X118562666Y-54300380D01*
X118419809Y-54252761D01*
X118324571Y-54157523D01*
X118276952Y-54062285D01*
X118229333Y-53871809D01*
X118229333Y-53728952D01*
X118276952Y-53538476D01*
X118324571Y-53443238D01*
X118419809Y-53348000D01*
X118562666Y-53300380D01*
X118657904Y-53300380D01*
X118800761Y-53348000D01*
X118848380Y-53395619D01*
X119467428Y-53300380D02*
X119657904Y-53300380D01*
X119753142Y-53348000D01*
X119848380Y-53443238D01*
X119896000Y-53633714D01*
X119896000Y-53967047D01*
X119848380Y-54157523D01*
X119753142Y-54252761D01*
X119657904Y-54300380D01*
X119467428Y-54300380D01*
X119372190Y-54252761D01*
X119276952Y-54157523D01*
X119229333Y-53967047D01*
X119229333Y-53633714D01*
X119276952Y-53443238D01*
X119372190Y-53348000D01*
X119467428Y-53300380D01*
X120324571Y-54300380D02*
X120324571Y-53300380D01*
X120896000Y-54300380D01*
X120896000Y-53300380D01*
X121372190Y-54300380D02*
X121372190Y-53300380D01*
X121943619Y-54300380D01*
X121943619Y-53300380D01*
X122419809Y-53776571D02*
X122753142Y-53776571D01*
X122896000Y-54300380D02*
X122419809Y-54300380D01*
X122419809Y-53300380D01*
X122896000Y-53300380D01*
X123896000Y-54205142D02*
X123848380Y-54252761D01*
X123705523Y-54300380D01*
X123610285Y-54300380D01*
X123467428Y-54252761D01*
X123372190Y-54157523D01*
X123324571Y-54062285D01*
X123276952Y-53871809D01*
X123276952Y-53728952D01*
X123324571Y-53538476D01*
X123372190Y-53443238D01*
X123467428Y-53348000D01*
X123610285Y-53300380D01*
X123705523Y-53300380D01*
X123848380Y-53348000D01*
X123896000Y-53395619D01*
X124181714Y-53300380D02*
X124753142Y-53300380D01*
X124467428Y-54300380D02*
X124467428Y-53300380D01*
X125276952Y-53300380D02*
X125467428Y-53300380D01*
X125562666Y-53348000D01*
X125657904Y-53443238D01*
X125705523Y-53633714D01*
X125705523Y-53967047D01*
X125657904Y-54157523D01*
X125562666Y-54252761D01*
X125467428Y-54300380D01*
X125276952Y-54300380D01*
X125181714Y-54252761D01*
X125086476Y-54157523D01*
X125038857Y-53967047D01*
X125038857Y-53633714D01*
X125086476Y-53443238D01*
X125181714Y-53348000D01*
X125276952Y-53300380D01*
X126705523Y-54300380D02*
X126372190Y-53824190D01*
X126134095Y-54300380D02*
X126134095Y-53300380D01*
X126515047Y-53300380D01*
X126610285Y-53348000D01*
X126657904Y-53395619D01*
X126705523Y-53490857D01*
X126705523Y-53633714D01*
X126657904Y-53728952D01*
X126610285Y-53776571D01*
X126515047Y-53824190D01*
X126134095Y-53824190D01*
%TO.C,U1*%
X118138095Y-42252380D02*
X118138095Y-43061904D01*
X118185714Y-43157142D01*
X118233333Y-43204761D01*
X118328571Y-43252380D01*
X118519047Y-43252380D01*
X118614285Y-43204761D01*
X118661904Y-43157142D01*
X118709523Y-43061904D01*
X118709523Y-42252380D01*
X119709523Y-43252380D02*
X119138095Y-43252380D01*
X119423809Y-43252380D02*
X119423809Y-42252380D01*
X119328571Y-42395238D01*
X119233333Y-42490476D01*
X119138095Y-42538095D01*
%TO.C,SW1*%
X137916666Y-15654761D02*
X138059523Y-15702380D01*
X138297619Y-15702380D01*
X138392857Y-15654761D01*
X138440476Y-15607142D01*
X138488095Y-15511904D01*
X138488095Y-15416666D01*
X138440476Y-15321428D01*
X138392857Y-15273809D01*
X138297619Y-15226190D01*
X138107142Y-15178571D01*
X138011904Y-15130952D01*
X137964285Y-15083333D01*
X137916666Y-14988095D01*
X137916666Y-14892857D01*
X137964285Y-14797619D01*
X138011904Y-14750000D01*
X138107142Y-14702380D01*
X138345238Y-14702380D01*
X138488095Y-14750000D01*
X138821428Y-14702380D02*
X139059523Y-15702380D01*
X139250000Y-14988095D01*
X139440476Y-15702380D01*
X139678571Y-14702380D01*
X140583333Y-15702380D02*
X140011904Y-15702380D01*
X140297619Y-15702380D02*
X140297619Y-14702380D01*
X140202380Y-14845238D01*
X140107142Y-14940476D01*
X140011904Y-14988095D01*
%TO.C,SDA SCL*%
X113607809Y-30066952D02*
X113645904Y-29952666D01*
X113645904Y-29762190D01*
X113607809Y-29686000D01*
X113569714Y-29647904D01*
X113493523Y-29609809D01*
X113417333Y-29609809D01*
X113341142Y-29647904D01*
X113303047Y-29686000D01*
X113264952Y-29762190D01*
X113226857Y-29914571D01*
X113188761Y-29990761D01*
X113150666Y-30028857D01*
X113074476Y-30066952D01*
X112998285Y-30066952D01*
X112922095Y-30028857D01*
X112884000Y-29990761D01*
X112845904Y-29914571D01*
X112845904Y-29724095D01*
X112884000Y-29609809D01*
X113645904Y-29266952D02*
X112845904Y-29266952D01*
X112845904Y-29076476D01*
X112884000Y-28962190D01*
X112960190Y-28886000D01*
X113036380Y-28847904D01*
X113188761Y-28809809D01*
X113303047Y-28809809D01*
X113455428Y-28847904D01*
X113531619Y-28886000D01*
X113607809Y-28962190D01*
X113645904Y-29076476D01*
X113645904Y-29266952D01*
X113417333Y-28505047D02*
X113417333Y-28124095D01*
X113645904Y-28581238D02*
X112845904Y-28314571D01*
X113645904Y-28047904D01*
X113607809Y-27209809D02*
X113645904Y-27095523D01*
X113645904Y-26905047D01*
X113607809Y-26828857D01*
X113569714Y-26790761D01*
X113493523Y-26752666D01*
X113417333Y-26752666D01*
X113341142Y-26790761D01*
X113303047Y-26828857D01*
X113264952Y-26905047D01*
X113226857Y-27057428D01*
X113188761Y-27133619D01*
X113150666Y-27171714D01*
X113074476Y-27209809D01*
X112998285Y-27209809D01*
X112922095Y-27171714D01*
X112884000Y-27133619D01*
X112845904Y-27057428D01*
X112845904Y-26866952D01*
X112884000Y-26752666D01*
X113569714Y-25952666D02*
X113607809Y-25990761D01*
X113645904Y-26105047D01*
X113645904Y-26181238D01*
X113607809Y-26295523D01*
X113531619Y-26371714D01*
X113455428Y-26409809D01*
X113303047Y-26447904D01*
X113188761Y-26447904D01*
X113036380Y-26409809D01*
X112960190Y-26371714D01*
X112884000Y-26295523D01*
X112845904Y-26181238D01*
X112845904Y-26105047D01*
X112884000Y-25990761D01*
X112922095Y-25952666D01*
X113645904Y-25228857D02*
X113645904Y-25609809D01*
X112845904Y-25609809D01*
%TO.C,3V3 TX RX GND*%
X112845904Y-22878476D02*
X112845904Y-22383238D01*
X113150666Y-22649904D01*
X113150666Y-22535619D01*
X113188761Y-22459428D01*
X113226857Y-22421333D01*
X113303047Y-22383238D01*
X113493523Y-22383238D01*
X113569714Y-22421333D01*
X113607809Y-22459428D01*
X113645904Y-22535619D01*
X113645904Y-22764190D01*
X113607809Y-22840380D01*
X113569714Y-22878476D01*
X112845904Y-22154666D02*
X113645904Y-21888000D01*
X112845904Y-21621333D01*
X112845904Y-21430857D02*
X112845904Y-20935619D01*
X113150666Y-21202285D01*
X113150666Y-21088000D01*
X113188761Y-21011809D01*
X113226857Y-20973714D01*
X113303047Y-20935619D01*
X113493523Y-20935619D01*
X113569714Y-20973714D01*
X113607809Y-21011809D01*
X113645904Y-21088000D01*
X113645904Y-21316571D01*
X113607809Y-21392761D01*
X113569714Y-21430857D01*
X112845904Y-20097523D02*
X112845904Y-19640380D01*
X113645904Y-19868952D02*
X112845904Y-19868952D01*
X112845904Y-19449904D02*
X113645904Y-18916571D01*
X112845904Y-18916571D02*
X113645904Y-19449904D01*
X113645904Y-17545142D02*
X113264952Y-17811809D01*
X113645904Y-18002285D02*
X112845904Y-18002285D01*
X112845904Y-17697523D01*
X112884000Y-17621333D01*
X112922095Y-17583238D01*
X112998285Y-17545142D01*
X113112571Y-17545142D01*
X113188761Y-17583238D01*
X113226857Y-17621333D01*
X113264952Y-17697523D01*
X113264952Y-18002285D01*
X112845904Y-17278476D02*
X113645904Y-16745142D01*
X112845904Y-16745142D02*
X113645904Y-17278476D01*
X112884000Y-15411809D02*
X112845904Y-15488000D01*
X112845904Y-15602285D01*
X112884000Y-15716571D01*
X112960190Y-15792761D01*
X113036380Y-15830857D01*
X113188761Y-15868952D01*
X113303047Y-15868952D01*
X113455428Y-15830857D01*
X113531619Y-15792761D01*
X113607809Y-15716571D01*
X113645904Y-15602285D01*
X113645904Y-15526095D01*
X113607809Y-15411809D01*
X113569714Y-15373714D01*
X113303047Y-15373714D01*
X113303047Y-15526095D01*
X113645904Y-15030857D02*
X112845904Y-15030857D01*
X113645904Y-14573714D01*
X112845904Y-14573714D01*
X113645904Y-14192761D02*
X112845904Y-14192761D01*
X112845904Y-14002285D01*
X112884000Y-13888000D01*
X112960190Y-13811809D01*
X113036380Y-13773714D01*
X113188761Y-13735619D01*
X113303047Y-13735619D01*
X113455428Y-13773714D01*
X113531619Y-13811809D01*
X113607809Y-13888000D01*
X113645904Y-14002285D01*
X113645904Y-14192761D01*
%TO.C,J2*%
X145208666Y-64984380D02*
X145208666Y-65698666D01*
X145161047Y-65841523D01*
X145065809Y-65936761D01*
X144922952Y-65984380D01*
X144827714Y-65984380D01*
X145637238Y-65079619D02*
X145684857Y-65032000D01*
X145780095Y-64984380D01*
X146018190Y-64984380D01*
X146113428Y-65032000D01*
X146161047Y-65079619D01*
X146208666Y-65174857D01*
X146208666Y-65270095D01*
X146161047Y-65412952D01*
X145589619Y-65984380D01*
X146208666Y-65984380D01*
%TO.C,J1*%
X106600666Y-64984380D02*
X106600666Y-65698666D01*
X106553047Y-65841523D01*
X106457809Y-65936761D01*
X106314952Y-65984380D01*
X106219714Y-65984380D01*
X107600666Y-65984380D02*
X107029238Y-65984380D01*
X107314952Y-65984380D02*
X107314952Y-64984380D01*
X107219714Y-65127238D01*
X107124476Y-65222476D01*
X107029238Y-65270095D01*
%TO.C,TP20*%
X119952380Y-70738095D02*
X119952380Y-70166666D01*
X120952380Y-70452380D02*
X119952380Y-70452380D01*
X120952380Y-69833333D02*
X119952380Y-69833333D01*
X119952380Y-69452380D01*
X120000000Y-69357142D01*
X120047619Y-69309523D01*
X120142857Y-69261904D01*
X120285714Y-69261904D01*
X120380952Y-69309523D01*
X120428571Y-69357142D01*
X120476190Y-69452380D01*
X120476190Y-69833333D01*
X120047619Y-68880952D02*
X120000000Y-68833333D01*
X119952380Y-68738095D01*
X119952380Y-68500000D01*
X120000000Y-68404761D01*
X120047619Y-68357142D01*
X120142857Y-68309523D01*
X120238095Y-68309523D01*
X120380952Y-68357142D01*
X120952380Y-68928571D01*
X120952380Y-68309523D01*
X119952380Y-67690476D02*
X119952380Y-67595238D01*
X120000000Y-67500000D01*
X120047619Y-67452380D01*
X120142857Y-67404761D01*
X120333333Y-67357142D01*
X120571428Y-67357142D01*
X120761904Y-67404761D01*
X120857142Y-67452380D01*
X120904761Y-67500000D01*
X120952380Y-67595238D01*
X120952380Y-67690476D01*
X120904761Y-67785714D01*
X120857142Y-67833333D01*
X120761904Y-67880952D01*
X120571428Y-67928571D01*
X120333333Y-67928571D01*
X120142857Y-67880952D01*
X120047619Y-67833333D01*
X120000000Y-67785714D01*
X119952380Y-67690476D01*
%TO.C,TP19*%
X110202380Y-70738095D02*
X110202380Y-70166666D01*
X111202380Y-70452380D02*
X110202380Y-70452380D01*
X111202380Y-69833333D02*
X110202380Y-69833333D01*
X110202380Y-69452380D01*
X110250000Y-69357142D01*
X110297619Y-69309523D01*
X110392857Y-69261904D01*
X110535714Y-69261904D01*
X110630952Y-69309523D01*
X110678571Y-69357142D01*
X110726190Y-69452380D01*
X110726190Y-69833333D01*
X111202380Y-68309523D02*
X111202380Y-68880952D01*
X111202380Y-68595238D02*
X110202380Y-68595238D01*
X110345238Y-68690476D01*
X110440476Y-68785714D01*
X110488095Y-68880952D01*
X111202380Y-67833333D02*
X111202380Y-67642857D01*
X111154761Y-67547619D01*
X111107142Y-67500000D01*
X110964285Y-67404761D01*
X110773809Y-67357142D01*
X110392857Y-67357142D01*
X110297619Y-67404761D01*
X110250000Y-67452380D01*
X110202380Y-67547619D01*
X110202380Y-67738095D01*
X110250000Y-67833333D01*
X110297619Y-67880952D01*
X110392857Y-67928571D01*
X110630952Y-67928571D01*
X110726190Y-67880952D01*
X110773809Y-67833333D01*
X110821428Y-67738095D01*
X110821428Y-67547619D01*
X110773809Y-67452380D01*
X110726190Y-67404761D01*
X110630952Y-67357142D01*
%TO.C,BOOT*%
X113466571Y-42759142D02*
X113514190Y-42616285D01*
X113561809Y-42568666D01*
X113657047Y-42521047D01*
X113799904Y-42521047D01*
X113895142Y-42568666D01*
X113942761Y-42616285D01*
X113990380Y-42711523D01*
X113990380Y-43092476D01*
X112990380Y-43092476D01*
X112990380Y-42759142D01*
X113038000Y-42663904D01*
X113085619Y-42616285D01*
X113180857Y-42568666D01*
X113276095Y-42568666D01*
X113371333Y-42616285D01*
X113418952Y-42663904D01*
X113466571Y-42759142D01*
X113466571Y-43092476D01*
X112990380Y-41902000D02*
X112990380Y-41711523D01*
X113038000Y-41616285D01*
X113133238Y-41521047D01*
X113323714Y-41473428D01*
X113657047Y-41473428D01*
X113847523Y-41521047D01*
X113942761Y-41616285D01*
X113990380Y-41711523D01*
X113990380Y-41902000D01*
X113942761Y-41997238D01*
X113847523Y-42092476D01*
X113657047Y-42140095D01*
X113323714Y-42140095D01*
X113133238Y-42092476D01*
X113038000Y-41997238D01*
X112990380Y-41902000D01*
X112990380Y-40854380D02*
X112990380Y-40663904D01*
X113038000Y-40568666D01*
X113133238Y-40473428D01*
X113323714Y-40425809D01*
X113657047Y-40425809D01*
X113847523Y-40473428D01*
X113942761Y-40568666D01*
X113990380Y-40663904D01*
X113990380Y-40854380D01*
X113942761Y-40949619D01*
X113847523Y-41044857D01*
X113657047Y-41092476D01*
X113323714Y-41092476D01*
X113133238Y-41044857D01*
X113038000Y-40949619D01*
X112990380Y-40854380D01*
X112990380Y-40140095D02*
X112990380Y-39568666D01*
X113990380Y-39854380D02*
X112990380Y-39854380D01*
%TO.C,R34*%
X138052380Y-68617857D02*
X137576190Y-68951190D01*
X138052380Y-69189285D02*
X137052380Y-69189285D01*
X137052380Y-68808333D01*
X137100000Y-68713095D01*
X137147619Y-68665476D01*
X137242857Y-68617857D01*
X137385714Y-68617857D01*
X137480952Y-68665476D01*
X137528571Y-68713095D01*
X137576190Y-68808333D01*
X137576190Y-69189285D01*
X137052380Y-68284523D02*
X137052380Y-67665476D01*
X137433333Y-67998809D01*
X137433333Y-67855952D01*
X137480952Y-67760714D01*
X137528571Y-67713095D01*
X137623809Y-67665476D01*
X137861904Y-67665476D01*
X137957142Y-67713095D01*
X138004761Y-67760714D01*
X138052380Y-67855952D01*
X138052380Y-68141666D01*
X138004761Y-68236904D01*
X137957142Y-68284523D01*
X137385714Y-66808333D02*
X138052380Y-66808333D01*
X137004761Y-67046428D02*
X137719047Y-67284523D01*
X137719047Y-66665476D01*
%TO.C,R14*%
X109957142Y-36252380D02*
X109623809Y-35776190D01*
X109385714Y-36252380D02*
X109385714Y-35252380D01*
X109766666Y-35252380D01*
X109861904Y-35300000D01*
X109909523Y-35347619D01*
X109957142Y-35442857D01*
X109957142Y-35585714D01*
X109909523Y-35680952D01*
X109861904Y-35728571D01*
X109766666Y-35776190D01*
X109385714Y-35776190D01*
X110909523Y-36252380D02*
X110338095Y-36252380D01*
X110623809Y-36252380D02*
X110623809Y-35252380D01*
X110528571Y-35395238D01*
X110433333Y-35490476D01*
X110338095Y-35538095D01*
X111766666Y-35585714D02*
X111766666Y-36252380D01*
X111528571Y-35204761D02*
X111290476Y-35919047D01*
X111909523Y-35919047D01*
%TO.C,R13*%
X113852380Y-34242857D02*
X113376190Y-34576190D01*
X113852380Y-34814285D02*
X112852380Y-34814285D01*
X112852380Y-34433333D01*
X112900000Y-34338095D01*
X112947619Y-34290476D01*
X113042857Y-34242857D01*
X113185714Y-34242857D01*
X113280952Y-34290476D01*
X113328571Y-34338095D01*
X113376190Y-34433333D01*
X113376190Y-34814285D01*
X113852380Y-33290476D02*
X113852380Y-33861904D01*
X113852380Y-33576190D02*
X112852380Y-33576190D01*
X112995238Y-33671428D01*
X113090476Y-33766666D01*
X113138095Y-33861904D01*
X112852380Y-32957142D02*
X112852380Y-32338095D01*
X113233333Y-32671428D01*
X113233333Y-32528571D01*
X113280952Y-32433333D01*
X113328571Y-32385714D01*
X113423809Y-32338095D01*
X113661904Y-32338095D01*
X113757142Y-32385714D01*
X113804761Y-32433333D01*
X113852380Y-32528571D01*
X113852380Y-32814285D01*
X113804761Y-32909523D01*
X113757142Y-32957142D01*
%TO.C,R11*%
X139452380Y-32892857D02*
X138976190Y-33226190D01*
X139452380Y-33464285D02*
X138452380Y-33464285D01*
X138452380Y-33083333D01*
X138500000Y-32988095D01*
X138547619Y-32940476D01*
X138642857Y-32892857D01*
X138785714Y-32892857D01*
X138880952Y-32940476D01*
X138928571Y-32988095D01*
X138976190Y-33083333D01*
X138976190Y-33464285D01*
X139452380Y-31940476D02*
X139452380Y-32511904D01*
X139452380Y-32226190D02*
X138452380Y-32226190D01*
X138595238Y-32321428D01*
X138690476Y-32416666D01*
X138738095Y-32511904D01*
X139452380Y-30988095D02*
X139452380Y-31559523D01*
X139452380Y-31273809D02*
X138452380Y-31273809D01*
X138595238Y-31369047D01*
X138690476Y-31464285D01*
X138738095Y-31559523D01*
%TO.C,R9*%
X128152380Y-47161666D02*
X127676190Y-47495000D01*
X128152380Y-47733095D02*
X127152380Y-47733095D01*
X127152380Y-47352142D01*
X127200000Y-47256904D01*
X127247619Y-47209285D01*
X127342857Y-47161666D01*
X127485714Y-47161666D01*
X127580952Y-47209285D01*
X127628571Y-47256904D01*
X127676190Y-47352142D01*
X127676190Y-47733095D01*
X128152380Y-46685476D02*
X128152380Y-46495000D01*
X128104761Y-46399761D01*
X128057142Y-46352142D01*
X127914285Y-46256904D01*
X127723809Y-46209285D01*
X127342857Y-46209285D01*
X127247619Y-46256904D01*
X127200000Y-46304523D01*
X127152380Y-46399761D01*
X127152380Y-46590238D01*
X127200000Y-46685476D01*
X127247619Y-46733095D01*
X127342857Y-46780714D01*
X127580952Y-46780714D01*
X127676190Y-46733095D01*
X127723809Y-46685476D01*
X127771428Y-46590238D01*
X127771428Y-46399761D01*
X127723809Y-46304523D01*
X127676190Y-46256904D01*
X127580952Y-46209285D01*
%TO.C,R8*%
X131752380Y-47211666D02*
X131276190Y-47545000D01*
X131752380Y-47783095D02*
X130752380Y-47783095D01*
X130752380Y-47402142D01*
X130800000Y-47306904D01*
X130847619Y-47259285D01*
X130942857Y-47211666D01*
X131085714Y-47211666D01*
X131180952Y-47259285D01*
X131228571Y-47306904D01*
X131276190Y-47402142D01*
X131276190Y-47783095D01*
X131180952Y-46640238D02*
X131133333Y-46735476D01*
X131085714Y-46783095D01*
X130990476Y-46830714D01*
X130942857Y-46830714D01*
X130847619Y-46783095D01*
X130800000Y-46735476D01*
X130752380Y-46640238D01*
X130752380Y-46449761D01*
X130800000Y-46354523D01*
X130847619Y-46306904D01*
X130942857Y-46259285D01*
X130990476Y-46259285D01*
X131085714Y-46306904D01*
X131133333Y-46354523D01*
X131180952Y-46449761D01*
X131180952Y-46640238D01*
X131228571Y-46735476D01*
X131276190Y-46783095D01*
X131371428Y-46830714D01*
X131561904Y-46830714D01*
X131657142Y-46783095D01*
X131704761Y-46735476D01*
X131752380Y-46640238D01*
X131752380Y-46449761D01*
X131704761Y-46354523D01*
X131657142Y-46306904D01*
X131561904Y-46259285D01*
X131371428Y-46259285D01*
X131276190Y-46306904D01*
X131228571Y-46354523D01*
X131180952Y-46449761D01*
%TO.C,R7*%
X135352380Y-47161666D02*
X134876190Y-47495000D01*
X135352380Y-47733095D02*
X134352380Y-47733095D01*
X134352380Y-47352142D01*
X134400000Y-47256904D01*
X134447619Y-47209285D01*
X134542857Y-47161666D01*
X134685714Y-47161666D01*
X134780952Y-47209285D01*
X134828571Y-47256904D01*
X134876190Y-47352142D01*
X134876190Y-47733095D01*
X134352380Y-46828333D02*
X134352380Y-46161666D01*
X135352380Y-46590238D01*
%TO.C,R1*%
X113033333Y-45752380D02*
X112700000Y-45276190D01*
X112461904Y-45752380D02*
X112461904Y-44752380D01*
X112842857Y-44752380D01*
X112938095Y-44800000D01*
X112985714Y-44847619D01*
X113033333Y-44942857D01*
X113033333Y-45085714D01*
X112985714Y-45180952D01*
X112938095Y-45228571D01*
X112842857Y-45276190D01*
X112461904Y-45276190D01*
X113985714Y-45752380D02*
X113414285Y-45752380D01*
X113700000Y-45752380D02*
X113700000Y-44752380D01*
X113604761Y-44895238D01*
X113509523Y-44990476D01*
X113414285Y-45038095D01*
%TO.C,M1*%
X114760476Y-36774380D02*
X114760476Y-35774380D01*
X115093809Y-36488666D01*
X115427142Y-35774380D01*
X115427142Y-36774380D01*
X116427142Y-36774380D02*
X115855714Y-36774380D01*
X116141428Y-36774380D02*
X116141428Y-35774380D01*
X116046190Y-35917238D01*
X115950952Y-36012476D01*
X115855714Y-36060095D01*
%TO.C,L3*%
X114333333Y-66202380D02*
X113857142Y-66202380D01*
X113857142Y-65202380D01*
X114571428Y-65202380D02*
X115190476Y-65202380D01*
X114857142Y-65583333D01*
X115000000Y-65583333D01*
X115095238Y-65630952D01*
X115142857Y-65678571D01*
X115190476Y-65773809D01*
X115190476Y-66011904D01*
X115142857Y-66107142D01*
X115095238Y-66154761D01*
X115000000Y-66202380D01*
X114714285Y-66202380D01*
X114619047Y-66154761D01*
X114571428Y-66107142D01*
%TO.C,Reset*%
X135326380Y-30956095D02*
X134850190Y-31289428D01*
X135326380Y-31527523D02*
X134326380Y-31527523D01*
X134326380Y-31146571D01*
X134374000Y-31051333D01*
X134421619Y-31003714D01*
X134516857Y-30956095D01*
X134659714Y-30956095D01*
X134754952Y-31003714D01*
X134802571Y-31051333D01*
X134850190Y-31146571D01*
X134850190Y-31527523D01*
X135278761Y-30146571D02*
X135326380Y-30241809D01*
X135326380Y-30432285D01*
X135278761Y-30527523D01*
X135183523Y-30575142D01*
X134802571Y-30575142D01*
X134707333Y-30527523D01*
X134659714Y-30432285D01*
X134659714Y-30241809D01*
X134707333Y-30146571D01*
X134802571Y-30098952D01*
X134897809Y-30098952D01*
X134993047Y-30575142D01*
X135278761Y-29718000D02*
X135326380Y-29622761D01*
X135326380Y-29432285D01*
X135278761Y-29337047D01*
X135183523Y-29289428D01*
X135135904Y-29289428D01*
X135040666Y-29337047D01*
X134993047Y-29432285D01*
X134993047Y-29575142D01*
X134945428Y-29670380D01*
X134850190Y-29718000D01*
X134802571Y-29718000D01*
X134707333Y-29670380D01*
X134659714Y-29575142D01*
X134659714Y-29432285D01*
X134707333Y-29337047D01*
X135278761Y-28479904D02*
X135326380Y-28575142D01*
X135326380Y-28765619D01*
X135278761Y-28860857D01*
X135183523Y-28908476D01*
X134802571Y-28908476D01*
X134707333Y-28860857D01*
X134659714Y-28765619D01*
X134659714Y-28575142D01*
X134707333Y-28479904D01*
X134802571Y-28432285D01*
X134897809Y-28432285D01*
X134993047Y-28908476D01*
X134659714Y-28146571D02*
X134659714Y-27765619D01*
X134326380Y-28003714D02*
X135183523Y-28003714D01*
X135278761Y-27956095D01*
X135326380Y-27860857D01*
X135326380Y-27765619D01*
%TO.C,J3*%
X143452380Y-60063333D02*
X144166666Y-60063333D01*
X144309523Y-60110952D01*
X144404761Y-60206190D01*
X144452380Y-60349047D01*
X144452380Y-60444285D01*
X143452380Y-59682380D02*
X143452380Y-59063333D01*
X143833333Y-59396666D01*
X143833333Y-59253809D01*
X143880952Y-59158571D01*
X143928571Y-59110952D01*
X144023809Y-59063333D01*
X144261904Y-59063333D01*
X144357142Y-59110952D01*
X144404761Y-59158571D01*
X144452380Y-59253809D01*
X144452380Y-59539523D01*
X144404761Y-59634761D01*
X144357142Y-59682380D01*
%TO.C,D5*%
X126352380Y-47530595D02*
X125352380Y-47530595D01*
X125352380Y-47292500D01*
X125400000Y-47149642D01*
X125495238Y-47054404D01*
X125590476Y-47006785D01*
X125780952Y-46959166D01*
X125923809Y-46959166D01*
X126114285Y-47006785D01*
X126209523Y-47054404D01*
X126304761Y-47149642D01*
X126352380Y-47292500D01*
X126352380Y-47530595D01*
X125352380Y-46054404D02*
X125352380Y-46530595D01*
X125828571Y-46578214D01*
X125780952Y-46530595D01*
X125733333Y-46435357D01*
X125733333Y-46197261D01*
X125780952Y-46102023D01*
X125828571Y-46054404D01*
X125923809Y-46006785D01*
X126161904Y-46006785D01*
X126257142Y-46054404D01*
X126304761Y-46102023D01*
X126352380Y-46197261D01*
X126352380Y-46435357D01*
X126304761Y-46530595D01*
X126257142Y-46578214D01*
%TO.C,D4*%
X129952380Y-47730595D02*
X128952380Y-47730595D01*
X128952380Y-47492500D01*
X129000000Y-47349642D01*
X129095238Y-47254404D01*
X129190476Y-47206785D01*
X129380952Y-47159166D01*
X129523809Y-47159166D01*
X129714285Y-47206785D01*
X129809523Y-47254404D01*
X129904761Y-47349642D01*
X129952380Y-47492500D01*
X129952380Y-47730595D01*
X129285714Y-46302023D02*
X129952380Y-46302023D01*
X128904761Y-46540119D02*
X129619047Y-46778214D01*
X129619047Y-46159166D01*
%TO.C,D3*%
X133552380Y-47730595D02*
X132552380Y-47730595D01*
X132552380Y-47492500D01*
X132600000Y-47349642D01*
X132695238Y-47254404D01*
X132790476Y-47206785D01*
X132980952Y-47159166D01*
X133123809Y-47159166D01*
X133314285Y-47206785D01*
X133409523Y-47254404D01*
X133504761Y-47349642D01*
X133552380Y-47492500D01*
X133552380Y-47730595D01*
X132552380Y-46825833D02*
X132552380Y-46206785D01*
X132933333Y-46540119D01*
X132933333Y-46397261D01*
X132980952Y-46302023D01*
X133028571Y-46254404D01*
X133123809Y-46206785D01*
X133361904Y-46206785D01*
X133457142Y-46254404D01*
X133504761Y-46302023D01*
X133552380Y-46397261D01*
X133552380Y-46682976D01*
X133504761Y-46778214D01*
X133457142Y-46825833D01*
%TO.C,C24*%
X141287142Y-68692857D02*
X141334761Y-68740476D01*
X141382380Y-68883333D01*
X141382380Y-68978571D01*
X141334761Y-69121428D01*
X141239523Y-69216666D01*
X141144285Y-69264285D01*
X140953809Y-69311904D01*
X140810952Y-69311904D01*
X140620476Y-69264285D01*
X140525238Y-69216666D01*
X140430000Y-69121428D01*
X140382380Y-68978571D01*
X140382380Y-68883333D01*
X140430000Y-68740476D01*
X140477619Y-68692857D01*
X140477619Y-68311904D02*
X140430000Y-68264285D01*
X140382380Y-68169047D01*
X140382380Y-67930952D01*
X140430000Y-67835714D01*
X140477619Y-67788095D01*
X140572857Y-67740476D01*
X140668095Y-67740476D01*
X140810952Y-67788095D01*
X141382380Y-68359523D01*
X141382380Y-67740476D01*
X140715714Y-66883333D02*
X141382380Y-66883333D01*
X140334761Y-67121428D02*
X141049047Y-67359523D01*
X141049047Y-66740476D01*
%TO.C,C23*%
X134637142Y-68692857D02*
X134684761Y-68740476D01*
X134732380Y-68883333D01*
X134732380Y-68978571D01*
X134684761Y-69121428D01*
X134589523Y-69216666D01*
X134494285Y-69264285D01*
X134303809Y-69311904D01*
X134160952Y-69311904D01*
X133970476Y-69264285D01*
X133875238Y-69216666D01*
X133780000Y-69121428D01*
X133732380Y-68978571D01*
X133732380Y-68883333D01*
X133780000Y-68740476D01*
X133827619Y-68692857D01*
X133827619Y-68311904D02*
X133780000Y-68264285D01*
X133732380Y-68169047D01*
X133732380Y-67930952D01*
X133780000Y-67835714D01*
X133827619Y-67788095D01*
X133922857Y-67740476D01*
X134018095Y-67740476D01*
X134160952Y-67788095D01*
X134732380Y-68359523D01*
X134732380Y-67740476D01*
X133732380Y-67407142D02*
X133732380Y-66788095D01*
X134113333Y-67121428D01*
X134113333Y-66978571D01*
X134160952Y-66883333D01*
X134208571Y-66835714D01*
X134303809Y-66788095D01*
X134541904Y-66788095D01*
X134637142Y-66835714D01*
X134684761Y-66883333D01*
X134732380Y-66978571D01*
X134732380Y-67264285D01*
X134684761Y-67359523D01*
X134637142Y-67407142D01*
%TO.C,C9*%
X141107142Y-32166666D02*
X141154761Y-32214285D01*
X141202380Y-32357142D01*
X141202380Y-32452380D01*
X141154761Y-32595238D01*
X141059523Y-32690476D01*
X140964285Y-32738095D01*
X140773809Y-32785714D01*
X140630952Y-32785714D01*
X140440476Y-32738095D01*
X140345238Y-32690476D01*
X140250000Y-32595238D01*
X140202380Y-32452380D01*
X140202380Y-32357142D01*
X140250000Y-32214285D01*
X140297619Y-32166666D01*
X141202380Y-31690476D02*
X141202380Y-31500000D01*
X141154761Y-31404761D01*
X141107142Y-31357142D01*
X140964285Y-31261904D01*
X140773809Y-31214285D01*
X140392857Y-31214285D01*
X140297619Y-31261904D01*
X140250000Y-31309523D01*
X140202380Y-31404761D01*
X140202380Y-31595238D01*
X140250000Y-31690476D01*
X140297619Y-31738095D01*
X140392857Y-31785714D01*
X140630952Y-31785714D01*
X140726190Y-31738095D01*
X140773809Y-31690476D01*
X140821428Y-31595238D01*
X140821428Y-31404761D01*
X140773809Y-31309523D01*
X140726190Y-31261904D01*
X140630952Y-31214285D01*
%TO.C,C8*%
X136608333Y-36537142D02*
X136560714Y-36584761D01*
X136417857Y-36632380D01*
X136322619Y-36632380D01*
X136179761Y-36584761D01*
X136084523Y-36489523D01*
X136036904Y-36394285D01*
X135989285Y-36203809D01*
X135989285Y-36060952D01*
X136036904Y-35870476D01*
X136084523Y-35775238D01*
X136179761Y-35680000D01*
X136322619Y-35632380D01*
X136417857Y-35632380D01*
X136560714Y-35680000D01*
X136608333Y-35727619D01*
X137179761Y-36060952D02*
X137084523Y-36013333D01*
X137036904Y-35965714D01*
X136989285Y-35870476D01*
X136989285Y-35822857D01*
X137036904Y-35727619D01*
X137084523Y-35680000D01*
X137179761Y-35632380D01*
X137370238Y-35632380D01*
X137465476Y-35680000D01*
X137513095Y-35727619D01*
X137560714Y-35822857D01*
X137560714Y-35870476D01*
X137513095Y-35965714D01*
X137465476Y-36013333D01*
X137370238Y-36060952D01*
X137179761Y-36060952D01*
X137084523Y-36108571D01*
X137036904Y-36156190D01*
X136989285Y-36251428D01*
X136989285Y-36441904D01*
X137036904Y-36537142D01*
X137084523Y-36584761D01*
X137179761Y-36632380D01*
X137370238Y-36632380D01*
X137465476Y-36584761D01*
X137513095Y-36537142D01*
X137560714Y-36441904D01*
X137560714Y-36251428D01*
X137513095Y-36156190D01*
X137465476Y-36108571D01*
X137370238Y-36060952D01*
%TO.C,C2*%
X124801333Y-43283142D02*
X124753714Y-43330761D01*
X124610857Y-43378380D01*
X124515619Y-43378380D01*
X124372761Y-43330761D01*
X124277523Y-43235523D01*
X124229904Y-43140285D01*
X124182285Y-42949809D01*
X124182285Y-42806952D01*
X124229904Y-42616476D01*
X124277523Y-42521238D01*
X124372761Y-42426000D01*
X124515619Y-42378380D01*
X124610857Y-42378380D01*
X124753714Y-42426000D01*
X124801333Y-42473619D01*
X125182285Y-42473619D02*
X125229904Y-42426000D01*
X125325142Y-42378380D01*
X125563238Y-42378380D01*
X125658476Y-42426000D01*
X125706095Y-42473619D01*
X125753714Y-42568857D01*
X125753714Y-42664095D01*
X125706095Y-42806952D01*
X125134666Y-43378380D01*
X125753714Y-43378380D01*
%TO.C,C1*%
X110077142Y-52716666D02*
X110124761Y-52764285D01*
X110172380Y-52907142D01*
X110172380Y-53002380D01*
X110124761Y-53145238D01*
X110029523Y-53240476D01*
X109934285Y-53288095D01*
X109743809Y-53335714D01*
X109600952Y-53335714D01*
X109410476Y-53288095D01*
X109315238Y-53240476D01*
X109220000Y-53145238D01*
X109172380Y-53002380D01*
X109172380Y-52907142D01*
X109220000Y-52764285D01*
X109267619Y-52716666D01*
X110172380Y-51764285D02*
X110172380Y-52335714D01*
X110172380Y-52050000D02*
X109172380Y-52050000D01*
X109315238Y-52145238D01*
X109410476Y-52240476D01*
X109458095Y-52335714D01*
%TD*%
M02*
