%TF.GenerationSoftware,KiCad,Pcbnew,(5.1.10)-1*%
%TF.CreationDate,2022-01-17T18:11:01+07:00*%
%TF.ProjectId,CC2640R2F Module,43433236-3430-4523-9246-204d6f64756c,rev?*%
%TF.SameCoordinates,Original*%
%TF.FileFunction,Copper,L2,Bot*%
%TF.FilePolarity,Positive*%
%FSLAX46Y46*%
G04 Gerber Fmt 4.6, Leading zero omitted, Abs format (unit mm)*
G04 Created by KiCad (PCBNEW (5.1.10)-1) date 2022-01-17 18:11:01*
%MOMM*%
%LPD*%
G01*
G04 APERTURE LIST*
%TA.AperFunction,ComponentPad*%
%ADD10O,1.200000X1.900000*%
%TD*%
%TA.AperFunction,ComponentPad*%
%ADD11C,1.450000*%
%TD*%
%TA.AperFunction,ComponentPad*%
%ADD12O,1.700000X1.700000*%
%TD*%
%TA.AperFunction,ComponentPad*%
%ADD13R,1.700000X1.700000*%
%TD*%
%TA.AperFunction,ComponentPad*%
%ADD14C,2.000000*%
%TD*%
%TA.AperFunction,ComponentPad*%
%ADD15C,1.400000*%
%TD*%
%TA.AperFunction,ComponentPad*%
%ADD16C,1.700000*%
%TD*%
%TA.AperFunction,ViaPad*%
%ADD17C,0.800000*%
%TD*%
%TA.AperFunction,ViaPad*%
%ADD18C,0.600000*%
%TD*%
%TA.AperFunction,Conductor*%
%ADD19C,0.500000*%
%TD*%
%TA.AperFunction,Conductor*%
%ADD20C,0.300000*%
%TD*%
%TA.AperFunction,Conductor*%
%ADD21C,0.250000*%
%TD*%
%TA.AperFunction,Conductor*%
%ADD22C,0.254000*%
%TD*%
%TA.AperFunction,Conductor*%
%ADD23C,0.100000*%
%TD*%
%TA.AperFunction,Conductor*%
%ADD24C,0.253000*%
%TD*%
G04 APERTURE END LIST*
D10*
%TO.P,JTAG CONNECTOR,6*%
%TO.N,Shield*%
X129300000Y-69250000D03*
X122300000Y-69250000D03*
D11*
X128300000Y-66550000D03*
X123300000Y-66550000D03*
%TD*%
D12*
%TO.P,SDA SCL,2*%
%TO.N,I2C_SCL*%
X110800000Y-26260000D03*
D13*
%TO.P,SDA SCL,1*%
%TO.N,I2C_SDA*%
X110800000Y-28800000D03*
%TD*%
D12*
%TO.P,3V3 TX RX GND,4*%
%TO.N,GND*%
X110800000Y-14780000D03*
%TO.P,3V3 TX RX GND,3*%
%TO.N,UART_RX*%
X110800000Y-17320000D03*
%TO.P,3V3 TX RX GND,2*%
%TO.N,UART_TX*%
X110800000Y-19860000D03*
D13*
%TO.P,3V3 TX RX GND,1*%
%TO.N,+3V3*%
X110800000Y-22400000D03*
%TD*%
D12*
%TO.P,J2,20*%
%TO.N,GND*%
X145600000Y-62880000D03*
%TO.P,J2,19*%
%TO.N,+3V3*%
X145600000Y-60340000D03*
%TO.P,J2,18*%
%TO.N,JTAG_TDO*%
X145600000Y-57800000D03*
%TO.P,J2,17*%
%TO.N,JTAG_TDI*%
X145600000Y-55260000D03*
%TO.P,J2,16*%
%TO.N,+5V*%
X145600000Y-52720000D03*
%TO.P,J2,15*%
%TO.N,GND*%
X145600000Y-50180000D03*
%TO.P,J2,14*%
%TO.N,+3V3*%
X145600000Y-47640000D03*
%TO.P,J2,13*%
%TO.N,DIO_18*%
X145600000Y-45100000D03*
%TO.P,J2,12*%
%TO.N,DIO_19*%
X145600000Y-42560000D03*
%TO.P,J2,11*%
%TO.N,DIO_20*%
X145600000Y-40020000D03*
%TO.P,J2,10*%
%TO.N,DIO_21*%
X145600000Y-37480000D03*
%TO.P,J2,9*%
%TO.N,DIO_22*%
X145600000Y-34940000D03*
%TO.P,J2,8*%
%TO.N,DIO_23*%
X145600000Y-32400000D03*
%TO.P,J2,7*%
%TO.N,DIO_24*%
X145600000Y-29860000D03*
%TO.P,J2,6*%
%TO.N,DIO_25*%
X145600000Y-27320000D03*
%TO.P,J2,5*%
%TO.N,DIO_26*%
X145600000Y-24780000D03*
%TO.P,J2,4*%
%TO.N,DIO_27*%
X145600000Y-22240000D03*
%TO.P,J2,3*%
%TO.N,DIO_28*%
X145600000Y-19700000D03*
%TO.P,J2,2*%
%TO.N,DIO_29*%
X145600000Y-17160000D03*
D13*
%TO.P,J2,1*%
%TO.N,DIO_30*%
X145600000Y-14620000D03*
%TD*%
D12*
%TO.P,J1,20*%
%TO.N,DIO_0*%
X107000000Y-14700000D03*
%TO.P,J1,19*%
%TO.N,DIO_1*%
X107000000Y-17240000D03*
%TO.P,J1,18*%
%TO.N,UART_RX*%
X107000000Y-19780000D03*
%TO.P,J1,17*%
%TO.N,UART_TX*%
X107000000Y-22320000D03*
%TO.P,J1,16*%
%TO.N,I2C_SCL*%
X107000000Y-24860000D03*
%TO.P,J1,15*%
%TO.N,I2C_SDA*%
X107000000Y-27400000D03*
%TO.P,J1,14*%
%TO.N,DIO_6*%
X107000000Y-29940000D03*
%TO.P,J1,13*%
%TO.N,DIO_7*%
X107000000Y-32480000D03*
%TO.P,J1,12*%
%TO.N,DIO_8*%
X107000000Y-35020000D03*
%TO.P,J1,11*%
%TO.N,DIO_9*%
X107000000Y-37560000D03*
%TO.P,J1,10*%
%TO.N,DIO_10*%
X107000000Y-40100000D03*
%TO.P,J1,9*%
%TO.N,BOOT_ENABLE*%
X107000000Y-42640000D03*
%TO.P,J1,8*%
%TO.N,WakeUP_Sleep*%
X107000000Y-45180000D03*
%TO.P,J1,7*%
%TO.N,LED_3*%
X107000000Y-47720000D03*
%TO.P,J1,6*%
%TO.N,LED_2*%
X107000000Y-50260000D03*
%TO.P,J1,5*%
%TO.N,LED_1*%
X107000000Y-52800000D03*
%TO.P,J1,4*%
%TO.N,JTAG_TMS*%
X107000000Y-55340000D03*
%TO.P,J1,3*%
%TO.N,JTAG_TCK*%
X107000000Y-57880000D03*
%TO.P,J1,2*%
%TO.N,+5V*%
X107000000Y-60420000D03*
D13*
%TO.P,J1,1*%
%TO.N,GND*%
X107000000Y-62960000D03*
%TD*%
D14*
%TO.P,TP20,1*%
%TO.N,D-*%
X117750000Y-69000000D03*
%TD*%
%TO.P,TP19,1*%
%TO.N,D+*%
X113500000Y-69000000D03*
%TD*%
D12*
%TO.P,BOOT,2*%
%TO.N,BOOT_ENABLE*%
X110800000Y-42540000D03*
D13*
%TO.P,BOOT,1*%
%TO.N,+3V3*%
X110800000Y-40000000D03*
%TD*%
D15*
%TO.P,Reset,2*%
%TO.N,GND*%
X136750000Y-31040000D03*
%TO.P,Reset,1*%
%TO.N,nReset*%
X136750000Y-28500000D03*
%TD*%
D16*
%TO.P,J3,20*%
%TO.N,GND*%
X115040000Y-61000000D03*
%TO.P,J3,18*%
X117580000Y-61000000D03*
%TO.P,J3,16*%
X120120000Y-61000000D03*
%TO.P,J3,14*%
X122660000Y-61000000D03*
%TO.P,J3,12*%
X125200000Y-61000000D03*
%TO.P,J3,10*%
X127740000Y-61000000D03*
%TO.P,J3,8*%
X130280000Y-61000000D03*
%TO.P,J3,6*%
X132820000Y-61000000D03*
%TO.P,J3,4*%
X135360000Y-61000000D03*
%TO.P,J3,2*%
%TO.N,+3V3*%
X137900000Y-61000000D03*
%TO.P,J3,19*%
%TO.N,N/C*%
X115040000Y-58460000D03*
%TO.P,J3,17*%
X117580000Y-58460000D03*
%TO.P,J3,15*%
%TO.N,nReset*%
X120120000Y-58460000D03*
%TO.P,J3,13*%
%TO.N,JTAG_TDO*%
X122660000Y-58460000D03*
%TO.P,J3,11*%
%TO.N,N/C*%
X125200000Y-58460000D03*
%TO.P,J3,9*%
%TO.N,JTAG_TCK*%
X127740000Y-58460000D03*
%TO.P,J3,7*%
%TO.N,JTAG_TMS*%
X130280000Y-58460000D03*
%TO.P,J3,5*%
%TO.N,JTAG_TDI*%
X132820000Y-58460000D03*
%TO.P,J3,3*%
%TO.N,N/C*%
X135360000Y-58460000D03*
%TO.P,J3,1*%
%TO.N,+3V3*%
%TA.AperFunction,ComponentPad*%
G36*
G01*
X137300000Y-57610000D02*
X138500000Y-57610000D01*
G75*
G02*
X138750000Y-57860000I0J-250000D01*
G01*
X138750000Y-59060000D01*
G75*
G02*
X138500000Y-59310000I-250000J0D01*
G01*
X137300000Y-59310000D01*
G75*
G02*
X137050000Y-59060000I0J250000D01*
G01*
X137050000Y-57860000D01*
G75*
G02*
X137300000Y-57610000I250000J0D01*
G01*
G37*
%TD.AperFunction*%
%TD*%
D17*
%TO.N,+5V*%
X126000000Y-64000000D03*
X136500000Y-64000000D03*
D18*
%TO.N,GND*%
X109728000Y-47752000D03*
X110744000Y-46736000D03*
X111506000Y-47752000D03*
X112522000Y-46736000D03*
X113538000Y-47752000D03*
X110744000Y-49022000D03*
X112522000Y-49022000D03*
X109728000Y-50038000D03*
X113538000Y-50038000D03*
X111506000Y-50038000D03*
X114554000Y-42926000D03*
X114554000Y-40640000D03*
X116078000Y-41910000D03*
X117348000Y-40640000D03*
X117348000Y-42926000D03*
X118618000Y-41910000D03*
X119888000Y-40640000D03*
X119888000Y-42926000D03*
X121158000Y-41910000D03*
X122428000Y-40640000D03*
X122428000Y-42926000D03*
X118618000Y-43942000D03*
X119888000Y-45212000D03*
X117348000Y-45212000D03*
X117602000Y-50292000D03*
X117602000Y-48768000D03*
X118872000Y-49530000D03*
X120142000Y-48768000D03*
X120142000Y-50292000D03*
X109728000Y-53848000D03*
X109728000Y-54864000D03*
X111506000Y-54864000D03*
X113284000Y-54864000D03*
X113284000Y-53848000D03*
X113284000Y-60452000D03*
X112268000Y-61722000D03*
X113284000Y-62992000D03*
X115146666Y-62992000D03*
X117009332Y-62992000D03*
X118871998Y-62992000D03*
X120734664Y-62992000D03*
X122597330Y-62992000D03*
X124459996Y-62992000D03*
X126322662Y-62992000D03*
X128185328Y-62992000D03*
X130047994Y-62992000D03*
X131910660Y-62992000D03*
X133773326Y-62992000D03*
X135635992Y-62992000D03*
X137498658Y-62992000D03*
X139361324Y-62992000D03*
X141224000Y-62992000D03*
X143764000Y-61976000D03*
X143764000Y-63754000D03*
X131826000Y-65532000D03*
X133124222Y-65532000D03*
X134422444Y-65532000D03*
X135720666Y-65532000D03*
X137018888Y-65532000D03*
X138317110Y-65532000D03*
X139615332Y-65532000D03*
X140913554Y-65532000D03*
X142211776Y-65532000D03*
X143510000Y-65532000D03*
X138684000Y-31496000D03*
X139700000Y-31496000D03*
X140716000Y-31496000D03*
X137922000Y-36830000D03*
X139192000Y-36830000D03*
X140462000Y-36830000D03*
X138684000Y-38100000D03*
X140208000Y-38100000D03*
X137922000Y-39116000D03*
X139446000Y-39116000D03*
X140716000Y-39116000D03*
X138684000Y-40386000D03*
X140208000Y-40386000D03*
X138430000Y-43180000D03*
X138430000Y-44958000D03*
X138430000Y-46736000D03*
X139700000Y-44196000D03*
X139700000Y-45974000D03*
X140970000Y-43180000D03*
X140970000Y-44958000D03*
X140970000Y-46736000D03*
X141986000Y-43942000D03*
X141986000Y-45974000D03*
X143002000Y-43180000D03*
X143002000Y-44958000D03*
X143002000Y-46736000D03*
X132334000Y-42926000D03*
X133350000Y-44450000D03*
X132334000Y-45974000D03*
X130556000Y-42926000D03*
X128524000Y-42926000D03*
X129540000Y-44196000D03*
X128524000Y-45720000D03*
X130556000Y-45720000D03*
X126746000Y-42926000D03*
X126746000Y-44196000D03*
X128524000Y-40386000D03*
X130302000Y-40386000D03*
X132080000Y-39370000D03*
X133096000Y-40386000D03*
X134112000Y-39370000D03*
X132842000Y-36576000D03*
X131572000Y-37338000D03*
X134112000Y-37338000D03*
X135382000Y-36576000D03*
X127254000Y-37338000D03*
X128524000Y-37338000D03*
X129794000Y-37338000D03*
X117348000Y-37338000D03*
X115824000Y-37338000D03*
X114300000Y-37338000D03*
X112776000Y-37338000D03*
X112776000Y-36068000D03*
X114300000Y-36068000D03*
X121920000Y-33020000D03*
X124460000Y-30480000D03*
X127000000Y-27940000D03*
X129540000Y-25400000D03*
X127000000Y-25400000D03*
X129540000Y-27940000D03*
X127000000Y-30480000D03*
X129540000Y-30480000D03*
X124460000Y-33020000D03*
X127000000Y-22860000D03*
X129540000Y-22860000D03*
X129540000Y-20320000D03*
X127000000Y-20320000D03*
X124460000Y-20320000D03*
X121920000Y-20320000D03*
X121920000Y-22860000D03*
X121920000Y-25400000D03*
X119380000Y-25400000D03*
X119380000Y-27940000D03*
X121920000Y-27940000D03*
X119380000Y-30480000D03*
X121920000Y-17780000D03*
X124460000Y-17780000D03*
X127000000Y-17780000D03*
X129540000Y-15240000D03*
X127000000Y-15240000D03*
X124460000Y-15240000D03*
X121920000Y-15240000D03*
X119380000Y-15240000D03*
X119380000Y-12700000D03*
X121920000Y-12700000D03*
X124460000Y-12700000D03*
X127000000Y-12700000D03*
X129540000Y-12700000D03*
X134620000Y-12700000D03*
X134620000Y-15240000D03*
X113538000Y-12700000D03*
X113538000Y-15494000D03*
X142748000Y-31750000D03*
X142748000Y-30226000D03*
X142748000Y-28702000D03*
X142748000Y-27178000D03*
X141224000Y-26924000D03*
X139700000Y-26924000D03*
X138176000Y-26924000D03*
X138684000Y-25146000D03*
X139954000Y-25146000D03*
X137922000Y-20066000D03*
X138938000Y-18796000D03*
X139954000Y-20066000D03*
X140716000Y-18796000D03*
X137414000Y-12700000D03*
X140208000Y-12700000D03*
X143002000Y-12700000D03*
X143002000Y-14986000D03*
X143002000Y-17526000D03*
X127508000Y-51816000D03*
X127508000Y-54356000D03*
X129032000Y-53086000D03*
X130302000Y-51816000D03*
X130302000Y-54356000D03*
X131826000Y-53086000D03*
X133096000Y-51816000D03*
X133096000Y-54356000D03*
X113284000Y-58420000D03*
X111760000Y-58420000D03*
X110236000Y-58420000D03*
X139700000Y-57912000D03*
X140716000Y-58928000D03*
X143002000Y-57912000D03*
X108458000Y-28956000D03*
X108458000Y-26416000D03*
X112776000Y-26924000D03*
X113030000Y-25400000D03*
X113030000Y-23876000D03*
X113030000Y-22098000D03*
X110744000Y-24384000D03*
X109220000Y-24384000D03*
X109220000Y-22606000D03*
X109220000Y-20320000D03*
X108204000Y-21082000D03*
X109220000Y-17780000D03*
X108458000Y-16764000D03*
X108966000Y-15240000D03*
X108966000Y-12954000D03*
X104902000Y-12700000D03*
X104902000Y-14427200D03*
X104902000Y-16154400D03*
X104902000Y-17881600D03*
X104902000Y-19608800D03*
X104902000Y-21336000D03*
X105156000Y-66802000D03*
X107442000Y-66802000D03*
X109728000Y-66802000D03*
X112014000Y-66802000D03*
X114554000Y-66802000D03*
X119634000Y-66802000D03*
X109220000Y-62230000D03*
X109220000Y-63754000D03*
X110490000Y-62992000D03*
X110490000Y-64516000D03*
X110490000Y-61468000D03*
X109220000Y-60706000D03*
X122174000Y-37084000D03*
X124460000Y-22860000D03*
X124460000Y-25400000D03*
X124460000Y-27940000D03*
X121920000Y-30480000D03*
X119380000Y-33020000D03*
%TO.N,+3V3*%
X104800000Y-24300000D03*
D17*
X126950000Y-46500000D03*
X136500000Y-47750000D03*
X142000000Y-47750000D03*
X142000000Y-55250000D03*
X142000000Y-50250000D03*
X136750000Y-37000000D03*
X136750000Y-43000000D03*
X136750000Y-45500000D03*
X136750000Y-40250000D03*
D18*
%TO.N,nReset*%
X124250000Y-41900001D03*
X127050000Y-41900000D03*
X141800000Y-28500000D03*
X141799998Y-39945998D03*
%TO.N,JTAG_TDO*%
X124900000Y-39949990D03*
%TO.N,JTAG_TCK*%
X125550000Y-40600000D03*
%TO.N,JTAG_TMS*%
X126085173Y-41194636D03*
%TO.N,JTAG_TDI*%
X126238000Y-39949988D03*
X134250000Y-41250000D03*
X134250000Y-46990000D03*
%TO.N,D+*%
X125799992Y-67700008D03*
%TO.N,D-*%
X118020000Y-64730000D03*
X118020000Y-67049943D03*
%TO.N,DIO_30*%
X135382000Y-19558000D03*
%TO.N,DIO_29*%
X135382000Y-20828000D03*
%TO.N,DIO_28*%
X135382000Y-22098000D03*
%TO.N,DIO_27*%
X135382000Y-23368000D03*
%TO.N,DIO_26*%
X135382000Y-24638000D03*
%TO.N,DIO_25*%
X135382000Y-25908000D03*
%TO.N,DIO_24*%
X135382000Y-27178000D03*
%TO.N,DIO_23*%
X134874000Y-29718000D03*
%TO.N,DIO_22*%
X131064000Y-30988000D03*
%TO.N,UART_RX*%
X119600000Y-17300000D03*
X119600000Y-22000000D03*
X117099999Y-22000000D03*
%TO.N,UART_TX*%
X118900000Y-19900000D03*
X118900000Y-23400000D03*
X117099999Y-23400000D03*
%TO.N,I2C_SCL*%
X117099999Y-24599999D03*
X111800000Y-31800000D03*
%TO.N,I2C_SDA*%
X110000000Y-31800000D03*
%TO.N,DIO_9*%
X117200000Y-31000000D03*
%TO.N,BOOT_ENABLE*%
X117200000Y-33500000D03*
%TO.N,WakeUP_Sleep*%
X115800000Y-35300000D03*
X139191998Y-17018000D03*
X129539991Y-17017991D03*
%TO.N,LED_3*%
X127700000Y-39350000D03*
X118500005Y-38100005D03*
%TO.N,LED_2*%
X119700000Y-38000000D03*
X131300000Y-38700000D03*
X117900000Y-38800000D03*
%TO.N,LED_1*%
X134900000Y-38000000D03*
X121000000Y-38000000D03*
X118509150Y-39450000D03*
%TO.N,DIO_18*%
X127508000Y-33274000D03*
%TO.N,DIO_19*%
X128524000Y-33274000D03*
%TO.N,DIO_20*%
X130048000Y-33274000D03*
%TO.N,DIO_21*%
X134874000Y-33670000D03*
%TD*%
D19*
%TO.N,+5V*%
X126000000Y-64000000D02*
X136500000Y-64000000D01*
D20*
%TO.N,+3V3*%
X105500003Y-23599997D02*
X104800000Y-24300000D01*
X110800000Y-22400000D02*
X109600003Y-23599997D01*
X109600003Y-23599997D02*
X105500003Y-23599997D01*
D19*
X128200000Y-47750000D02*
X136500000Y-47750000D01*
X126950000Y-46500000D02*
X128200000Y-47750000D01*
X142110000Y-47640000D02*
X142000000Y-47750000D01*
X145600000Y-47640000D02*
X142110000Y-47640000D01*
X142000000Y-55250000D02*
X142000000Y-50250000D01*
X136750000Y-43000000D02*
X136750000Y-45500000D01*
X136750000Y-37000000D02*
X136750000Y-40250000D01*
D20*
%TO.N,nReset*%
X139845996Y-41900000D02*
X141799998Y-39945998D01*
X137424000Y-41900000D02*
X139845996Y-41900000D01*
X127050000Y-41900000D02*
X137424000Y-41900000D01*
X124399990Y-42049991D02*
X124250000Y-41900001D01*
X124399990Y-56194010D02*
X124399990Y-42049991D01*
X123387560Y-57206440D02*
X124399990Y-56194010D01*
X121373560Y-57206440D02*
X123387560Y-57206440D01*
X120120000Y-58460000D02*
X121373560Y-57206440D01*
%TO.N,JTAG_TDO*%
X143600001Y-59799999D02*
X145600000Y-57800000D01*
X123999999Y-59799999D02*
X143600001Y-59799999D01*
X122660000Y-58460000D02*
X123999999Y-59799999D01*
X124900000Y-56710000D02*
X124900000Y-39949990D01*
X123150000Y-58460000D02*
X124900000Y-56710000D01*
X122660000Y-58460000D02*
X123150000Y-58460000D01*
%TO.N,JTAG_TCK*%
X125400000Y-40750000D02*
X125550000Y-40600000D01*
X125400000Y-56566000D02*
X125400000Y-40750000D01*
X127294000Y-58460000D02*
X125400000Y-56566000D01*
X127740000Y-58460000D02*
X127294000Y-58460000D01*
%TO.N,JTAG_TMS*%
X129079999Y-57259999D02*
X130280000Y-58460000D01*
X127163999Y-57259999D02*
X129079999Y-57259999D01*
X127136999Y-57286999D02*
X127163999Y-57259999D01*
X126085173Y-56235173D02*
X127136999Y-57286999D01*
X126085173Y-41194636D02*
X126085173Y-56235173D01*
%TO.N,JTAG_TDI*%
X132820000Y-58460000D02*
X134020001Y-57259999D01*
X127538012Y-41250000D02*
X134250000Y-41250000D01*
X126238000Y-39949988D02*
X127538012Y-41250000D01*
X136850002Y-46990000D02*
X137668000Y-47807998D01*
X134250000Y-46990000D02*
X136850002Y-46990000D01*
X143964000Y-56896000D02*
X145600000Y-55260000D01*
X134384000Y-56896000D02*
X143964000Y-56896000D01*
X134020001Y-57259999D02*
X134384000Y-56896000D01*
X134384000Y-53068000D02*
X137668000Y-49784000D01*
X134384000Y-56896000D02*
X134384000Y-53068000D01*
X137668000Y-47807998D02*
X137668000Y-49784000D01*
D21*
%TO.N,D+*%
X125774983Y-67674999D02*
X125799992Y-67700008D01*
X113500000Y-69000000D02*
X114825001Y-67674999D01*
X114825001Y-67674999D02*
X125774983Y-67674999D01*
D20*
%TO.N,D-*%
X118020000Y-64730000D02*
X118020000Y-67049943D01*
%TO.N,DIO_30*%
X144018000Y-16202000D02*
X145600000Y-14620000D01*
X144018000Y-18034000D02*
X144018000Y-16202000D01*
X140970000Y-21082000D02*
X144018000Y-18034000D01*
X136906000Y-21082000D02*
X140970000Y-21082000D01*
X135382000Y-19558000D02*
X136906000Y-21082000D01*
%TO.N,DIO_29*%
X145600000Y-17722000D02*
X145600000Y-17160000D01*
X141732000Y-21590000D02*
X145600000Y-17722000D01*
X136144000Y-21590000D02*
X141732000Y-21590000D01*
X135382000Y-20828000D02*
X136144000Y-21590000D01*
%TO.N,DIO_28*%
X145600000Y-19362000D02*
X145600000Y-19700000D01*
X142864000Y-22098000D02*
X145600000Y-19362000D01*
X135382000Y-22098000D02*
X142864000Y-22098000D01*
%TO.N,DIO_27*%
X145234000Y-22606000D02*
X145600000Y-22240000D01*
X136144000Y-22606000D02*
X145234000Y-22606000D01*
X135382000Y-23368000D02*
X136144000Y-22606000D01*
%TO.N,DIO_26*%
X143934000Y-23114000D02*
X145600000Y-24780000D01*
X136906000Y-23114000D02*
X143934000Y-23114000D01*
X135382000Y-24638000D02*
X136906000Y-23114000D01*
%TO.N,DIO_25*%
X145600000Y-26728000D02*
X145600000Y-27320000D01*
X142494000Y-23622000D02*
X145600000Y-26728000D01*
X137668000Y-23622000D02*
X142494000Y-23622000D01*
X135382000Y-25908000D02*
X137668000Y-23622000D01*
%TO.N,DIO_24*%
X138430000Y-24130000D02*
X141986000Y-24130000D01*
X135382000Y-27178000D02*
X138430000Y-24130000D01*
X144272000Y-28532000D02*
X144272000Y-26416000D01*
X145600000Y-29860000D02*
X144272000Y-28532000D01*
X141986000Y-24130000D02*
X144272000Y-26416000D01*
%TO.N,DIO_23*%
X143201120Y-33528000D02*
X144472000Y-33528000D01*
X142043119Y-32369999D02*
X143201120Y-33528000D01*
X135747999Y-32369999D02*
X142043119Y-32369999D01*
X144472000Y-33528000D02*
X145600000Y-32400000D01*
X134874000Y-31496000D02*
X135747999Y-32369999D01*
X134874000Y-29718000D02*
X134874000Y-31496000D01*
%TO.N,DIO_22*%
X143906000Y-34940000D02*
X145600000Y-34940000D01*
X141986000Y-33020000D02*
X143906000Y-34940000D01*
X140462000Y-33020000D02*
X141986000Y-33020000D01*
X131064000Y-30988000D02*
X133096000Y-33020000D01*
X133096000Y-33020000D02*
X137160000Y-33020000D01*
X137160000Y-33020000D02*
X140462000Y-33020000D01*
%TO.N,UART_RX*%
X108340000Y-19780000D02*
X110800000Y-17320000D01*
X107000000Y-19780000D02*
X108340000Y-19780000D01*
X119580000Y-17320000D02*
X119600000Y-17300000D01*
X110800000Y-17320000D02*
X119580000Y-17320000D01*
X119600000Y-22000000D02*
X117099999Y-22000000D01*
%TO.N,UART_TX*%
X108340000Y-22320000D02*
X110800000Y-19860000D01*
X107000000Y-22320000D02*
X108340000Y-22320000D01*
X118860000Y-19860000D02*
X118900000Y-19900000D01*
X110800000Y-19860000D02*
X118860000Y-19860000D01*
X118900000Y-23400000D02*
X117099999Y-23400000D01*
%TO.N,I2C_SCL*%
X109560000Y-26260000D02*
X110800000Y-26260000D01*
X108160000Y-24860000D02*
X109560000Y-26260000D01*
X107000000Y-24860000D02*
X108160000Y-24860000D01*
X115439998Y-26260000D02*
X117099999Y-24599999D01*
X112099999Y-26300001D02*
X112140000Y-26260000D01*
X112099999Y-31500001D02*
X112099999Y-26300001D01*
X111800000Y-31800000D02*
X112099999Y-31500001D01*
X112140000Y-26260000D02*
X115439998Y-26260000D01*
X110800000Y-26260000D02*
X112140000Y-26260000D01*
%TO.N,I2C_SDA*%
X109500000Y-28800000D02*
X110800000Y-28800000D01*
X108100000Y-27400000D02*
X109500000Y-28800000D01*
X107000000Y-27400000D02*
X108100000Y-27400000D01*
X110000000Y-29600000D02*
X110800000Y-28800000D01*
X110000000Y-31800000D02*
X110000000Y-29600000D01*
%TO.N,DIO_9*%
X113700000Y-31000000D02*
X117200000Y-31000000D01*
X106519999Y-33680001D02*
X111019999Y-33680001D01*
X105799999Y-34400001D02*
X106519999Y-33680001D01*
X111019999Y-33680001D02*
X113700000Y-31000000D01*
X105799999Y-36359999D02*
X105799999Y-34400001D01*
X107000000Y-37560000D02*
X105799999Y-36359999D01*
%TO.N,BOOT_ENABLE*%
X112000000Y-33500000D02*
X117200000Y-33500000D01*
X108500000Y-37000000D02*
X112000000Y-33500000D01*
X106284000Y-38900000D02*
X107800000Y-38900000D01*
X108500000Y-38200000D02*
X108500000Y-37000000D01*
X105799999Y-39384001D02*
X106284000Y-38900000D01*
X105799999Y-41439999D02*
X105799999Y-39384001D01*
X107800000Y-38900000D02*
X108500000Y-38200000D01*
X107000000Y-42640000D02*
X105799999Y-41439999D01*
%TO.N,WakeUP_Sleep*%
X109000008Y-43179992D02*
X109000008Y-38099992D01*
X107000000Y-45180000D02*
X109000008Y-43179992D01*
X111800000Y-35300000D02*
X115800000Y-35300000D01*
X109000008Y-38099992D02*
X111800000Y-35300000D01*
X129540000Y-17018000D02*
X129539991Y-17017991D01*
X139191998Y-17018000D02*
X129540000Y-17018000D01*
%TO.N,LED_3*%
X127700000Y-39350000D02*
X127649988Y-39299988D01*
X127649988Y-39299988D02*
X119699988Y-39299988D01*
X119699988Y-39299988D02*
X118800004Y-38400004D01*
X118800004Y-38400004D02*
X118500005Y-38100005D01*
X107000000Y-47720000D02*
X109500018Y-45219982D01*
X110369993Y-38100005D02*
X118500005Y-38100005D01*
X109500018Y-38969980D02*
X110369993Y-38100005D01*
X109500018Y-45219982D02*
X109500018Y-38969980D01*
%TO.N,LED_2*%
X120400000Y-38700000D02*
X131300000Y-38700000D01*
X119700000Y-38000000D02*
X120400000Y-38700000D01*
X113400000Y-38800000D02*
X117900000Y-38800000D01*
X112200000Y-40000000D02*
X113400000Y-38800000D01*
X108200001Y-48296001D02*
X108200001Y-47227119D01*
X110000026Y-45392852D02*
X112199999Y-43192879D01*
X108200001Y-47227119D02*
X110000026Y-45427094D01*
X107000000Y-49496002D02*
X108200001Y-48296001D01*
X107000000Y-50260000D02*
X107000000Y-49496002D01*
X112199999Y-43192879D02*
X112200000Y-40000000D01*
X110000026Y-45427094D02*
X110000026Y-45392852D01*
%TO.N,LED_1*%
X134900000Y-38000000D02*
X121000000Y-38000000D01*
X113850000Y-39450000D02*
X118509150Y-39450000D01*
X110500037Y-45599963D02*
X112700010Y-43399990D01*
X112700010Y-40599990D02*
X113850000Y-39450000D01*
X110500037Y-45634205D02*
X110500037Y-45599963D01*
X112700010Y-43399990D02*
X112700010Y-40599990D01*
X108700012Y-47434230D02*
X110500037Y-45634205D01*
X108700012Y-50399988D02*
X108700012Y-47434230D01*
X107000000Y-52100000D02*
X108700012Y-50399988D01*
X107000000Y-52800000D02*
X107000000Y-52100000D01*
%TO.N,DIO_18*%
X130040010Y-35806010D02*
X127508000Y-33274000D01*
X140962010Y-35806010D02*
X130040010Y-35806010D01*
X142763980Y-37607980D02*
X140962010Y-35806010D01*
X142763980Y-38061100D02*
X142763980Y-37607980D01*
X143764000Y-39061120D02*
X142763980Y-38061100D01*
X143764000Y-42926000D02*
X143764000Y-39061120D01*
X145600000Y-44762000D02*
X143764000Y-42926000D01*
X145600000Y-45100000D02*
X145600000Y-44762000D01*
%TO.N,DIO_19*%
X144399999Y-41359999D02*
X145600000Y-42560000D01*
X144399999Y-38989999D02*
X144399999Y-41359999D01*
X143263990Y-37345990D02*
X143263990Y-37853990D01*
X141224000Y-35306000D02*
X143263990Y-37345990D01*
X130556000Y-35306000D02*
X141224000Y-35306000D01*
X143263990Y-37853990D02*
X144399999Y-38989999D01*
X128524000Y-33274000D02*
X130556000Y-35306000D01*
%TO.N,DIO_20*%
X131318000Y-34544000D02*
X130048000Y-33274000D01*
X138938000Y-34544000D02*
X131318000Y-34544000D01*
X141478000Y-34544000D02*
X140970000Y-34544000D01*
X143764000Y-36830000D02*
X141478000Y-34544000D01*
X143764000Y-37592000D02*
X143764000Y-36830000D01*
X145600000Y-39428000D02*
X143764000Y-37592000D01*
X145600000Y-40020000D02*
X145600000Y-39428000D01*
X138938000Y-34544000D02*
X140970000Y-34544000D01*
%TO.N,DIO_21*%
X134874000Y-33670000D02*
X137725687Y-33670000D01*
X141790000Y-33670000D02*
X145600000Y-37480000D01*
X141027687Y-33670000D02*
X141790000Y-33670000D01*
X137725687Y-33670000D02*
X141027687Y-33670000D01*
%TD*%
D22*
%TO.N,GND*%
X147676000Y-67365000D02*
X131135000Y-67365000D01*
X131135000Y-65750000D01*
X131122799Y-65626118D01*
X131086664Y-65506996D01*
X131027983Y-65397213D01*
X130949013Y-65300987D01*
X130852787Y-65222017D01*
X130743004Y-65163336D01*
X130623882Y-65127201D01*
X130500000Y-65115000D01*
X120800000Y-65115000D01*
X120676118Y-65127201D01*
X120556996Y-65163336D01*
X120447213Y-65222017D01*
X120350987Y-65300987D01*
X120272017Y-65397213D01*
X120213336Y-65506996D01*
X120177201Y-65626118D01*
X120165000Y-65750000D01*
X120165000Y-66914999D01*
X118946475Y-66914999D01*
X118919068Y-66777214D01*
X118848586Y-66607054D01*
X118805000Y-66541823D01*
X118805000Y-65238120D01*
X118848586Y-65172889D01*
X118919068Y-65002729D01*
X118955000Y-64822089D01*
X118955000Y-64637911D01*
X118919068Y-64457271D01*
X118848586Y-64287111D01*
X118746262Y-64133972D01*
X118616028Y-64003738D01*
X118462889Y-63901414D01*
X118454795Y-63898061D01*
X124965000Y-63898061D01*
X124965000Y-64101939D01*
X125004774Y-64301898D01*
X125082795Y-64490256D01*
X125196063Y-64659774D01*
X125340226Y-64803937D01*
X125509744Y-64917205D01*
X125698102Y-64995226D01*
X125898061Y-65035000D01*
X126101939Y-65035000D01*
X126301898Y-64995226D01*
X126490256Y-64917205D01*
X126538454Y-64885000D01*
X135961546Y-64885000D01*
X136009744Y-64917205D01*
X136198102Y-64995226D01*
X136398061Y-65035000D01*
X136601939Y-65035000D01*
X136801898Y-64995226D01*
X136990256Y-64917205D01*
X137159774Y-64803937D01*
X137303937Y-64659774D01*
X137417205Y-64490256D01*
X137495226Y-64301898D01*
X137535000Y-64101939D01*
X137535000Y-63898061D01*
X137495226Y-63698102D01*
X137417205Y-63509744D01*
X137303937Y-63340226D01*
X137200601Y-63236890D01*
X144158524Y-63236890D01*
X144203175Y-63384099D01*
X144328359Y-63646920D01*
X144502412Y-63880269D01*
X144718645Y-64075178D01*
X144968748Y-64224157D01*
X145243109Y-64321481D01*
X145473000Y-64200814D01*
X145473000Y-63007000D01*
X145727000Y-63007000D01*
X145727000Y-64200814D01*
X145956891Y-64321481D01*
X146231252Y-64224157D01*
X146481355Y-64075178D01*
X146697588Y-63880269D01*
X146871641Y-63646920D01*
X146996825Y-63384099D01*
X147041476Y-63236890D01*
X146920155Y-63007000D01*
X145727000Y-63007000D01*
X145473000Y-63007000D01*
X144279845Y-63007000D01*
X144158524Y-63236890D01*
X137200601Y-63236890D01*
X137159774Y-63196063D01*
X136990256Y-63082795D01*
X136801898Y-63004774D01*
X136601939Y-62965000D01*
X136398061Y-62965000D01*
X136198102Y-63004774D01*
X136009744Y-63082795D01*
X135961546Y-63115000D01*
X126538454Y-63115000D01*
X126490256Y-63082795D01*
X126301898Y-63004774D01*
X126101939Y-62965000D01*
X125898061Y-62965000D01*
X125698102Y-63004774D01*
X125509744Y-63082795D01*
X125340226Y-63196063D01*
X125196063Y-63340226D01*
X125082795Y-63509744D01*
X125004774Y-63698102D01*
X124965000Y-63898061D01*
X118454795Y-63898061D01*
X118292729Y-63830932D01*
X118112089Y-63795000D01*
X117927911Y-63795000D01*
X117747271Y-63830932D01*
X117577111Y-63901414D01*
X117423972Y-64003738D01*
X117293738Y-64133972D01*
X117191414Y-64287111D01*
X117120932Y-64457271D01*
X117085000Y-64637911D01*
X117085000Y-64822089D01*
X117120932Y-65002729D01*
X117191414Y-65172889D01*
X117235000Y-65238121D01*
X117235001Y-66541822D01*
X117191414Y-66607054D01*
X117120932Y-66777214D01*
X117093525Y-66914999D01*
X114862323Y-66914999D01*
X114825000Y-66911323D01*
X114787677Y-66914999D01*
X114787668Y-66914999D01*
X114676015Y-66925996D01*
X114532754Y-66969453D01*
X114400725Y-67040025D01*
X114400723Y-67040026D01*
X114400724Y-67040026D01*
X114313997Y-67111200D01*
X114313993Y-67111204D01*
X114285000Y-67134998D01*
X114261206Y-67163991D01*
X114060197Y-67365000D01*
X104292000Y-67365000D01*
X104292000Y-63810000D01*
X105511928Y-63810000D01*
X105524188Y-63934482D01*
X105560498Y-64054180D01*
X105619463Y-64164494D01*
X105698815Y-64261185D01*
X105795506Y-64340537D01*
X105905820Y-64399502D01*
X106025518Y-64435812D01*
X106150000Y-64448072D01*
X106714250Y-64445000D01*
X106873000Y-64286250D01*
X106873000Y-63087000D01*
X107127000Y-63087000D01*
X107127000Y-64286250D01*
X107285750Y-64445000D01*
X107850000Y-64448072D01*
X107974482Y-64435812D01*
X108094180Y-64399502D01*
X108204494Y-64340537D01*
X108301185Y-64261185D01*
X108380537Y-64164494D01*
X108439502Y-64054180D01*
X108475812Y-63934482D01*
X108488072Y-63810000D01*
X108485000Y-63245750D01*
X108326250Y-63087000D01*
X107127000Y-63087000D01*
X106873000Y-63087000D01*
X105673750Y-63087000D01*
X105515000Y-63245750D01*
X105511928Y-63810000D01*
X104292000Y-63810000D01*
X104292000Y-25085080D01*
X104357111Y-25128586D01*
X104527271Y-25199068D01*
X104707911Y-25235000D01*
X104892089Y-25235000D01*
X105072729Y-25199068D01*
X105242889Y-25128586D01*
X105396028Y-25026262D01*
X105515000Y-24907290D01*
X105515000Y-25006260D01*
X105572068Y-25293158D01*
X105684010Y-25563411D01*
X105846525Y-25806632D01*
X106053368Y-26013475D01*
X106227760Y-26130000D01*
X106053368Y-26246525D01*
X105846525Y-26453368D01*
X105684010Y-26696589D01*
X105572068Y-26966842D01*
X105515000Y-27253740D01*
X105515000Y-27546260D01*
X105572068Y-27833158D01*
X105684010Y-28103411D01*
X105846525Y-28346632D01*
X106053368Y-28553475D01*
X106227760Y-28670000D01*
X106053368Y-28786525D01*
X105846525Y-28993368D01*
X105684010Y-29236589D01*
X105572068Y-29506842D01*
X105515000Y-29793740D01*
X105515000Y-30086260D01*
X105572068Y-30373158D01*
X105684010Y-30643411D01*
X105846525Y-30886632D01*
X106053368Y-31093475D01*
X106227760Y-31210000D01*
X106053368Y-31326525D01*
X105846525Y-31533368D01*
X105684010Y-31776589D01*
X105572068Y-32046842D01*
X105515000Y-32333740D01*
X105515000Y-32626260D01*
X105572068Y-32913158D01*
X105684010Y-33183411D01*
X105773100Y-33316743D01*
X105272184Y-33817659D01*
X105242236Y-33842237D01*
X105217658Y-33872185D01*
X105217654Y-33872189D01*
X105188321Y-33907932D01*
X105144138Y-33961768D01*
X105131060Y-33986236D01*
X105071245Y-34098142D01*
X105026358Y-34246115D01*
X105011202Y-34400001D01*
X105015000Y-34438563D01*
X105014999Y-36321446D01*
X105011202Y-36359999D01*
X105014999Y-36398552D01*
X105014999Y-36398559D01*
X105026358Y-36513885D01*
X105071245Y-36661858D01*
X105144137Y-36798231D01*
X105242235Y-36917763D01*
X105272189Y-36942346D01*
X105552925Y-37223082D01*
X105515000Y-37413740D01*
X105515000Y-37706260D01*
X105572068Y-37993158D01*
X105684010Y-38263411D01*
X105732981Y-38336701D01*
X105726236Y-38342236D01*
X105701649Y-38372195D01*
X105272185Y-38801658D01*
X105242236Y-38826237D01*
X105217658Y-38856185D01*
X105217654Y-38856189D01*
X105190900Y-38888789D01*
X105144138Y-38945768D01*
X105120497Y-38989998D01*
X105071245Y-39082142D01*
X105026358Y-39230115D01*
X105011202Y-39384001D01*
X105015000Y-39422564D01*
X105014999Y-41401446D01*
X105011202Y-41439999D01*
X105014999Y-41478552D01*
X105014999Y-41478559D01*
X105026358Y-41593885D01*
X105071245Y-41741858D01*
X105144137Y-41878231D01*
X105242235Y-41997763D01*
X105272189Y-42022346D01*
X105552925Y-42303082D01*
X105515000Y-42493740D01*
X105515000Y-42786260D01*
X105572068Y-43073158D01*
X105684010Y-43343411D01*
X105846525Y-43586632D01*
X106053368Y-43793475D01*
X106227760Y-43910000D01*
X106053368Y-44026525D01*
X105846525Y-44233368D01*
X105684010Y-44476589D01*
X105572068Y-44746842D01*
X105515000Y-45033740D01*
X105515000Y-45326260D01*
X105572068Y-45613158D01*
X105684010Y-45883411D01*
X105846525Y-46126632D01*
X106053368Y-46333475D01*
X106227760Y-46450000D01*
X106053368Y-46566525D01*
X105846525Y-46773368D01*
X105684010Y-47016589D01*
X105572068Y-47286842D01*
X105515000Y-47573740D01*
X105515000Y-47866260D01*
X105572068Y-48153158D01*
X105684010Y-48423411D01*
X105846525Y-48666632D01*
X106053368Y-48873475D01*
X106227760Y-48990000D01*
X106053368Y-49106525D01*
X105846525Y-49313368D01*
X105684010Y-49556589D01*
X105572068Y-49826842D01*
X105515000Y-50113740D01*
X105515000Y-50406260D01*
X105572068Y-50693158D01*
X105684010Y-50963411D01*
X105846525Y-51206632D01*
X106053368Y-51413475D01*
X106227760Y-51530000D01*
X106053368Y-51646525D01*
X105846525Y-51853368D01*
X105684010Y-52096589D01*
X105572068Y-52366842D01*
X105515000Y-52653740D01*
X105515000Y-52946260D01*
X105572068Y-53233158D01*
X105684010Y-53503411D01*
X105846525Y-53746632D01*
X106053368Y-53953475D01*
X106227760Y-54070000D01*
X106053368Y-54186525D01*
X105846525Y-54393368D01*
X105684010Y-54636589D01*
X105572068Y-54906842D01*
X105515000Y-55193740D01*
X105515000Y-55486260D01*
X105572068Y-55773158D01*
X105684010Y-56043411D01*
X105846525Y-56286632D01*
X106053368Y-56493475D01*
X106227760Y-56610000D01*
X106053368Y-56726525D01*
X105846525Y-56933368D01*
X105684010Y-57176589D01*
X105572068Y-57446842D01*
X105515000Y-57733740D01*
X105515000Y-58026260D01*
X105572068Y-58313158D01*
X105684010Y-58583411D01*
X105846525Y-58826632D01*
X106053368Y-59033475D01*
X106227760Y-59150000D01*
X106053368Y-59266525D01*
X105846525Y-59473368D01*
X105684010Y-59716589D01*
X105572068Y-59986842D01*
X105515000Y-60273740D01*
X105515000Y-60566260D01*
X105572068Y-60853158D01*
X105684010Y-61123411D01*
X105846525Y-61366632D01*
X105978380Y-61498487D01*
X105905820Y-61520498D01*
X105795506Y-61579463D01*
X105698815Y-61658815D01*
X105619463Y-61755506D01*
X105560498Y-61865820D01*
X105524188Y-61985518D01*
X105511928Y-62110000D01*
X105515000Y-62674250D01*
X105673750Y-62833000D01*
X106873000Y-62833000D01*
X106873000Y-62813000D01*
X107127000Y-62813000D01*
X107127000Y-62833000D01*
X108326250Y-62833000D01*
X108485000Y-62674250D01*
X108488072Y-62110000D01*
X108480036Y-62028397D01*
X114191208Y-62028397D01*
X114268843Y-62277472D01*
X114532883Y-62403371D01*
X114816411Y-62475339D01*
X115108531Y-62490611D01*
X115398019Y-62448599D01*
X115673747Y-62350919D01*
X115811157Y-62277472D01*
X115888792Y-62028397D01*
X116731208Y-62028397D01*
X116808843Y-62277472D01*
X117072883Y-62403371D01*
X117356411Y-62475339D01*
X117648531Y-62490611D01*
X117938019Y-62448599D01*
X118213747Y-62350919D01*
X118351157Y-62277472D01*
X118428792Y-62028397D01*
X119271208Y-62028397D01*
X119348843Y-62277472D01*
X119612883Y-62403371D01*
X119896411Y-62475339D01*
X120188531Y-62490611D01*
X120478019Y-62448599D01*
X120753747Y-62350919D01*
X120891157Y-62277472D01*
X120968792Y-62028397D01*
X121811208Y-62028397D01*
X121888843Y-62277472D01*
X122152883Y-62403371D01*
X122436411Y-62475339D01*
X122728531Y-62490611D01*
X123018019Y-62448599D01*
X123293747Y-62350919D01*
X123431157Y-62277472D01*
X123508792Y-62028397D01*
X124351208Y-62028397D01*
X124428843Y-62277472D01*
X124692883Y-62403371D01*
X124976411Y-62475339D01*
X125268531Y-62490611D01*
X125558019Y-62448599D01*
X125833747Y-62350919D01*
X125971157Y-62277472D01*
X126048792Y-62028397D01*
X126891208Y-62028397D01*
X126968843Y-62277472D01*
X127232883Y-62403371D01*
X127516411Y-62475339D01*
X127808531Y-62490611D01*
X128098019Y-62448599D01*
X128373747Y-62350919D01*
X128511157Y-62277472D01*
X128588792Y-62028397D01*
X129431208Y-62028397D01*
X129508843Y-62277472D01*
X129772883Y-62403371D01*
X130056411Y-62475339D01*
X130348531Y-62490611D01*
X130638019Y-62448599D01*
X130913747Y-62350919D01*
X131051157Y-62277472D01*
X131128792Y-62028397D01*
X131971208Y-62028397D01*
X132048843Y-62277472D01*
X132312883Y-62403371D01*
X132596411Y-62475339D01*
X132888531Y-62490611D01*
X133178019Y-62448599D01*
X133453747Y-62350919D01*
X133591157Y-62277472D01*
X133668792Y-62028397D01*
X134511208Y-62028397D01*
X134588843Y-62277472D01*
X134852883Y-62403371D01*
X135136411Y-62475339D01*
X135428531Y-62490611D01*
X135718019Y-62448599D01*
X135993747Y-62350919D01*
X136131157Y-62277472D01*
X136208792Y-62028397D01*
X135360000Y-61179605D01*
X134511208Y-62028397D01*
X133668792Y-62028397D01*
X132820000Y-61179605D01*
X131971208Y-62028397D01*
X131128792Y-62028397D01*
X130280000Y-61179605D01*
X129431208Y-62028397D01*
X128588792Y-62028397D01*
X127740000Y-61179605D01*
X126891208Y-62028397D01*
X126048792Y-62028397D01*
X125200000Y-61179605D01*
X124351208Y-62028397D01*
X123508792Y-62028397D01*
X122660000Y-61179605D01*
X121811208Y-62028397D01*
X120968792Y-62028397D01*
X120120000Y-61179605D01*
X119271208Y-62028397D01*
X118428792Y-62028397D01*
X117580000Y-61179605D01*
X116731208Y-62028397D01*
X115888792Y-62028397D01*
X115040000Y-61179605D01*
X114191208Y-62028397D01*
X108480036Y-62028397D01*
X108475812Y-61985518D01*
X108439502Y-61865820D01*
X108380537Y-61755506D01*
X108301185Y-61658815D01*
X108204494Y-61579463D01*
X108094180Y-61520498D01*
X108021620Y-61498487D01*
X108153475Y-61366632D01*
X108315990Y-61123411D01*
X108338721Y-61068531D01*
X113549389Y-61068531D01*
X113591401Y-61358019D01*
X113689081Y-61633747D01*
X113762528Y-61771157D01*
X114011603Y-61848792D01*
X114860395Y-61000000D01*
X115219605Y-61000000D01*
X116068397Y-61848792D01*
X116310000Y-61773486D01*
X116551603Y-61848792D01*
X117400395Y-61000000D01*
X117759605Y-61000000D01*
X118608397Y-61848792D01*
X118850000Y-61773486D01*
X119091603Y-61848792D01*
X119940395Y-61000000D01*
X120299605Y-61000000D01*
X121148397Y-61848792D01*
X121390000Y-61773486D01*
X121631603Y-61848792D01*
X122480395Y-61000000D01*
X121631603Y-60151208D01*
X121390000Y-60226514D01*
X121148397Y-60151208D01*
X120299605Y-61000000D01*
X119940395Y-61000000D01*
X119091603Y-60151208D01*
X118850000Y-60226514D01*
X118608397Y-60151208D01*
X117759605Y-61000000D01*
X117400395Y-61000000D01*
X116551603Y-60151208D01*
X116310000Y-60226514D01*
X116068397Y-60151208D01*
X115219605Y-61000000D01*
X114860395Y-61000000D01*
X114011603Y-60151208D01*
X113762528Y-60228843D01*
X113636629Y-60492883D01*
X113564661Y-60776411D01*
X113549389Y-61068531D01*
X108338721Y-61068531D01*
X108427932Y-60853158D01*
X108485000Y-60566260D01*
X108485000Y-60273740D01*
X108427932Y-59986842D01*
X108315990Y-59716589D01*
X108153475Y-59473368D01*
X107946632Y-59266525D01*
X107772240Y-59150000D01*
X107946632Y-59033475D01*
X108153475Y-58826632D01*
X108315990Y-58583411D01*
X108427932Y-58313158D01*
X108485000Y-58026260D01*
X108485000Y-57733740D01*
X108427932Y-57446842D01*
X108315990Y-57176589D01*
X108153475Y-56933368D01*
X107946632Y-56726525D01*
X107772240Y-56610000D01*
X107946632Y-56493475D01*
X108153475Y-56286632D01*
X108315990Y-56043411D01*
X108427932Y-55773158D01*
X108485000Y-55486260D01*
X108485000Y-55193740D01*
X108427932Y-54906842D01*
X108315990Y-54636589D01*
X108153475Y-54393368D01*
X107946632Y-54186525D01*
X107772240Y-54070000D01*
X107946632Y-53953475D01*
X108153475Y-53746632D01*
X108315990Y-53503411D01*
X108427932Y-53233158D01*
X108485000Y-52946260D01*
X108485000Y-52653740D01*
X108427932Y-52366842D01*
X108315990Y-52096589D01*
X108234911Y-51975246D01*
X109227829Y-50982329D01*
X109257776Y-50957752D01*
X109355874Y-50838221D01*
X109428766Y-50701848D01*
X109473653Y-50553875D01*
X109485012Y-50438549D01*
X109485012Y-50438542D01*
X109488809Y-50399989D01*
X109485012Y-50361436D01*
X109485012Y-47759387D01*
X111027848Y-46216551D01*
X111057801Y-46191969D01*
X111155899Y-46072438D01*
X111176774Y-46033383D01*
X113227821Y-43982336D01*
X113257774Y-43957754D01*
X113355872Y-43838223D01*
X113428764Y-43701850D01*
X113441528Y-43659774D01*
X113473652Y-43553877D01*
X113483507Y-43453812D01*
X113485010Y-43438551D01*
X113485010Y-43438546D01*
X113488807Y-43399990D01*
X113485010Y-43361434D01*
X113485010Y-40925147D01*
X114175158Y-40235000D01*
X118001030Y-40235000D01*
X118066261Y-40278586D01*
X118236421Y-40349068D01*
X118417061Y-40385000D01*
X118601239Y-40385000D01*
X118781879Y-40349068D01*
X118952039Y-40278586D01*
X119105178Y-40176262D01*
X119235412Y-40046028D01*
X119286743Y-39969206D01*
X119384104Y-40021246D01*
X119398128Y-40028742D01*
X119546101Y-40073630D01*
X119621014Y-40081008D01*
X119661427Y-40084988D01*
X119661432Y-40084988D01*
X119699988Y-40088785D01*
X119738544Y-40084988D01*
X123973535Y-40084988D01*
X124000932Y-40222719D01*
X124071414Y-40392879D01*
X124115001Y-40458112D01*
X124115001Y-40973536D01*
X123977271Y-41000933D01*
X123807111Y-41071415D01*
X123653972Y-41173739D01*
X123523738Y-41303973D01*
X123421414Y-41457112D01*
X123350932Y-41627272D01*
X123315000Y-41807912D01*
X123315000Y-41992090D01*
X123350932Y-42172730D01*
X123421414Y-42342890D01*
X123523738Y-42496029D01*
X123614991Y-42587282D01*
X123614990Y-55868852D01*
X123062403Y-56421440D01*
X121412116Y-56421440D01*
X121373560Y-56417643D01*
X121335004Y-56421440D01*
X121334999Y-56421440D01*
X121294586Y-56425420D01*
X121219673Y-56432798D01*
X121080558Y-56474999D01*
X121071700Y-56477686D01*
X120935327Y-56550578D01*
X120815796Y-56648676D01*
X120791215Y-56678628D01*
X120456918Y-57012925D01*
X120266260Y-56975000D01*
X119973740Y-56975000D01*
X119686842Y-57032068D01*
X119416589Y-57144010D01*
X119173368Y-57306525D01*
X118966525Y-57513368D01*
X118850000Y-57687760D01*
X118733475Y-57513368D01*
X118526632Y-57306525D01*
X118283411Y-57144010D01*
X118013158Y-57032068D01*
X117726260Y-56975000D01*
X117433740Y-56975000D01*
X117146842Y-57032068D01*
X116876589Y-57144010D01*
X116633368Y-57306525D01*
X116426525Y-57513368D01*
X116310000Y-57687760D01*
X116193475Y-57513368D01*
X115986632Y-57306525D01*
X115743411Y-57144010D01*
X115473158Y-57032068D01*
X115186260Y-56975000D01*
X114893740Y-56975000D01*
X114606842Y-57032068D01*
X114336589Y-57144010D01*
X114093368Y-57306525D01*
X113886525Y-57513368D01*
X113724010Y-57756589D01*
X113612068Y-58026842D01*
X113555000Y-58313740D01*
X113555000Y-58606260D01*
X113612068Y-58893158D01*
X113724010Y-59163411D01*
X113886525Y-59406632D01*
X114093368Y-59613475D01*
X114266729Y-59729311D01*
X114191208Y-59971603D01*
X115040000Y-60820395D01*
X115888792Y-59971603D01*
X115813271Y-59729311D01*
X115986632Y-59613475D01*
X116193475Y-59406632D01*
X116310000Y-59232240D01*
X116426525Y-59406632D01*
X116633368Y-59613475D01*
X116806729Y-59729311D01*
X116731208Y-59971603D01*
X117580000Y-60820395D01*
X118428792Y-59971603D01*
X118353271Y-59729311D01*
X118526632Y-59613475D01*
X118733475Y-59406632D01*
X118850000Y-59232240D01*
X118966525Y-59406632D01*
X119173368Y-59613475D01*
X119346729Y-59729311D01*
X119271208Y-59971603D01*
X120120000Y-60820395D01*
X120968792Y-59971603D01*
X120893271Y-59729311D01*
X121066632Y-59613475D01*
X121273475Y-59406632D01*
X121390000Y-59232240D01*
X121506525Y-59406632D01*
X121713368Y-59613475D01*
X121886729Y-59729311D01*
X121811208Y-59971603D01*
X122660000Y-60820395D01*
X122674143Y-60806253D01*
X122853748Y-60985858D01*
X122839605Y-61000000D01*
X123688397Y-61848792D01*
X123930000Y-61773486D01*
X124171603Y-61848792D01*
X125020395Y-61000000D01*
X125006253Y-60985858D01*
X125185858Y-60806253D01*
X125200000Y-60820395D01*
X125214143Y-60806253D01*
X125393748Y-60985858D01*
X125379605Y-61000000D01*
X126228397Y-61848792D01*
X126470000Y-61773486D01*
X126711603Y-61848792D01*
X127560395Y-61000000D01*
X127546253Y-60985858D01*
X127725858Y-60806253D01*
X127740000Y-60820395D01*
X127754143Y-60806253D01*
X127933748Y-60985858D01*
X127919605Y-61000000D01*
X128768397Y-61848792D01*
X129010000Y-61773486D01*
X129251603Y-61848792D01*
X130100395Y-61000000D01*
X130086253Y-60985858D01*
X130265858Y-60806253D01*
X130280000Y-60820395D01*
X130294143Y-60806253D01*
X130473748Y-60985858D01*
X130459605Y-61000000D01*
X131308397Y-61848792D01*
X131550000Y-61773486D01*
X131791603Y-61848792D01*
X132640395Y-61000000D01*
X132626253Y-60985858D01*
X132805858Y-60806253D01*
X132820000Y-60820395D01*
X132834143Y-60806253D01*
X133013748Y-60985858D01*
X132999605Y-61000000D01*
X133848397Y-61848792D01*
X134090000Y-61773486D01*
X134331603Y-61848792D01*
X135180395Y-61000000D01*
X135166253Y-60985858D01*
X135345858Y-60806253D01*
X135360000Y-60820395D01*
X135374143Y-60806253D01*
X135553748Y-60985858D01*
X135539605Y-61000000D01*
X136388397Y-61848792D01*
X136630689Y-61773271D01*
X136746525Y-61946632D01*
X136953368Y-62153475D01*
X137196589Y-62315990D01*
X137466842Y-62427932D01*
X137753740Y-62485000D01*
X138046260Y-62485000D01*
X138333158Y-62427932D01*
X138603411Y-62315990D01*
X138846632Y-62153475D01*
X139053475Y-61946632D01*
X139215990Y-61703411D01*
X139327932Y-61433158D01*
X139385000Y-61146260D01*
X139385000Y-60853740D01*
X139331544Y-60584999D01*
X143561448Y-60584999D01*
X143600001Y-60588796D01*
X143638554Y-60584999D01*
X143638562Y-60584999D01*
X143753888Y-60573640D01*
X143901861Y-60528753D01*
X144038234Y-60455861D01*
X144115000Y-60392860D01*
X144115000Y-60486260D01*
X144172068Y-60773158D01*
X144284010Y-61043411D01*
X144446525Y-61286632D01*
X144653368Y-61493475D01*
X144835534Y-61615195D01*
X144718645Y-61684822D01*
X144502412Y-61879731D01*
X144328359Y-62113080D01*
X144203175Y-62375901D01*
X144158524Y-62523110D01*
X144279845Y-62753000D01*
X145473000Y-62753000D01*
X145473000Y-62733000D01*
X145727000Y-62733000D01*
X145727000Y-62753000D01*
X146920155Y-62753000D01*
X147041476Y-62523110D01*
X146996825Y-62375901D01*
X146871641Y-62113080D01*
X146697588Y-61879731D01*
X146481355Y-61684822D01*
X146364466Y-61615195D01*
X146546632Y-61493475D01*
X146753475Y-61286632D01*
X146915990Y-61043411D01*
X147027932Y-60773158D01*
X147085000Y-60486260D01*
X147085000Y-60193740D01*
X147027932Y-59906842D01*
X146915990Y-59636589D01*
X146753475Y-59393368D01*
X146546632Y-59186525D01*
X146372240Y-59070000D01*
X146546632Y-58953475D01*
X146753475Y-58746632D01*
X146915990Y-58503411D01*
X147027932Y-58233158D01*
X147085000Y-57946260D01*
X147085000Y-57653740D01*
X147027932Y-57366842D01*
X146915990Y-57096589D01*
X146753475Y-56853368D01*
X146546632Y-56646525D01*
X146372240Y-56530000D01*
X146546632Y-56413475D01*
X146753475Y-56206632D01*
X146915990Y-55963411D01*
X147027932Y-55693158D01*
X147085000Y-55406260D01*
X147085000Y-55113740D01*
X147027932Y-54826842D01*
X146915990Y-54556589D01*
X146753475Y-54313368D01*
X146546632Y-54106525D01*
X146372240Y-53990000D01*
X146546632Y-53873475D01*
X146753475Y-53666632D01*
X146915990Y-53423411D01*
X147027932Y-53153158D01*
X147085000Y-52866260D01*
X147085000Y-52573740D01*
X147027932Y-52286842D01*
X146915990Y-52016589D01*
X146753475Y-51773368D01*
X146546632Y-51566525D01*
X146364466Y-51444805D01*
X146481355Y-51375178D01*
X146697588Y-51180269D01*
X146871641Y-50946920D01*
X146996825Y-50684099D01*
X147041476Y-50536890D01*
X146920155Y-50307000D01*
X145727000Y-50307000D01*
X145727000Y-50327000D01*
X145473000Y-50327000D01*
X145473000Y-50307000D01*
X144279845Y-50307000D01*
X144158524Y-50536890D01*
X144203175Y-50684099D01*
X144328359Y-50946920D01*
X144502412Y-51180269D01*
X144718645Y-51375178D01*
X144835534Y-51444805D01*
X144653368Y-51566525D01*
X144446525Y-51773368D01*
X144284010Y-52016589D01*
X144172068Y-52286842D01*
X144115000Y-52573740D01*
X144115000Y-52866260D01*
X144172068Y-53153158D01*
X144284010Y-53423411D01*
X144446525Y-53666632D01*
X144653368Y-53873475D01*
X144827760Y-53990000D01*
X144653368Y-54106525D01*
X144446525Y-54313368D01*
X144284010Y-54556589D01*
X144172068Y-54826842D01*
X144115000Y-55113740D01*
X144115000Y-55406260D01*
X144152925Y-55596918D01*
X143638843Y-56111000D01*
X142574373Y-56111000D01*
X142659774Y-56053937D01*
X142803937Y-55909774D01*
X142917205Y-55740256D01*
X142995226Y-55551898D01*
X143035000Y-55351939D01*
X143035000Y-55148061D01*
X142995226Y-54948102D01*
X142917205Y-54759744D01*
X142885000Y-54711546D01*
X142885000Y-50788454D01*
X142917205Y-50740256D01*
X142995226Y-50551898D01*
X143035000Y-50351939D01*
X143035000Y-50148061D01*
X142995226Y-49948102D01*
X142917205Y-49759744D01*
X142803937Y-49590226D01*
X142659774Y-49446063D01*
X142490256Y-49332795D01*
X142301898Y-49254774D01*
X142101939Y-49215000D01*
X141898061Y-49215000D01*
X141698102Y-49254774D01*
X141509744Y-49332795D01*
X141340226Y-49446063D01*
X141196063Y-49590226D01*
X141082795Y-49759744D01*
X141004774Y-49948102D01*
X140965000Y-50148061D01*
X140965000Y-50351939D01*
X141004774Y-50551898D01*
X141082795Y-50740256D01*
X141115001Y-50788456D01*
X141115000Y-54711546D01*
X141082795Y-54759744D01*
X141004774Y-54948102D01*
X140965000Y-55148061D01*
X140965000Y-55351939D01*
X141004774Y-55551898D01*
X141082795Y-55740256D01*
X141196063Y-55909774D01*
X141340226Y-56053937D01*
X141425627Y-56111000D01*
X135169000Y-56111000D01*
X135169000Y-53393157D01*
X138195816Y-50366342D01*
X138225764Y-50341764D01*
X138254295Y-50307000D01*
X138284953Y-50269643D01*
X138323862Y-50222233D01*
X138396754Y-50085860D01*
X138431194Y-49972328D01*
X138441641Y-49937888D01*
X138443057Y-49923510D01*
X138453000Y-49822561D01*
X138453000Y-49822554D01*
X138456797Y-49784001D01*
X138453000Y-49745448D01*
X138453000Y-47846554D01*
X138456797Y-47807998D01*
X138453000Y-47769438D01*
X138453000Y-47769437D01*
X138447506Y-47713656D01*
X138441642Y-47654111D01*
X138396754Y-47506138D01*
X138375573Y-47466511D01*
X138323862Y-47369765D01*
X138225764Y-47250234D01*
X138195811Y-47225652D01*
X137432349Y-46462190D01*
X137407766Y-46432236D01*
X137322495Y-46362255D01*
X137409774Y-46303937D01*
X137553937Y-46159774D01*
X137667205Y-45990256D01*
X137745226Y-45801898D01*
X137785000Y-45601939D01*
X137785000Y-45398061D01*
X137745226Y-45198102D01*
X137667205Y-45009744D01*
X137635000Y-44961546D01*
X137635000Y-43538454D01*
X137667205Y-43490256D01*
X137745226Y-43301898D01*
X137785000Y-43101939D01*
X137785000Y-42898061D01*
X137745226Y-42698102D01*
X137739799Y-42685000D01*
X139807443Y-42685000D01*
X139845996Y-42688797D01*
X139884549Y-42685000D01*
X139884557Y-42685000D01*
X139999883Y-42673641D01*
X140147856Y-42628754D01*
X140284229Y-42555862D01*
X140403760Y-42457764D01*
X140428343Y-42427810D01*
X141995782Y-40860371D01*
X142072727Y-40845066D01*
X142242887Y-40774584D01*
X142396026Y-40672260D01*
X142526260Y-40542026D01*
X142628584Y-40388887D01*
X142699066Y-40218727D01*
X142734998Y-40038087D01*
X142734998Y-39853909D01*
X142699066Y-39673269D01*
X142628584Y-39503109D01*
X142526260Y-39349970D01*
X142396026Y-39219736D01*
X142242887Y-39117412D01*
X142072727Y-39046930D01*
X141892087Y-39010998D01*
X141707909Y-39010998D01*
X141527269Y-39046930D01*
X141357109Y-39117412D01*
X141203970Y-39219736D01*
X141073736Y-39349970D01*
X140971412Y-39503109D01*
X140900930Y-39673269D01*
X140885625Y-39750214D01*
X139520839Y-41115000D01*
X137318387Y-41115000D01*
X137409774Y-41053937D01*
X137553937Y-40909774D01*
X137667205Y-40740256D01*
X137745226Y-40551898D01*
X137785000Y-40351939D01*
X137785000Y-40148061D01*
X137745226Y-39948102D01*
X137667205Y-39759744D01*
X137635000Y-39711546D01*
X137635000Y-37538454D01*
X137667205Y-37490256D01*
X137745226Y-37301898D01*
X137785000Y-37101939D01*
X137785000Y-36898061D01*
X137745226Y-36698102D01*
X137700867Y-36591010D01*
X140636853Y-36591010D01*
X141978980Y-37933138D01*
X141978980Y-38022547D01*
X141975183Y-38061100D01*
X141978980Y-38099653D01*
X141978980Y-38099660D01*
X141990339Y-38214986D01*
X142035226Y-38362959D01*
X142108118Y-38499332D01*
X142206216Y-38618864D01*
X142236170Y-38643447D01*
X142979001Y-39386278D01*
X142979000Y-42887447D01*
X142975203Y-42926000D01*
X142979000Y-42964553D01*
X142979000Y-42964560D01*
X142990359Y-43079886D01*
X143035246Y-43227859D01*
X143108138Y-43364232D01*
X143206236Y-43483764D01*
X143236190Y-43508347D01*
X144237271Y-44509428D01*
X144172068Y-44666842D01*
X144115000Y-44953740D01*
X144115000Y-45246260D01*
X144172068Y-45533158D01*
X144284010Y-45803411D01*
X144446525Y-46046632D01*
X144653368Y-46253475D01*
X144827760Y-46370000D01*
X144653368Y-46486525D01*
X144446525Y-46693368D01*
X144405344Y-46755000D01*
X142302444Y-46755000D01*
X142301898Y-46754774D01*
X142101939Y-46715000D01*
X141898061Y-46715000D01*
X141698102Y-46754774D01*
X141509744Y-46832795D01*
X141340226Y-46946063D01*
X141196063Y-47090226D01*
X141082795Y-47259744D01*
X141004774Y-47448102D01*
X140965000Y-47648061D01*
X140965000Y-47851939D01*
X141004774Y-48051898D01*
X141082795Y-48240256D01*
X141196063Y-48409774D01*
X141340226Y-48553937D01*
X141509744Y-48667205D01*
X141698102Y-48745226D01*
X141898061Y-48785000D01*
X142101939Y-48785000D01*
X142301898Y-48745226D01*
X142490256Y-48667205D01*
X142659774Y-48553937D01*
X142688711Y-48525000D01*
X144405344Y-48525000D01*
X144446525Y-48586632D01*
X144653368Y-48793475D01*
X144835534Y-48915195D01*
X144718645Y-48984822D01*
X144502412Y-49179731D01*
X144328359Y-49413080D01*
X144203175Y-49675901D01*
X144158524Y-49823110D01*
X144279845Y-50053000D01*
X145473000Y-50053000D01*
X145473000Y-50033000D01*
X145727000Y-50033000D01*
X145727000Y-50053000D01*
X146920155Y-50053000D01*
X147041476Y-49823110D01*
X146996825Y-49675901D01*
X146871641Y-49413080D01*
X146697588Y-49179731D01*
X146481355Y-48984822D01*
X146364466Y-48915195D01*
X146546632Y-48793475D01*
X146753475Y-48586632D01*
X146915990Y-48343411D01*
X147027932Y-48073158D01*
X147085000Y-47786260D01*
X147085000Y-47493740D01*
X147027932Y-47206842D01*
X146915990Y-46936589D01*
X146753475Y-46693368D01*
X146546632Y-46486525D01*
X146372240Y-46370000D01*
X146546632Y-46253475D01*
X146753475Y-46046632D01*
X146915990Y-45803411D01*
X147027932Y-45533158D01*
X147085000Y-45246260D01*
X147085000Y-44953740D01*
X147027932Y-44666842D01*
X146915990Y-44396589D01*
X146753475Y-44153368D01*
X146546632Y-43946525D01*
X146372240Y-43830000D01*
X146546632Y-43713475D01*
X146753475Y-43506632D01*
X146915990Y-43263411D01*
X147027932Y-42993158D01*
X147085000Y-42706260D01*
X147085000Y-42413740D01*
X147027932Y-42126842D01*
X146915990Y-41856589D01*
X146753475Y-41613368D01*
X146546632Y-41406525D01*
X146372240Y-41290000D01*
X146546632Y-41173475D01*
X146753475Y-40966632D01*
X146915990Y-40723411D01*
X147027932Y-40453158D01*
X147085000Y-40166260D01*
X147085000Y-39873740D01*
X147027932Y-39586842D01*
X146915990Y-39316589D01*
X146753475Y-39073368D01*
X146546632Y-38866525D01*
X146372240Y-38750000D01*
X146546632Y-38633475D01*
X146753475Y-38426632D01*
X146915990Y-38183411D01*
X147027932Y-37913158D01*
X147085000Y-37626260D01*
X147085000Y-37333740D01*
X147027932Y-37046842D01*
X146915990Y-36776589D01*
X146753475Y-36533368D01*
X146546632Y-36326525D01*
X146372240Y-36210000D01*
X146546632Y-36093475D01*
X146753475Y-35886632D01*
X146915990Y-35643411D01*
X147027932Y-35373158D01*
X147085000Y-35086260D01*
X147085000Y-34793740D01*
X147027932Y-34506842D01*
X146915990Y-34236589D01*
X146753475Y-33993368D01*
X146546632Y-33786525D01*
X146372240Y-33670000D01*
X146546632Y-33553475D01*
X146753475Y-33346632D01*
X146915990Y-33103411D01*
X147027932Y-32833158D01*
X147085000Y-32546260D01*
X147085000Y-32253740D01*
X147027932Y-31966842D01*
X146915990Y-31696589D01*
X146753475Y-31453368D01*
X146546632Y-31246525D01*
X146372240Y-31130000D01*
X146546632Y-31013475D01*
X146753475Y-30806632D01*
X146915990Y-30563411D01*
X147027932Y-30293158D01*
X147085000Y-30006260D01*
X147085000Y-29713740D01*
X147027932Y-29426842D01*
X146915990Y-29156589D01*
X146753475Y-28913368D01*
X146546632Y-28706525D01*
X146372240Y-28590000D01*
X146546632Y-28473475D01*
X146753475Y-28266632D01*
X146915990Y-28023411D01*
X147027932Y-27753158D01*
X147085000Y-27466260D01*
X147085000Y-27173740D01*
X147027932Y-26886842D01*
X146915990Y-26616589D01*
X146753475Y-26373368D01*
X146546632Y-26166525D01*
X146372240Y-26050000D01*
X146546632Y-25933475D01*
X146753475Y-25726632D01*
X146915990Y-25483411D01*
X147027932Y-25213158D01*
X147085000Y-24926260D01*
X147085000Y-24633740D01*
X147027932Y-24346842D01*
X146915990Y-24076589D01*
X146753475Y-23833368D01*
X146546632Y-23626525D01*
X146372240Y-23510000D01*
X146546632Y-23393475D01*
X146753475Y-23186632D01*
X146915990Y-22943411D01*
X147027932Y-22673158D01*
X147085000Y-22386260D01*
X147085000Y-22093740D01*
X147027932Y-21806842D01*
X146915990Y-21536589D01*
X146753475Y-21293368D01*
X146546632Y-21086525D01*
X146372240Y-20970000D01*
X146546632Y-20853475D01*
X146753475Y-20646632D01*
X146915990Y-20403411D01*
X147027932Y-20133158D01*
X147085000Y-19846260D01*
X147085000Y-19553740D01*
X147027932Y-19266842D01*
X146915990Y-18996589D01*
X146753475Y-18753368D01*
X146546632Y-18546525D01*
X146372240Y-18430000D01*
X146546632Y-18313475D01*
X146753475Y-18106632D01*
X146915990Y-17863411D01*
X147027932Y-17593158D01*
X147085000Y-17306260D01*
X147085000Y-17013740D01*
X147027932Y-16726842D01*
X146915990Y-16456589D01*
X146753475Y-16213368D01*
X146621620Y-16081513D01*
X146694180Y-16059502D01*
X146804494Y-16000537D01*
X146901185Y-15921185D01*
X146980537Y-15824494D01*
X147039502Y-15714180D01*
X147075812Y-15594482D01*
X147088072Y-15470000D01*
X147088072Y-13770000D01*
X147075812Y-13645518D01*
X147039502Y-13525820D01*
X146980537Y-13415506D01*
X146901185Y-13318815D01*
X146804494Y-13239463D01*
X146694180Y-13180498D01*
X146574482Y-13144188D01*
X146450000Y-13131928D01*
X144750000Y-13131928D01*
X144625518Y-13144188D01*
X144505820Y-13180498D01*
X144395506Y-13239463D01*
X144298815Y-13318815D01*
X144219463Y-13415506D01*
X144160498Y-13525820D01*
X144124188Y-13645518D01*
X144111928Y-13770000D01*
X144111928Y-14997915D01*
X143490185Y-15619658D01*
X143460237Y-15644236D01*
X143435659Y-15674184D01*
X143435655Y-15674188D01*
X143434989Y-15675000D01*
X143362139Y-15763767D01*
X143353319Y-15780269D01*
X143289246Y-15900141D01*
X143244359Y-16048114D01*
X143229203Y-16202000D01*
X143233001Y-16240562D01*
X143233000Y-17708842D01*
X140644843Y-20297000D01*
X137231158Y-20297000D01*
X136296374Y-19362216D01*
X136281068Y-19285271D01*
X136210586Y-19115111D01*
X136108262Y-18961972D01*
X135978028Y-18831738D01*
X135824889Y-18729414D01*
X135654729Y-18658932D01*
X135474089Y-18623000D01*
X135289911Y-18623000D01*
X135109271Y-18658932D01*
X134939111Y-18729414D01*
X134785972Y-18831738D01*
X134655738Y-18961972D01*
X134553414Y-19115111D01*
X134482932Y-19285271D01*
X134447000Y-19465911D01*
X134447000Y-19650089D01*
X134482932Y-19830729D01*
X134553414Y-20000889D01*
X134655738Y-20154028D01*
X134694710Y-20193000D01*
X134655738Y-20231972D01*
X134553414Y-20385111D01*
X134482932Y-20555271D01*
X134447000Y-20735911D01*
X134447000Y-20920089D01*
X134482932Y-21100729D01*
X134553414Y-21270889D01*
X134655738Y-21424028D01*
X134694710Y-21463000D01*
X134655738Y-21501972D01*
X134553414Y-21655111D01*
X134482932Y-21825271D01*
X134447000Y-22005911D01*
X134447000Y-22190089D01*
X134482932Y-22370729D01*
X134553414Y-22540889D01*
X134655738Y-22694028D01*
X134694710Y-22733000D01*
X134655738Y-22771972D01*
X134553414Y-22925111D01*
X134482932Y-23095271D01*
X134447000Y-23275911D01*
X134447000Y-23460089D01*
X134482932Y-23640729D01*
X134553414Y-23810889D01*
X134655738Y-23964028D01*
X134694710Y-24003000D01*
X134655738Y-24041972D01*
X134553414Y-24195111D01*
X134482932Y-24365271D01*
X134447000Y-24545911D01*
X134447000Y-24730089D01*
X134482932Y-24910729D01*
X134553414Y-25080889D01*
X134655738Y-25234028D01*
X134694710Y-25273000D01*
X134655738Y-25311972D01*
X134553414Y-25465111D01*
X134482932Y-25635271D01*
X134447000Y-25815911D01*
X134447000Y-26000089D01*
X134482932Y-26180729D01*
X134553414Y-26350889D01*
X134655738Y-26504028D01*
X134694710Y-26543000D01*
X134655738Y-26581972D01*
X134553414Y-26735111D01*
X134482932Y-26905271D01*
X134447000Y-27085911D01*
X134447000Y-27270089D01*
X134482932Y-27450729D01*
X134553414Y-27620889D01*
X134655738Y-27774028D01*
X134785972Y-27904262D01*
X134939111Y-28006586D01*
X135109271Y-28077068D01*
X135289911Y-28113000D01*
X135465826Y-28113000D01*
X135415000Y-28368514D01*
X135415000Y-28631486D01*
X135466304Y-28889405D01*
X135536031Y-29057741D01*
X135470028Y-28991738D01*
X135316889Y-28889414D01*
X135146729Y-28818932D01*
X134966089Y-28783000D01*
X134781911Y-28783000D01*
X134601271Y-28818932D01*
X134431111Y-28889414D01*
X134277972Y-28991738D01*
X134147738Y-29121972D01*
X134045414Y-29275111D01*
X133974932Y-29445271D01*
X133939000Y-29625911D01*
X133939000Y-29810089D01*
X133974932Y-29990729D01*
X134045414Y-30160889D01*
X134089000Y-30226121D01*
X134089001Y-31457438D01*
X134085203Y-31496000D01*
X134100359Y-31649886D01*
X134145246Y-31797859D01*
X134161670Y-31828586D01*
X134218139Y-31934233D01*
X134240737Y-31961768D01*
X134291655Y-32023812D01*
X134291659Y-32023816D01*
X134316237Y-32053764D01*
X134346185Y-32078342D01*
X134502843Y-32235000D01*
X133421158Y-32235000D01*
X131978374Y-30792216D01*
X131963068Y-30715271D01*
X131892586Y-30545111D01*
X131790262Y-30391972D01*
X131660028Y-30261738D01*
X131506889Y-30159414D01*
X131336729Y-30088932D01*
X131156089Y-30053000D01*
X130971911Y-30053000D01*
X130791271Y-30088932D01*
X130621111Y-30159414D01*
X130467972Y-30261738D01*
X130337738Y-30391972D01*
X130235414Y-30545111D01*
X130164932Y-30715271D01*
X130129000Y-30895911D01*
X130129000Y-31080089D01*
X130164932Y-31260729D01*
X130235414Y-31430889D01*
X130337738Y-31584028D01*
X130467972Y-31714262D01*
X130621111Y-31816586D01*
X130791271Y-31887068D01*
X130868216Y-31902374D01*
X132513658Y-33547816D01*
X132538236Y-33577764D01*
X132568184Y-33602342D01*
X132568187Y-33602345D01*
X132578981Y-33611203D01*
X132657767Y-33675862D01*
X132785506Y-33744139D01*
X132794140Y-33748754D01*
X132827916Y-33759000D01*
X131643158Y-33759000D01*
X130962374Y-33078216D01*
X130947068Y-33001271D01*
X130876586Y-32831111D01*
X130774262Y-32677972D01*
X130644028Y-32547738D01*
X130490889Y-32445414D01*
X130320729Y-32374932D01*
X130140089Y-32339000D01*
X129955911Y-32339000D01*
X129775271Y-32374932D01*
X129605111Y-32445414D01*
X129451972Y-32547738D01*
X129321738Y-32677972D01*
X129286000Y-32731458D01*
X129250262Y-32677972D01*
X129120028Y-32547738D01*
X128966889Y-32445414D01*
X128796729Y-32374932D01*
X128616089Y-32339000D01*
X128431911Y-32339000D01*
X128251271Y-32374932D01*
X128081111Y-32445414D01*
X128016000Y-32488920D01*
X127950889Y-32445414D01*
X127780729Y-32374932D01*
X127600089Y-32339000D01*
X127415911Y-32339000D01*
X127235271Y-32374932D01*
X127065111Y-32445414D01*
X126911972Y-32547738D01*
X126781738Y-32677972D01*
X126679414Y-32831111D01*
X126608932Y-33001271D01*
X126573000Y-33181911D01*
X126573000Y-33366089D01*
X126608932Y-33546729D01*
X126679414Y-33716889D01*
X126781738Y-33870028D01*
X126911972Y-34000262D01*
X127065111Y-34102586D01*
X127235271Y-34173068D01*
X127312217Y-34188374D01*
X129457663Y-36333820D01*
X129482246Y-36363774D01*
X129601777Y-36461872D01*
X129699088Y-36513885D01*
X129738150Y-36534764D01*
X129886123Y-36579652D01*
X129961036Y-36587030D01*
X130001449Y-36591010D01*
X130001454Y-36591010D01*
X130040010Y-36594807D01*
X130078566Y-36591010D01*
X135799133Y-36591010D01*
X135754774Y-36698102D01*
X135715000Y-36898061D01*
X135715000Y-37101939D01*
X135754774Y-37301898D01*
X135832795Y-37490256D01*
X135865000Y-37538455D01*
X135865001Y-39711544D01*
X135832795Y-39759744D01*
X135754774Y-39948102D01*
X135715000Y-40148061D01*
X135715000Y-40351939D01*
X135754774Y-40551898D01*
X135832795Y-40740256D01*
X135946063Y-40909774D01*
X136090226Y-41053937D01*
X136181613Y-41115000D01*
X135176464Y-41115000D01*
X135149068Y-40977271D01*
X135078586Y-40807111D01*
X134976262Y-40653972D01*
X134846028Y-40523738D01*
X134692889Y-40421414D01*
X134522729Y-40350932D01*
X134342089Y-40315000D01*
X134157911Y-40315000D01*
X133977271Y-40350932D01*
X133807111Y-40421414D01*
X133741880Y-40465000D01*
X127863169Y-40465000D01*
X127683169Y-40285000D01*
X127792089Y-40285000D01*
X127972729Y-40249068D01*
X128142889Y-40178586D01*
X128296028Y-40076262D01*
X128426262Y-39946028D01*
X128528586Y-39792889D01*
X128599068Y-39622729D01*
X128626464Y-39485000D01*
X130791880Y-39485000D01*
X130857111Y-39528586D01*
X131027271Y-39599068D01*
X131207911Y-39635000D01*
X131392089Y-39635000D01*
X131572729Y-39599068D01*
X131742889Y-39528586D01*
X131896028Y-39426262D01*
X132026262Y-39296028D01*
X132128586Y-39142889D01*
X132199068Y-38972729D01*
X132235000Y-38792089D01*
X132235000Y-38785000D01*
X134391880Y-38785000D01*
X134457111Y-38828586D01*
X134627271Y-38899068D01*
X134807911Y-38935000D01*
X134992089Y-38935000D01*
X135172729Y-38899068D01*
X135342889Y-38828586D01*
X135496028Y-38726262D01*
X135626262Y-38596028D01*
X135728586Y-38442889D01*
X135799068Y-38272729D01*
X135835000Y-38092089D01*
X135835000Y-37907911D01*
X135799068Y-37727271D01*
X135728586Y-37557111D01*
X135626262Y-37403972D01*
X135496028Y-37273738D01*
X135342889Y-37171414D01*
X135172729Y-37100932D01*
X134992089Y-37065000D01*
X134807911Y-37065000D01*
X134627271Y-37100932D01*
X134457111Y-37171414D01*
X134391880Y-37215000D01*
X121508120Y-37215000D01*
X121442889Y-37171414D01*
X121272729Y-37100932D01*
X121092089Y-37065000D01*
X120907911Y-37065000D01*
X120727271Y-37100932D01*
X120557111Y-37171414D01*
X120403972Y-37273738D01*
X120350000Y-37327710D01*
X120296028Y-37273738D01*
X120142889Y-37171414D01*
X119972729Y-37100932D01*
X119792089Y-37065000D01*
X119607911Y-37065000D01*
X119427271Y-37100932D01*
X119257111Y-37171414D01*
X119103972Y-37273738D01*
X119040843Y-37336867D01*
X118942894Y-37271419D01*
X118772734Y-37200937D01*
X118592094Y-37165005D01*
X118407916Y-37165005D01*
X118227276Y-37200937D01*
X118057116Y-37271419D01*
X117991885Y-37315005D01*
X110895152Y-37315005D01*
X112125157Y-36085000D01*
X115291880Y-36085000D01*
X115357111Y-36128586D01*
X115527271Y-36199068D01*
X115707911Y-36235000D01*
X115892089Y-36235000D01*
X116072729Y-36199068D01*
X116242889Y-36128586D01*
X116396028Y-36026262D01*
X116526262Y-35896028D01*
X116628586Y-35742889D01*
X116699068Y-35572729D01*
X116735000Y-35392089D01*
X116735000Y-35207911D01*
X116699068Y-35027271D01*
X116628586Y-34857111D01*
X116526262Y-34703972D01*
X116396028Y-34573738D01*
X116242889Y-34471414D01*
X116072729Y-34400932D01*
X115892089Y-34365000D01*
X115707911Y-34365000D01*
X115527271Y-34400932D01*
X115357111Y-34471414D01*
X115291880Y-34515000D01*
X112095158Y-34515000D01*
X112325158Y-34285000D01*
X116691880Y-34285000D01*
X116757111Y-34328586D01*
X116927271Y-34399068D01*
X117107911Y-34435000D01*
X117292089Y-34435000D01*
X117472729Y-34399068D01*
X117642889Y-34328586D01*
X117796028Y-34226262D01*
X117926262Y-34096028D01*
X118028586Y-33942889D01*
X118099068Y-33772729D01*
X118135000Y-33592089D01*
X118135000Y-33407911D01*
X118099068Y-33227271D01*
X118028586Y-33057111D01*
X117926262Y-32903972D01*
X117796028Y-32773738D01*
X117642889Y-32671414D01*
X117472729Y-32600932D01*
X117292089Y-32565000D01*
X117107911Y-32565000D01*
X116927271Y-32600932D01*
X116757111Y-32671414D01*
X116691880Y-32715000D01*
X113095157Y-32715000D01*
X114025157Y-31785000D01*
X116691880Y-31785000D01*
X116757111Y-31828586D01*
X116927271Y-31899068D01*
X117107911Y-31935000D01*
X117292089Y-31935000D01*
X117472729Y-31899068D01*
X117642889Y-31828586D01*
X117796028Y-31726262D01*
X117926262Y-31596028D01*
X118028586Y-31442889D01*
X118099068Y-31272729D01*
X118135000Y-31092089D01*
X118135000Y-30907911D01*
X118099068Y-30727271D01*
X118028586Y-30557111D01*
X117926262Y-30403972D01*
X117796028Y-30273738D01*
X117642889Y-30171414D01*
X117472729Y-30100932D01*
X117292089Y-30065000D01*
X117107911Y-30065000D01*
X116927271Y-30100932D01*
X116757111Y-30171414D01*
X116691880Y-30215000D01*
X113738556Y-30215000D01*
X113700000Y-30211203D01*
X113661444Y-30215000D01*
X113661439Y-30215000D01*
X113621026Y-30218980D01*
X113546113Y-30226358D01*
X113398140Y-30271246D01*
X113261767Y-30344138D01*
X113142236Y-30442236D01*
X113117653Y-30472190D01*
X112884999Y-30704844D01*
X112884999Y-27045000D01*
X115401445Y-27045000D01*
X115439998Y-27048797D01*
X115478551Y-27045000D01*
X115478559Y-27045000D01*
X115593885Y-27033641D01*
X115741858Y-26988754D01*
X115878231Y-26915862D01*
X115997762Y-26817764D01*
X116022345Y-26787810D01*
X117295783Y-25514372D01*
X117372728Y-25499067D01*
X117542888Y-25428585D01*
X117696027Y-25326261D01*
X117826261Y-25196027D01*
X117928585Y-25042888D01*
X117999067Y-24872728D01*
X118034999Y-24692088D01*
X118034999Y-24507910D01*
X117999067Y-24327270D01*
X117940137Y-24185000D01*
X118391880Y-24185000D01*
X118457111Y-24228586D01*
X118627271Y-24299068D01*
X118807911Y-24335000D01*
X118992089Y-24335000D01*
X119172729Y-24299068D01*
X119342889Y-24228586D01*
X119496028Y-24126262D01*
X119626262Y-23996028D01*
X119728586Y-23842889D01*
X119799068Y-23672729D01*
X119835000Y-23492089D01*
X119835000Y-23307911D01*
X119799068Y-23127271D01*
X119728586Y-22957111D01*
X119711263Y-22931186D01*
X119872729Y-22899068D01*
X120042889Y-22828586D01*
X120196028Y-22726262D01*
X120326262Y-22596028D01*
X120428586Y-22442889D01*
X120499068Y-22272729D01*
X120535000Y-22092089D01*
X120535000Y-21907911D01*
X120499068Y-21727271D01*
X120428586Y-21557111D01*
X120326262Y-21403972D01*
X120196028Y-21273738D01*
X120042889Y-21171414D01*
X119872729Y-21100932D01*
X119692089Y-21065000D01*
X119507911Y-21065000D01*
X119327271Y-21100932D01*
X119157111Y-21171414D01*
X119091880Y-21215000D01*
X117608119Y-21215000D01*
X117542888Y-21171414D01*
X117372728Y-21100932D01*
X117192088Y-21065000D01*
X117007910Y-21065000D01*
X116827270Y-21100932D01*
X116657110Y-21171414D01*
X116503971Y-21273738D01*
X116373737Y-21403972D01*
X116271413Y-21557111D01*
X116200931Y-21727271D01*
X116164999Y-21907911D01*
X116164999Y-22092089D01*
X116200931Y-22272729D01*
X116271413Y-22442889D01*
X116373737Y-22596028D01*
X116477709Y-22700000D01*
X116373737Y-22803972D01*
X116271413Y-22957111D01*
X116200931Y-23127271D01*
X116164999Y-23307911D01*
X116164999Y-23492089D01*
X116200931Y-23672729D01*
X116271413Y-23842889D01*
X116373737Y-23996028D01*
X116377709Y-24000000D01*
X116373737Y-24003971D01*
X116271413Y-24157110D01*
X116200931Y-24327270D01*
X116185626Y-24404215D01*
X115114841Y-25475000D01*
X112178555Y-25475000D01*
X112140000Y-25471203D01*
X112101445Y-25475000D01*
X112061474Y-25475000D01*
X111953475Y-25313368D01*
X111746632Y-25106525D01*
X111503411Y-24944010D01*
X111233158Y-24832068D01*
X110946260Y-24775000D01*
X110653740Y-24775000D01*
X110366842Y-24832068D01*
X110096589Y-24944010D01*
X109853368Y-25106525D01*
X109685025Y-25274868D01*
X108795154Y-24384997D01*
X109561450Y-24384997D01*
X109600003Y-24388794D01*
X109638556Y-24384997D01*
X109638564Y-24384997D01*
X109753890Y-24373638D01*
X109901863Y-24328751D01*
X110038236Y-24255859D01*
X110157767Y-24157761D01*
X110182350Y-24127807D01*
X110422085Y-23888072D01*
X111650000Y-23888072D01*
X111774482Y-23875812D01*
X111894180Y-23839502D01*
X112004494Y-23780537D01*
X112101185Y-23701185D01*
X112180537Y-23604494D01*
X112239502Y-23494180D01*
X112275812Y-23374482D01*
X112288072Y-23250000D01*
X112288072Y-21550000D01*
X112275812Y-21425518D01*
X112239502Y-21305820D01*
X112180537Y-21195506D01*
X112101185Y-21098815D01*
X112004494Y-21019463D01*
X111894180Y-20960498D01*
X111821620Y-20938487D01*
X111953475Y-20806632D01*
X112061474Y-20645000D01*
X118332015Y-20645000D01*
X118457111Y-20728586D01*
X118627271Y-20799068D01*
X118807911Y-20835000D01*
X118992089Y-20835000D01*
X119172729Y-20799068D01*
X119342889Y-20728586D01*
X119496028Y-20626262D01*
X119626262Y-20496028D01*
X119728586Y-20342889D01*
X119799068Y-20172729D01*
X119835000Y-19992089D01*
X119835000Y-19807911D01*
X119799068Y-19627271D01*
X119728586Y-19457111D01*
X119626262Y-19303972D01*
X119496028Y-19173738D01*
X119342889Y-19071414D01*
X119172729Y-19000932D01*
X118992089Y-18965000D01*
X118807911Y-18965000D01*
X118627271Y-19000932D01*
X118457111Y-19071414D01*
X118451744Y-19075000D01*
X112061474Y-19075000D01*
X111953475Y-18913368D01*
X111746632Y-18706525D01*
X111572240Y-18590000D01*
X111746632Y-18473475D01*
X111953475Y-18266632D01*
X112061474Y-18105000D01*
X119121812Y-18105000D01*
X119157111Y-18128586D01*
X119327271Y-18199068D01*
X119507911Y-18235000D01*
X119692089Y-18235000D01*
X119872729Y-18199068D01*
X120042889Y-18128586D01*
X120196028Y-18026262D01*
X120326262Y-17896028D01*
X120428586Y-17742889D01*
X120499068Y-17572729D01*
X120535000Y-17392089D01*
X120535000Y-17207911D01*
X120499068Y-17027271D01*
X120457080Y-16925902D01*
X128604991Y-16925902D01*
X128604991Y-17110080D01*
X128640923Y-17290720D01*
X128711405Y-17460880D01*
X128813729Y-17614019D01*
X128943963Y-17744253D01*
X129097102Y-17846577D01*
X129267262Y-17917059D01*
X129447902Y-17952991D01*
X129632080Y-17952991D01*
X129812720Y-17917059D01*
X129982880Y-17846577D01*
X130048098Y-17803000D01*
X138683878Y-17803000D01*
X138749109Y-17846586D01*
X138919269Y-17917068D01*
X139099909Y-17953000D01*
X139284087Y-17953000D01*
X139464727Y-17917068D01*
X139634887Y-17846586D01*
X139788026Y-17744262D01*
X139918260Y-17614028D01*
X140020584Y-17460889D01*
X140091066Y-17290729D01*
X140126998Y-17110089D01*
X140126998Y-16925911D01*
X140091066Y-16745271D01*
X140020584Y-16575111D01*
X139918260Y-16421972D01*
X139788026Y-16291738D01*
X139634887Y-16189414D01*
X139464727Y-16118932D01*
X139284087Y-16083000D01*
X139099909Y-16083000D01*
X138919269Y-16118932D01*
X138749109Y-16189414D01*
X138683878Y-16233000D01*
X130048125Y-16233000D01*
X129982880Y-16189405D01*
X129812720Y-16118923D01*
X129632080Y-16082991D01*
X129447902Y-16082991D01*
X129267262Y-16118923D01*
X129097102Y-16189405D01*
X128943963Y-16291729D01*
X128813729Y-16421963D01*
X128711405Y-16575102D01*
X128640923Y-16745262D01*
X128604991Y-16925902D01*
X120457080Y-16925902D01*
X120428586Y-16857111D01*
X120326262Y-16703972D01*
X120196028Y-16573738D01*
X120042889Y-16471414D01*
X119872729Y-16400932D01*
X119692089Y-16365000D01*
X119507911Y-16365000D01*
X119327271Y-16400932D01*
X119157111Y-16471414D01*
X119061948Y-16535000D01*
X112061474Y-16535000D01*
X111953475Y-16373368D01*
X111746632Y-16166525D01*
X111564466Y-16044805D01*
X111681355Y-15975178D01*
X111897588Y-15780269D01*
X112071641Y-15546920D01*
X112196825Y-15284099D01*
X112241476Y-15136890D01*
X112120155Y-14907000D01*
X110927000Y-14907000D01*
X110927000Y-14927000D01*
X110673000Y-14927000D01*
X110673000Y-14907000D01*
X109479845Y-14907000D01*
X109358524Y-15136890D01*
X109403175Y-15284099D01*
X109528359Y-15546920D01*
X109702412Y-15780269D01*
X109918645Y-15975178D01*
X110035534Y-16044805D01*
X109853368Y-16166525D01*
X109646525Y-16373368D01*
X109484010Y-16616589D01*
X109372068Y-16886842D01*
X109315000Y-17173740D01*
X109315000Y-17466260D01*
X109352924Y-17656918D01*
X108162687Y-18847155D01*
X108153475Y-18833368D01*
X107946632Y-18626525D01*
X107772240Y-18510000D01*
X107946632Y-18393475D01*
X108153475Y-18186632D01*
X108315990Y-17943411D01*
X108427932Y-17673158D01*
X108485000Y-17386260D01*
X108485000Y-17093740D01*
X108427932Y-16806842D01*
X108315990Y-16536589D01*
X108153475Y-16293368D01*
X107946632Y-16086525D01*
X107772240Y-15970000D01*
X107946632Y-15853475D01*
X108153475Y-15646632D01*
X108315990Y-15403411D01*
X108427932Y-15133158D01*
X108485000Y-14846260D01*
X108485000Y-14553740D01*
X108459016Y-14423110D01*
X109358524Y-14423110D01*
X109479845Y-14653000D01*
X110673000Y-14653000D01*
X110673000Y-13459186D01*
X110927000Y-13459186D01*
X110927000Y-14653000D01*
X112120155Y-14653000D01*
X112241476Y-14423110D01*
X112196825Y-14275901D01*
X112071641Y-14013080D01*
X111897588Y-13779731D01*
X111681355Y-13584822D01*
X111431252Y-13435843D01*
X111156891Y-13338519D01*
X110927000Y-13459186D01*
X110673000Y-13459186D01*
X110443109Y-13338519D01*
X110168748Y-13435843D01*
X109918645Y-13584822D01*
X109702412Y-13779731D01*
X109528359Y-14013080D01*
X109403175Y-14275901D01*
X109358524Y-14423110D01*
X108459016Y-14423110D01*
X108427932Y-14266842D01*
X108315990Y-13996589D01*
X108153475Y-13753368D01*
X107946632Y-13546525D01*
X107703411Y-13384010D01*
X107433158Y-13272068D01*
X107146260Y-13215000D01*
X106853740Y-13215000D01*
X106566842Y-13272068D01*
X106296589Y-13384010D01*
X106053368Y-13546525D01*
X105846525Y-13753368D01*
X105684010Y-13996589D01*
X105572068Y-14266842D01*
X105515000Y-14553740D01*
X105515000Y-14846260D01*
X105572068Y-15133158D01*
X105684010Y-15403411D01*
X105846525Y-15646632D01*
X106053368Y-15853475D01*
X106227760Y-15970000D01*
X106053368Y-16086525D01*
X105846525Y-16293368D01*
X105684010Y-16536589D01*
X105572068Y-16806842D01*
X105515000Y-17093740D01*
X105515000Y-17386260D01*
X105572068Y-17673158D01*
X105684010Y-17943411D01*
X105846525Y-18186632D01*
X106053368Y-18393475D01*
X106227760Y-18510000D01*
X106053368Y-18626525D01*
X105846525Y-18833368D01*
X105684010Y-19076589D01*
X105572068Y-19346842D01*
X105515000Y-19633740D01*
X105515000Y-19926260D01*
X105572068Y-20213158D01*
X105684010Y-20483411D01*
X105846525Y-20726632D01*
X106053368Y-20933475D01*
X106227760Y-21050000D01*
X106053368Y-21166525D01*
X105846525Y-21373368D01*
X105684010Y-21616589D01*
X105572068Y-21886842D01*
X105515000Y-22173740D01*
X105515000Y-22466260D01*
X105572068Y-22753158D01*
X105597682Y-22814997D01*
X105538559Y-22814997D01*
X105500003Y-22811200D01*
X105461447Y-22814997D01*
X105461442Y-22814997D01*
X105421029Y-22818977D01*
X105346116Y-22826355D01*
X105198143Y-22871243D01*
X105061770Y-22944135D01*
X104942239Y-23042233D01*
X104917658Y-23072185D01*
X104604217Y-23385626D01*
X104527271Y-23400932D01*
X104357111Y-23471414D01*
X104292000Y-23514920D01*
X104292000Y-12573000D01*
X147676001Y-12573000D01*
X147676000Y-67365000D01*
%TA.AperFunction,Conductor*%
D23*
G36*
X147676000Y-67365000D02*
G01*
X131135000Y-67365000D01*
X131135000Y-65750000D01*
X131122799Y-65626118D01*
X131086664Y-65506996D01*
X131027983Y-65397213D01*
X130949013Y-65300987D01*
X130852787Y-65222017D01*
X130743004Y-65163336D01*
X130623882Y-65127201D01*
X130500000Y-65115000D01*
X120800000Y-65115000D01*
X120676118Y-65127201D01*
X120556996Y-65163336D01*
X120447213Y-65222017D01*
X120350987Y-65300987D01*
X120272017Y-65397213D01*
X120213336Y-65506996D01*
X120177201Y-65626118D01*
X120165000Y-65750000D01*
X120165000Y-66914999D01*
X118946475Y-66914999D01*
X118919068Y-66777214D01*
X118848586Y-66607054D01*
X118805000Y-66541823D01*
X118805000Y-65238120D01*
X118848586Y-65172889D01*
X118919068Y-65002729D01*
X118955000Y-64822089D01*
X118955000Y-64637911D01*
X118919068Y-64457271D01*
X118848586Y-64287111D01*
X118746262Y-64133972D01*
X118616028Y-64003738D01*
X118462889Y-63901414D01*
X118454795Y-63898061D01*
X124965000Y-63898061D01*
X124965000Y-64101939D01*
X125004774Y-64301898D01*
X125082795Y-64490256D01*
X125196063Y-64659774D01*
X125340226Y-64803937D01*
X125509744Y-64917205D01*
X125698102Y-64995226D01*
X125898061Y-65035000D01*
X126101939Y-65035000D01*
X126301898Y-64995226D01*
X126490256Y-64917205D01*
X126538454Y-64885000D01*
X135961546Y-64885000D01*
X136009744Y-64917205D01*
X136198102Y-64995226D01*
X136398061Y-65035000D01*
X136601939Y-65035000D01*
X136801898Y-64995226D01*
X136990256Y-64917205D01*
X137159774Y-64803937D01*
X137303937Y-64659774D01*
X137417205Y-64490256D01*
X137495226Y-64301898D01*
X137535000Y-64101939D01*
X137535000Y-63898061D01*
X137495226Y-63698102D01*
X137417205Y-63509744D01*
X137303937Y-63340226D01*
X137200601Y-63236890D01*
X144158524Y-63236890D01*
X144203175Y-63384099D01*
X144328359Y-63646920D01*
X144502412Y-63880269D01*
X144718645Y-64075178D01*
X144968748Y-64224157D01*
X145243109Y-64321481D01*
X145473000Y-64200814D01*
X145473000Y-63007000D01*
X145727000Y-63007000D01*
X145727000Y-64200814D01*
X145956891Y-64321481D01*
X146231252Y-64224157D01*
X146481355Y-64075178D01*
X146697588Y-63880269D01*
X146871641Y-63646920D01*
X146996825Y-63384099D01*
X147041476Y-63236890D01*
X146920155Y-63007000D01*
X145727000Y-63007000D01*
X145473000Y-63007000D01*
X144279845Y-63007000D01*
X144158524Y-63236890D01*
X137200601Y-63236890D01*
X137159774Y-63196063D01*
X136990256Y-63082795D01*
X136801898Y-63004774D01*
X136601939Y-62965000D01*
X136398061Y-62965000D01*
X136198102Y-63004774D01*
X136009744Y-63082795D01*
X135961546Y-63115000D01*
X126538454Y-63115000D01*
X126490256Y-63082795D01*
X126301898Y-63004774D01*
X126101939Y-62965000D01*
X125898061Y-62965000D01*
X125698102Y-63004774D01*
X125509744Y-63082795D01*
X125340226Y-63196063D01*
X125196063Y-63340226D01*
X125082795Y-63509744D01*
X125004774Y-63698102D01*
X124965000Y-63898061D01*
X118454795Y-63898061D01*
X118292729Y-63830932D01*
X118112089Y-63795000D01*
X117927911Y-63795000D01*
X117747271Y-63830932D01*
X117577111Y-63901414D01*
X117423972Y-64003738D01*
X117293738Y-64133972D01*
X117191414Y-64287111D01*
X117120932Y-64457271D01*
X117085000Y-64637911D01*
X117085000Y-64822089D01*
X117120932Y-65002729D01*
X117191414Y-65172889D01*
X117235000Y-65238121D01*
X117235001Y-66541822D01*
X117191414Y-66607054D01*
X117120932Y-66777214D01*
X117093525Y-66914999D01*
X114862323Y-66914999D01*
X114825000Y-66911323D01*
X114787677Y-66914999D01*
X114787668Y-66914999D01*
X114676015Y-66925996D01*
X114532754Y-66969453D01*
X114400725Y-67040025D01*
X114400723Y-67040026D01*
X114400724Y-67040026D01*
X114313997Y-67111200D01*
X114313993Y-67111204D01*
X114285000Y-67134998D01*
X114261206Y-67163991D01*
X114060197Y-67365000D01*
X104292000Y-67365000D01*
X104292000Y-63810000D01*
X105511928Y-63810000D01*
X105524188Y-63934482D01*
X105560498Y-64054180D01*
X105619463Y-64164494D01*
X105698815Y-64261185D01*
X105795506Y-64340537D01*
X105905820Y-64399502D01*
X106025518Y-64435812D01*
X106150000Y-64448072D01*
X106714250Y-64445000D01*
X106873000Y-64286250D01*
X106873000Y-63087000D01*
X107127000Y-63087000D01*
X107127000Y-64286250D01*
X107285750Y-64445000D01*
X107850000Y-64448072D01*
X107974482Y-64435812D01*
X108094180Y-64399502D01*
X108204494Y-64340537D01*
X108301185Y-64261185D01*
X108380537Y-64164494D01*
X108439502Y-64054180D01*
X108475812Y-63934482D01*
X108488072Y-63810000D01*
X108485000Y-63245750D01*
X108326250Y-63087000D01*
X107127000Y-63087000D01*
X106873000Y-63087000D01*
X105673750Y-63087000D01*
X105515000Y-63245750D01*
X105511928Y-63810000D01*
X104292000Y-63810000D01*
X104292000Y-25085080D01*
X104357111Y-25128586D01*
X104527271Y-25199068D01*
X104707911Y-25235000D01*
X104892089Y-25235000D01*
X105072729Y-25199068D01*
X105242889Y-25128586D01*
X105396028Y-25026262D01*
X105515000Y-24907290D01*
X105515000Y-25006260D01*
X105572068Y-25293158D01*
X105684010Y-25563411D01*
X105846525Y-25806632D01*
X106053368Y-26013475D01*
X106227760Y-26130000D01*
X106053368Y-26246525D01*
X105846525Y-26453368D01*
X105684010Y-26696589D01*
X105572068Y-26966842D01*
X105515000Y-27253740D01*
X105515000Y-27546260D01*
X105572068Y-27833158D01*
X105684010Y-28103411D01*
X105846525Y-28346632D01*
X106053368Y-28553475D01*
X106227760Y-28670000D01*
X106053368Y-28786525D01*
X105846525Y-28993368D01*
X105684010Y-29236589D01*
X105572068Y-29506842D01*
X105515000Y-29793740D01*
X105515000Y-30086260D01*
X105572068Y-30373158D01*
X105684010Y-30643411D01*
X105846525Y-30886632D01*
X106053368Y-31093475D01*
X106227760Y-31210000D01*
X106053368Y-31326525D01*
X105846525Y-31533368D01*
X105684010Y-31776589D01*
X105572068Y-32046842D01*
X105515000Y-32333740D01*
X105515000Y-32626260D01*
X105572068Y-32913158D01*
X105684010Y-33183411D01*
X105773100Y-33316743D01*
X105272184Y-33817659D01*
X105242236Y-33842237D01*
X105217658Y-33872185D01*
X105217654Y-33872189D01*
X105188321Y-33907932D01*
X105144138Y-33961768D01*
X105131060Y-33986236D01*
X105071245Y-34098142D01*
X105026358Y-34246115D01*
X105011202Y-34400001D01*
X105015000Y-34438563D01*
X105014999Y-36321446D01*
X105011202Y-36359999D01*
X105014999Y-36398552D01*
X105014999Y-36398559D01*
X105026358Y-36513885D01*
X105071245Y-36661858D01*
X105144137Y-36798231D01*
X105242235Y-36917763D01*
X105272189Y-36942346D01*
X105552925Y-37223082D01*
X105515000Y-37413740D01*
X105515000Y-37706260D01*
X105572068Y-37993158D01*
X105684010Y-38263411D01*
X105732981Y-38336701D01*
X105726236Y-38342236D01*
X105701649Y-38372195D01*
X105272185Y-38801658D01*
X105242236Y-38826237D01*
X105217658Y-38856185D01*
X105217654Y-38856189D01*
X105190900Y-38888789D01*
X105144138Y-38945768D01*
X105120497Y-38989998D01*
X105071245Y-39082142D01*
X105026358Y-39230115D01*
X105011202Y-39384001D01*
X105015000Y-39422564D01*
X105014999Y-41401446D01*
X105011202Y-41439999D01*
X105014999Y-41478552D01*
X105014999Y-41478559D01*
X105026358Y-41593885D01*
X105071245Y-41741858D01*
X105144137Y-41878231D01*
X105242235Y-41997763D01*
X105272189Y-42022346D01*
X105552925Y-42303082D01*
X105515000Y-42493740D01*
X105515000Y-42786260D01*
X105572068Y-43073158D01*
X105684010Y-43343411D01*
X105846525Y-43586632D01*
X106053368Y-43793475D01*
X106227760Y-43910000D01*
X106053368Y-44026525D01*
X105846525Y-44233368D01*
X105684010Y-44476589D01*
X105572068Y-44746842D01*
X105515000Y-45033740D01*
X105515000Y-45326260D01*
X105572068Y-45613158D01*
X105684010Y-45883411D01*
X105846525Y-46126632D01*
X106053368Y-46333475D01*
X106227760Y-46450000D01*
X106053368Y-46566525D01*
X105846525Y-46773368D01*
X105684010Y-47016589D01*
X105572068Y-47286842D01*
X105515000Y-47573740D01*
X105515000Y-47866260D01*
X105572068Y-48153158D01*
X105684010Y-48423411D01*
X105846525Y-48666632D01*
X106053368Y-48873475D01*
X106227760Y-48990000D01*
X106053368Y-49106525D01*
X105846525Y-49313368D01*
X105684010Y-49556589D01*
X105572068Y-49826842D01*
X105515000Y-50113740D01*
X105515000Y-50406260D01*
X105572068Y-50693158D01*
X105684010Y-50963411D01*
X105846525Y-51206632D01*
X106053368Y-51413475D01*
X106227760Y-51530000D01*
X106053368Y-51646525D01*
X105846525Y-51853368D01*
X105684010Y-52096589D01*
X105572068Y-52366842D01*
X105515000Y-52653740D01*
X105515000Y-52946260D01*
X105572068Y-53233158D01*
X105684010Y-53503411D01*
X105846525Y-53746632D01*
X106053368Y-53953475D01*
X106227760Y-54070000D01*
X106053368Y-54186525D01*
X105846525Y-54393368D01*
X105684010Y-54636589D01*
X105572068Y-54906842D01*
X105515000Y-55193740D01*
X105515000Y-55486260D01*
X105572068Y-55773158D01*
X105684010Y-56043411D01*
X105846525Y-56286632D01*
X106053368Y-56493475D01*
X106227760Y-56610000D01*
X106053368Y-56726525D01*
X105846525Y-56933368D01*
X105684010Y-57176589D01*
X105572068Y-57446842D01*
X105515000Y-57733740D01*
X105515000Y-58026260D01*
X105572068Y-58313158D01*
X105684010Y-58583411D01*
X105846525Y-58826632D01*
X106053368Y-59033475D01*
X106227760Y-59150000D01*
X106053368Y-59266525D01*
X105846525Y-59473368D01*
X105684010Y-59716589D01*
X105572068Y-59986842D01*
X105515000Y-60273740D01*
X105515000Y-60566260D01*
X105572068Y-60853158D01*
X105684010Y-61123411D01*
X105846525Y-61366632D01*
X105978380Y-61498487D01*
X105905820Y-61520498D01*
X105795506Y-61579463D01*
X105698815Y-61658815D01*
X105619463Y-61755506D01*
X105560498Y-61865820D01*
X105524188Y-61985518D01*
X105511928Y-62110000D01*
X105515000Y-62674250D01*
X105673750Y-62833000D01*
X106873000Y-62833000D01*
X106873000Y-62813000D01*
X107127000Y-62813000D01*
X107127000Y-62833000D01*
X108326250Y-62833000D01*
X108485000Y-62674250D01*
X108488072Y-62110000D01*
X108480036Y-62028397D01*
X114191208Y-62028397D01*
X114268843Y-62277472D01*
X114532883Y-62403371D01*
X114816411Y-62475339D01*
X115108531Y-62490611D01*
X115398019Y-62448599D01*
X115673747Y-62350919D01*
X115811157Y-62277472D01*
X115888792Y-62028397D01*
X116731208Y-62028397D01*
X116808843Y-62277472D01*
X117072883Y-62403371D01*
X117356411Y-62475339D01*
X117648531Y-62490611D01*
X117938019Y-62448599D01*
X118213747Y-62350919D01*
X118351157Y-62277472D01*
X118428792Y-62028397D01*
X119271208Y-62028397D01*
X119348843Y-62277472D01*
X119612883Y-62403371D01*
X119896411Y-62475339D01*
X120188531Y-62490611D01*
X120478019Y-62448599D01*
X120753747Y-62350919D01*
X120891157Y-62277472D01*
X120968792Y-62028397D01*
X121811208Y-62028397D01*
X121888843Y-62277472D01*
X122152883Y-62403371D01*
X122436411Y-62475339D01*
X122728531Y-62490611D01*
X123018019Y-62448599D01*
X123293747Y-62350919D01*
X123431157Y-62277472D01*
X123508792Y-62028397D01*
X124351208Y-62028397D01*
X124428843Y-62277472D01*
X124692883Y-62403371D01*
X124976411Y-62475339D01*
X125268531Y-62490611D01*
X125558019Y-62448599D01*
X125833747Y-62350919D01*
X125971157Y-62277472D01*
X126048792Y-62028397D01*
X126891208Y-62028397D01*
X126968843Y-62277472D01*
X127232883Y-62403371D01*
X127516411Y-62475339D01*
X127808531Y-62490611D01*
X128098019Y-62448599D01*
X128373747Y-62350919D01*
X128511157Y-62277472D01*
X128588792Y-62028397D01*
X129431208Y-62028397D01*
X129508843Y-62277472D01*
X129772883Y-62403371D01*
X130056411Y-62475339D01*
X130348531Y-62490611D01*
X130638019Y-62448599D01*
X130913747Y-62350919D01*
X131051157Y-62277472D01*
X131128792Y-62028397D01*
X131971208Y-62028397D01*
X132048843Y-62277472D01*
X132312883Y-62403371D01*
X132596411Y-62475339D01*
X132888531Y-62490611D01*
X133178019Y-62448599D01*
X133453747Y-62350919D01*
X133591157Y-62277472D01*
X133668792Y-62028397D01*
X134511208Y-62028397D01*
X134588843Y-62277472D01*
X134852883Y-62403371D01*
X135136411Y-62475339D01*
X135428531Y-62490611D01*
X135718019Y-62448599D01*
X135993747Y-62350919D01*
X136131157Y-62277472D01*
X136208792Y-62028397D01*
X135360000Y-61179605D01*
X134511208Y-62028397D01*
X133668792Y-62028397D01*
X132820000Y-61179605D01*
X131971208Y-62028397D01*
X131128792Y-62028397D01*
X130280000Y-61179605D01*
X129431208Y-62028397D01*
X128588792Y-62028397D01*
X127740000Y-61179605D01*
X126891208Y-62028397D01*
X126048792Y-62028397D01*
X125200000Y-61179605D01*
X124351208Y-62028397D01*
X123508792Y-62028397D01*
X122660000Y-61179605D01*
X121811208Y-62028397D01*
X120968792Y-62028397D01*
X120120000Y-61179605D01*
X119271208Y-62028397D01*
X118428792Y-62028397D01*
X117580000Y-61179605D01*
X116731208Y-62028397D01*
X115888792Y-62028397D01*
X115040000Y-61179605D01*
X114191208Y-62028397D01*
X108480036Y-62028397D01*
X108475812Y-61985518D01*
X108439502Y-61865820D01*
X108380537Y-61755506D01*
X108301185Y-61658815D01*
X108204494Y-61579463D01*
X108094180Y-61520498D01*
X108021620Y-61498487D01*
X108153475Y-61366632D01*
X108315990Y-61123411D01*
X108338721Y-61068531D01*
X113549389Y-61068531D01*
X113591401Y-61358019D01*
X113689081Y-61633747D01*
X113762528Y-61771157D01*
X114011603Y-61848792D01*
X114860395Y-61000000D01*
X115219605Y-61000000D01*
X116068397Y-61848792D01*
X116310000Y-61773486D01*
X116551603Y-61848792D01*
X117400395Y-61000000D01*
X117759605Y-61000000D01*
X118608397Y-61848792D01*
X118850000Y-61773486D01*
X119091603Y-61848792D01*
X119940395Y-61000000D01*
X120299605Y-61000000D01*
X121148397Y-61848792D01*
X121390000Y-61773486D01*
X121631603Y-61848792D01*
X122480395Y-61000000D01*
X121631603Y-60151208D01*
X121390000Y-60226514D01*
X121148397Y-60151208D01*
X120299605Y-61000000D01*
X119940395Y-61000000D01*
X119091603Y-60151208D01*
X118850000Y-60226514D01*
X118608397Y-60151208D01*
X117759605Y-61000000D01*
X117400395Y-61000000D01*
X116551603Y-60151208D01*
X116310000Y-60226514D01*
X116068397Y-60151208D01*
X115219605Y-61000000D01*
X114860395Y-61000000D01*
X114011603Y-60151208D01*
X113762528Y-60228843D01*
X113636629Y-60492883D01*
X113564661Y-60776411D01*
X113549389Y-61068531D01*
X108338721Y-61068531D01*
X108427932Y-60853158D01*
X108485000Y-60566260D01*
X108485000Y-60273740D01*
X108427932Y-59986842D01*
X108315990Y-59716589D01*
X108153475Y-59473368D01*
X107946632Y-59266525D01*
X107772240Y-59150000D01*
X107946632Y-59033475D01*
X108153475Y-58826632D01*
X108315990Y-58583411D01*
X108427932Y-58313158D01*
X108485000Y-58026260D01*
X108485000Y-57733740D01*
X108427932Y-57446842D01*
X108315990Y-57176589D01*
X108153475Y-56933368D01*
X107946632Y-56726525D01*
X107772240Y-56610000D01*
X107946632Y-56493475D01*
X108153475Y-56286632D01*
X108315990Y-56043411D01*
X108427932Y-55773158D01*
X108485000Y-55486260D01*
X108485000Y-55193740D01*
X108427932Y-54906842D01*
X108315990Y-54636589D01*
X108153475Y-54393368D01*
X107946632Y-54186525D01*
X107772240Y-54070000D01*
X107946632Y-53953475D01*
X108153475Y-53746632D01*
X108315990Y-53503411D01*
X108427932Y-53233158D01*
X108485000Y-52946260D01*
X108485000Y-52653740D01*
X108427932Y-52366842D01*
X108315990Y-52096589D01*
X108234911Y-51975246D01*
X109227829Y-50982329D01*
X109257776Y-50957752D01*
X109355874Y-50838221D01*
X109428766Y-50701848D01*
X109473653Y-50553875D01*
X109485012Y-50438549D01*
X109485012Y-50438542D01*
X109488809Y-50399989D01*
X109485012Y-50361436D01*
X109485012Y-47759387D01*
X111027848Y-46216551D01*
X111057801Y-46191969D01*
X111155899Y-46072438D01*
X111176774Y-46033383D01*
X113227821Y-43982336D01*
X113257774Y-43957754D01*
X113355872Y-43838223D01*
X113428764Y-43701850D01*
X113441528Y-43659774D01*
X113473652Y-43553877D01*
X113483507Y-43453812D01*
X113485010Y-43438551D01*
X113485010Y-43438546D01*
X113488807Y-43399990D01*
X113485010Y-43361434D01*
X113485010Y-40925147D01*
X114175158Y-40235000D01*
X118001030Y-40235000D01*
X118066261Y-40278586D01*
X118236421Y-40349068D01*
X118417061Y-40385000D01*
X118601239Y-40385000D01*
X118781879Y-40349068D01*
X118952039Y-40278586D01*
X119105178Y-40176262D01*
X119235412Y-40046028D01*
X119286743Y-39969206D01*
X119384104Y-40021246D01*
X119398128Y-40028742D01*
X119546101Y-40073630D01*
X119621014Y-40081008D01*
X119661427Y-40084988D01*
X119661432Y-40084988D01*
X119699988Y-40088785D01*
X119738544Y-40084988D01*
X123973535Y-40084988D01*
X124000932Y-40222719D01*
X124071414Y-40392879D01*
X124115001Y-40458112D01*
X124115001Y-40973536D01*
X123977271Y-41000933D01*
X123807111Y-41071415D01*
X123653972Y-41173739D01*
X123523738Y-41303973D01*
X123421414Y-41457112D01*
X123350932Y-41627272D01*
X123315000Y-41807912D01*
X123315000Y-41992090D01*
X123350932Y-42172730D01*
X123421414Y-42342890D01*
X123523738Y-42496029D01*
X123614991Y-42587282D01*
X123614990Y-55868852D01*
X123062403Y-56421440D01*
X121412116Y-56421440D01*
X121373560Y-56417643D01*
X121335004Y-56421440D01*
X121334999Y-56421440D01*
X121294586Y-56425420D01*
X121219673Y-56432798D01*
X121080558Y-56474999D01*
X121071700Y-56477686D01*
X120935327Y-56550578D01*
X120815796Y-56648676D01*
X120791215Y-56678628D01*
X120456918Y-57012925D01*
X120266260Y-56975000D01*
X119973740Y-56975000D01*
X119686842Y-57032068D01*
X119416589Y-57144010D01*
X119173368Y-57306525D01*
X118966525Y-57513368D01*
X118850000Y-57687760D01*
X118733475Y-57513368D01*
X118526632Y-57306525D01*
X118283411Y-57144010D01*
X118013158Y-57032068D01*
X117726260Y-56975000D01*
X117433740Y-56975000D01*
X117146842Y-57032068D01*
X116876589Y-57144010D01*
X116633368Y-57306525D01*
X116426525Y-57513368D01*
X116310000Y-57687760D01*
X116193475Y-57513368D01*
X115986632Y-57306525D01*
X115743411Y-57144010D01*
X115473158Y-57032068D01*
X115186260Y-56975000D01*
X114893740Y-56975000D01*
X114606842Y-57032068D01*
X114336589Y-57144010D01*
X114093368Y-57306525D01*
X113886525Y-57513368D01*
X113724010Y-57756589D01*
X113612068Y-58026842D01*
X113555000Y-58313740D01*
X113555000Y-58606260D01*
X113612068Y-58893158D01*
X113724010Y-59163411D01*
X113886525Y-59406632D01*
X114093368Y-59613475D01*
X114266729Y-59729311D01*
X114191208Y-59971603D01*
X115040000Y-60820395D01*
X115888792Y-59971603D01*
X115813271Y-59729311D01*
X115986632Y-59613475D01*
X116193475Y-59406632D01*
X116310000Y-59232240D01*
X116426525Y-59406632D01*
X116633368Y-59613475D01*
X116806729Y-59729311D01*
X116731208Y-59971603D01*
X117580000Y-60820395D01*
X118428792Y-59971603D01*
X118353271Y-59729311D01*
X118526632Y-59613475D01*
X118733475Y-59406632D01*
X118850000Y-59232240D01*
X118966525Y-59406632D01*
X119173368Y-59613475D01*
X119346729Y-59729311D01*
X119271208Y-59971603D01*
X120120000Y-60820395D01*
X120968792Y-59971603D01*
X120893271Y-59729311D01*
X121066632Y-59613475D01*
X121273475Y-59406632D01*
X121390000Y-59232240D01*
X121506525Y-59406632D01*
X121713368Y-59613475D01*
X121886729Y-59729311D01*
X121811208Y-59971603D01*
X122660000Y-60820395D01*
X122674143Y-60806253D01*
X122853748Y-60985858D01*
X122839605Y-61000000D01*
X123688397Y-61848792D01*
X123930000Y-61773486D01*
X124171603Y-61848792D01*
X125020395Y-61000000D01*
X125006253Y-60985858D01*
X125185858Y-60806253D01*
X125200000Y-60820395D01*
X125214143Y-60806253D01*
X125393748Y-60985858D01*
X125379605Y-61000000D01*
X126228397Y-61848792D01*
X126470000Y-61773486D01*
X126711603Y-61848792D01*
X127560395Y-61000000D01*
X127546253Y-60985858D01*
X127725858Y-60806253D01*
X127740000Y-60820395D01*
X127754143Y-60806253D01*
X127933748Y-60985858D01*
X127919605Y-61000000D01*
X128768397Y-61848792D01*
X129010000Y-61773486D01*
X129251603Y-61848792D01*
X130100395Y-61000000D01*
X130086253Y-60985858D01*
X130265858Y-60806253D01*
X130280000Y-60820395D01*
X130294143Y-60806253D01*
X130473748Y-60985858D01*
X130459605Y-61000000D01*
X131308397Y-61848792D01*
X131550000Y-61773486D01*
X131791603Y-61848792D01*
X132640395Y-61000000D01*
X132626253Y-60985858D01*
X132805858Y-60806253D01*
X132820000Y-60820395D01*
X132834143Y-60806253D01*
X133013748Y-60985858D01*
X132999605Y-61000000D01*
X133848397Y-61848792D01*
X134090000Y-61773486D01*
X134331603Y-61848792D01*
X135180395Y-61000000D01*
X135166253Y-60985858D01*
X135345858Y-60806253D01*
X135360000Y-60820395D01*
X135374143Y-60806253D01*
X135553748Y-60985858D01*
X135539605Y-61000000D01*
X136388397Y-61848792D01*
X136630689Y-61773271D01*
X136746525Y-61946632D01*
X136953368Y-62153475D01*
X137196589Y-62315990D01*
X137466842Y-62427932D01*
X137753740Y-62485000D01*
X138046260Y-62485000D01*
X138333158Y-62427932D01*
X138603411Y-62315990D01*
X138846632Y-62153475D01*
X139053475Y-61946632D01*
X139215990Y-61703411D01*
X139327932Y-61433158D01*
X139385000Y-61146260D01*
X139385000Y-60853740D01*
X139331544Y-60584999D01*
X143561448Y-60584999D01*
X143600001Y-60588796D01*
X143638554Y-60584999D01*
X143638562Y-60584999D01*
X143753888Y-60573640D01*
X143901861Y-60528753D01*
X144038234Y-60455861D01*
X144115000Y-60392860D01*
X144115000Y-60486260D01*
X144172068Y-60773158D01*
X144284010Y-61043411D01*
X144446525Y-61286632D01*
X144653368Y-61493475D01*
X144835534Y-61615195D01*
X144718645Y-61684822D01*
X144502412Y-61879731D01*
X144328359Y-62113080D01*
X144203175Y-62375901D01*
X144158524Y-62523110D01*
X144279845Y-62753000D01*
X145473000Y-62753000D01*
X145473000Y-62733000D01*
X145727000Y-62733000D01*
X145727000Y-62753000D01*
X146920155Y-62753000D01*
X147041476Y-62523110D01*
X146996825Y-62375901D01*
X146871641Y-62113080D01*
X146697588Y-61879731D01*
X146481355Y-61684822D01*
X146364466Y-61615195D01*
X146546632Y-61493475D01*
X146753475Y-61286632D01*
X146915990Y-61043411D01*
X147027932Y-60773158D01*
X147085000Y-60486260D01*
X147085000Y-60193740D01*
X147027932Y-59906842D01*
X146915990Y-59636589D01*
X146753475Y-59393368D01*
X146546632Y-59186525D01*
X146372240Y-59070000D01*
X146546632Y-58953475D01*
X146753475Y-58746632D01*
X146915990Y-58503411D01*
X147027932Y-58233158D01*
X147085000Y-57946260D01*
X147085000Y-57653740D01*
X147027932Y-57366842D01*
X146915990Y-57096589D01*
X146753475Y-56853368D01*
X146546632Y-56646525D01*
X146372240Y-56530000D01*
X146546632Y-56413475D01*
X146753475Y-56206632D01*
X146915990Y-55963411D01*
X147027932Y-55693158D01*
X147085000Y-55406260D01*
X147085000Y-55113740D01*
X147027932Y-54826842D01*
X146915990Y-54556589D01*
X146753475Y-54313368D01*
X146546632Y-54106525D01*
X146372240Y-53990000D01*
X146546632Y-53873475D01*
X146753475Y-53666632D01*
X146915990Y-53423411D01*
X147027932Y-53153158D01*
X147085000Y-52866260D01*
X147085000Y-52573740D01*
X147027932Y-52286842D01*
X146915990Y-52016589D01*
X146753475Y-51773368D01*
X146546632Y-51566525D01*
X146364466Y-51444805D01*
X146481355Y-51375178D01*
X146697588Y-51180269D01*
X146871641Y-50946920D01*
X146996825Y-50684099D01*
X147041476Y-50536890D01*
X146920155Y-50307000D01*
X145727000Y-50307000D01*
X145727000Y-50327000D01*
X145473000Y-50327000D01*
X145473000Y-50307000D01*
X144279845Y-50307000D01*
X144158524Y-50536890D01*
X144203175Y-50684099D01*
X144328359Y-50946920D01*
X144502412Y-51180269D01*
X144718645Y-51375178D01*
X144835534Y-51444805D01*
X144653368Y-51566525D01*
X144446525Y-51773368D01*
X144284010Y-52016589D01*
X144172068Y-52286842D01*
X144115000Y-52573740D01*
X144115000Y-52866260D01*
X144172068Y-53153158D01*
X144284010Y-53423411D01*
X144446525Y-53666632D01*
X144653368Y-53873475D01*
X144827760Y-53990000D01*
X144653368Y-54106525D01*
X144446525Y-54313368D01*
X144284010Y-54556589D01*
X144172068Y-54826842D01*
X144115000Y-55113740D01*
X144115000Y-55406260D01*
X144152925Y-55596918D01*
X143638843Y-56111000D01*
X142574373Y-56111000D01*
X142659774Y-56053937D01*
X142803937Y-55909774D01*
X142917205Y-55740256D01*
X142995226Y-55551898D01*
X143035000Y-55351939D01*
X143035000Y-55148061D01*
X142995226Y-54948102D01*
X142917205Y-54759744D01*
X142885000Y-54711546D01*
X142885000Y-50788454D01*
X142917205Y-50740256D01*
X142995226Y-50551898D01*
X143035000Y-50351939D01*
X143035000Y-50148061D01*
X142995226Y-49948102D01*
X142917205Y-49759744D01*
X142803937Y-49590226D01*
X142659774Y-49446063D01*
X142490256Y-49332795D01*
X142301898Y-49254774D01*
X142101939Y-49215000D01*
X141898061Y-49215000D01*
X141698102Y-49254774D01*
X141509744Y-49332795D01*
X141340226Y-49446063D01*
X141196063Y-49590226D01*
X141082795Y-49759744D01*
X141004774Y-49948102D01*
X140965000Y-50148061D01*
X140965000Y-50351939D01*
X141004774Y-50551898D01*
X141082795Y-50740256D01*
X141115001Y-50788456D01*
X141115000Y-54711546D01*
X141082795Y-54759744D01*
X141004774Y-54948102D01*
X140965000Y-55148061D01*
X140965000Y-55351939D01*
X141004774Y-55551898D01*
X141082795Y-55740256D01*
X141196063Y-55909774D01*
X141340226Y-56053937D01*
X141425627Y-56111000D01*
X135169000Y-56111000D01*
X135169000Y-53393157D01*
X138195816Y-50366342D01*
X138225764Y-50341764D01*
X138254295Y-50307000D01*
X138284953Y-50269643D01*
X138323862Y-50222233D01*
X138396754Y-50085860D01*
X138431194Y-49972328D01*
X138441641Y-49937888D01*
X138443057Y-49923510D01*
X138453000Y-49822561D01*
X138453000Y-49822554D01*
X138456797Y-49784001D01*
X138453000Y-49745448D01*
X138453000Y-47846554D01*
X138456797Y-47807998D01*
X138453000Y-47769438D01*
X138453000Y-47769437D01*
X138447506Y-47713656D01*
X138441642Y-47654111D01*
X138396754Y-47506138D01*
X138375573Y-47466511D01*
X138323862Y-47369765D01*
X138225764Y-47250234D01*
X138195811Y-47225652D01*
X137432349Y-46462190D01*
X137407766Y-46432236D01*
X137322495Y-46362255D01*
X137409774Y-46303937D01*
X137553937Y-46159774D01*
X137667205Y-45990256D01*
X137745226Y-45801898D01*
X137785000Y-45601939D01*
X137785000Y-45398061D01*
X137745226Y-45198102D01*
X137667205Y-45009744D01*
X137635000Y-44961546D01*
X137635000Y-43538454D01*
X137667205Y-43490256D01*
X137745226Y-43301898D01*
X137785000Y-43101939D01*
X137785000Y-42898061D01*
X137745226Y-42698102D01*
X137739799Y-42685000D01*
X139807443Y-42685000D01*
X139845996Y-42688797D01*
X139884549Y-42685000D01*
X139884557Y-42685000D01*
X139999883Y-42673641D01*
X140147856Y-42628754D01*
X140284229Y-42555862D01*
X140403760Y-42457764D01*
X140428343Y-42427810D01*
X141995782Y-40860371D01*
X142072727Y-40845066D01*
X142242887Y-40774584D01*
X142396026Y-40672260D01*
X142526260Y-40542026D01*
X142628584Y-40388887D01*
X142699066Y-40218727D01*
X142734998Y-40038087D01*
X142734998Y-39853909D01*
X142699066Y-39673269D01*
X142628584Y-39503109D01*
X142526260Y-39349970D01*
X142396026Y-39219736D01*
X142242887Y-39117412D01*
X142072727Y-39046930D01*
X141892087Y-39010998D01*
X141707909Y-39010998D01*
X141527269Y-39046930D01*
X141357109Y-39117412D01*
X141203970Y-39219736D01*
X141073736Y-39349970D01*
X140971412Y-39503109D01*
X140900930Y-39673269D01*
X140885625Y-39750214D01*
X139520839Y-41115000D01*
X137318387Y-41115000D01*
X137409774Y-41053937D01*
X137553937Y-40909774D01*
X137667205Y-40740256D01*
X137745226Y-40551898D01*
X137785000Y-40351939D01*
X137785000Y-40148061D01*
X137745226Y-39948102D01*
X137667205Y-39759744D01*
X137635000Y-39711546D01*
X137635000Y-37538454D01*
X137667205Y-37490256D01*
X137745226Y-37301898D01*
X137785000Y-37101939D01*
X137785000Y-36898061D01*
X137745226Y-36698102D01*
X137700867Y-36591010D01*
X140636853Y-36591010D01*
X141978980Y-37933138D01*
X141978980Y-38022547D01*
X141975183Y-38061100D01*
X141978980Y-38099653D01*
X141978980Y-38099660D01*
X141990339Y-38214986D01*
X142035226Y-38362959D01*
X142108118Y-38499332D01*
X142206216Y-38618864D01*
X142236170Y-38643447D01*
X142979001Y-39386278D01*
X142979000Y-42887447D01*
X142975203Y-42926000D01*
X142979000Y-42964553D01*
X142979000Y-42964560D01*
X142990359Y-43079886D01*
X143035246Y-43227859D01*
X143108138Y-43364232D01*
X143206236Y-43483764D01*
X143236190Y-43508347D01*
X144237271Y-44509428D01*
X144172068Y-44666842D01*
X144115000Y-44953740D01*
X144115000Y-45246260D01*
X144172068Y-45533158D01*
X144284010Y-45803411D01*
X144446525Y-46046632D01*
X144653368Y-46253475D01*
X144827760Y-46370000D01*
X144653368Y-46486525D01*
X144446525Y-46693368D01*
X144405344Y-46755000D01*
X142302444Y-46755000D01*
X142301898Y-46754774D01*
X142101939Y-46715000D01*
X141898061Y-46715000D01*
X141698102Y-46754774D01*
X141509744Y-46832795D01*
X141340226Y-46946063D01*
X141196063Y-47090226D01*
X141082795Y-47259744D01*
X141004774Y-47448102D01*
X140965000Y-47648061D01*
X140965000Y-47851939D01*
X141004774Y-48051898D01*
X141082795Y-48240256D01*
X141196063Y-48409774D01*
X141340226Y-48553937D01*
X141509744Y-48667205D01*
X141698102Y-48745226D01*
X141898061Y-48785000D01*
X142101939Y-48785000D01*
X142301898Y-48745226D01*
X142490256Y-48667205D01*
X142659774Y-48553937D01*
X142688711Y-48525000D01*
X144405344Y-48525000D01*
X144446525Y-48586632D01*
X144653368Y-48793475D01*
X144835534Y-48915195D01*
X144718645Y-48984822D01*
X144502412Y-49179731D01*
X144328359Y-49413080D01*
X144203175Y-49675901D01*
X144158524Y-49823110D01*
X144279845Y-50053000D01*
X145473000Y-50053000D01*
X145473000Y-50033000D01*
X145727000Y-50033000D01*
X145727000Y-50053000D01*
X146920155Y-50053000D01*
X147041476Y-49823110D01*
X146996825Y-49675901D01*
X146871641Y-49413080D01*
X146697588Y-49179731D01*
X146481355Y-48984822D01*
X146364466Y-48915195D01*
X146546632Y-48793475D01*
X146753475Y-48586632D01*
X146915990Y-48343411D01*
X147027932Y-48073158D01*
X147085000Y-47786260D01*
X147085000Y-47493740D01*
X147027932Y-47206842D01*
X146915990Y-46936589D01*
X146753475Y-46693368D01*
X146546632Y-46486525D01*
X146372240Y-46370000D01*
X146546632Y-46253475D01*
X146753475Y-46046632D01*
X146915990Y-45803411D01*
X147027932Y-45533158D01*
X147085000Y-45246260D01*
X147085000Y-44953740D01*
X147027932Y-44666842D01*
X146915990Y-44396589D01*
X146753475Y-44153368D01*
X146546632Y-43946525D01*
X146372240Y-43830000D01*
X146546632Y-43713475D01*
X146753475Y-43506632D01*
X146915990Y-43263411D01*
X147027932Y-42993158D01*
X147085000Y-42706260D01*
X147085000Y-42413740D01*
X147027932Y-42126842D01*
X146915990Y-41856589D01*
X146753475Y-41613368D01*
X146546632Y-41406525D01*
X146372240Y-41290000D01*
X146546632Y-41173475D01*
X146753475Y-40966632D01*
X146915990Y-40723411D01*
X147027932Y-40453158D01*
X147085000Y-40166260D01*
X147085000Y-39873740D01*
X147027932Y-39586842D01*
X146915990Y-39316589D01*
X146753475Y-39073368D01*
X146546632Y-38866525D01*
X146372240Y-38750000D01*
X146546632Y-38633475D01*
X146753475Y-38426632D01*
X146915990Y-38183411D01*
X147027932Y-37913158D01*
X147085000Y-37626260D01*
X147085000Y-37333740D01*
X147027932Y-37046842D01*
X146915990Y-36776589D01*
X146753475Y-36533368D01*
X146546632Y-36326525D01*
X146372240Y-36210000D01*
X146546632Y-36093475D01*
X146753475Y-35886632D01*
X146915990Y-35643411D01*
X147027932Y-35373158D01*
X147085000Y-35086260D01*
X147085000Y-34793740D01*
X147027932Y-34506842D01*
X146915990Y-34236589D01*
X146753475Y-33993368D01*
X146546632Y-33786525D01*
X146372240Y-33670000D01*
X146546632Y-33553475D01*
X146753475Y-33346632D01*
X146915990Y-33103411D01*
X147027932Y-32833158D01*
X147085000Y-32546260D01*
X147085000Y-32253740D01*
X147027932Y-31966842D01*
X146915990Y-31696589D01*
X146753475Y-31453368D01*
X146546632Y-31246525D01*
X146372240Y-31130000D01*
X146546632Y-31013475D01*
X146753475Y-30806632D01*
X146915990Y-30563411D01*
X147027932Y-30293158D01*
X147085000Y-30006260D01*
X147085000Y-29713740D01*
X147027932Y-29426842D01*
X146915990Y-29156589D01*
X146753475Y-28913368D01*
X146546632Y-28706525D01*
X146372240Y-28590000D01*
X146546632Y-28473475D01*
X146753475Y-28266632D01*
X146915990Y-28023411D01*
X147027932Y-27753158D01*
X147085000Y-27466260D01*
X147085000Y-27173740D01*
X147027932Y-26886842D01*
X146915990Y-26616589D01*
X146753475Y-26373368D01*
X146546632Y-26166525D01*
X146372240Y-26050000D01*
X146546632Y-25933475D01*
X146753475Y-25726632D01*
X146915990Y-25483411D01*
X147027932Y-25213158D01*
X147085000Y-24926260D01*
X147085000Y-24633740D01*
X147027932Y-24346842D01*
X146915990Y-24076589D01*
X146753475Y-23833368D01*
X146546632Y-23626525D01*
X146372240Y-23510000D01*
X146546632Y-23393475D01*
X146753475Y-23186632D01*
X146915990Y-22943411D01*
X147027932Y-22673158D01*
X147085000Y-22386260D01*
X147085000Y-22093740D01*
X147027932Y-21806842D01*
X146915990Y-21536589D01*
X146753475Y-21293368D01*
X146546632Y-21086525D01*
X146372240Y-20970000D01*
X146546632Y-20853475D01*
X146753475Y-20646632D01*
X146915990Y-20403411D01*
X147027932Y-20133158D01*
X147085000Y-19846260D01*
X147085000Y-19553740D01*
X147027932Y-19266842D01*
X146915990Y-18996589D01*
X146753475Y-18753368D01*
X146546632Y-18546525D01*
X146372240Y-18430000D01*
X146546632Y-18313475D01*
X146753475Y-18106632D01*
X146915990Y-17863411D01*
X147027932Y-17593158D01*
X147085000Y-17306260D01*
X147085000Y-17013740D01*
X147027932Y-16726842D01*
X146915990Y-16456589D01*
X146753475Y-16213368D01*
X146621620Y-16081513D01*
X146694180Y-16059502D01*
X146804494Y-16000537D01*
X146901185Y-15921185D01*
X146980537Y-15824494D01*
X147039502Y-15714180D01*
X147075812Y-15594482D01*
X147088072Y-15470000D01*
X147088072Y-13770000D01*
X147075812Y-13645518D01*
X147039502Y-13525820D01*
X146980537Y-13415506D01*
X146901185Y-13318815D01*
X146804494Y-13239463D01*
X146694180Y-13180498D01*
X146574482Y-13144188D01*
X146450000Y-13131928D01*
X144750000Y-13131928D01*
X144625518Y-13144188D01*
X144505820Y-13180498D01*
X144395506Y-13239463D01*
X144298815Y-13318815D01*
X144219463Y-13415506D01*
X144160498Y-13525820D01*
X144124188Y-13645518D01*
X144111928Y-13770000D01*
X144111928Y-14997915D01*
X143490185Y-15619658D01*
X143460237Y-15644236D01*
X143435659Y-15674184D01*
X143435655Y-15674188D01*
X143434989Y-15675000D01*
X143362139Y-15763767D01*
X143353319Y-15780269D01*
X143289246Y-15900141D01*
X143244359Y-16048114D01*
X143229203Y-16202000D01*
X143233001Y-16240562D01*
X143233000Y-17708842D01*
X140644843Y-20297000D01*
X137231158Y-20297000D01*
X136296374Y-19362216D01*
X136281068Y-19285271D01*
X136210586Y-19115111D01*
X136108262Y-18961972D01*
X135978028Y-18831738D01*
X135824889Y-18729414D01*
X135654729Y-18658932D01*
X135474089Y-18623000D01*
X135289911Y-18623000D01*
X135109271Y-18658932D01*
X134939111Y-18729414D01*
X134785972Y-18831738D01*
X134655738Y-18961972D01*
X134553414Y-19115111D01*
X134482932Y-19285271D01*
X134447000Y-19465911D01*
X134447000Y-19650089D01*
X134482932Y-19830729D01*
X134553414Y-20000889D01*
X134655738Y-20154028D01*
X134694710Y-20193000D01*
X134655738Y-20231972D01*
X134553414Y-20385111D01*
X134482932Y-20555271D01*
X134447000Y-20735911D01*
X134447000Y-20920089D01*
X134482932Y-21100729D01*
X134553414Y-21270889D01*
X134655738Y-21424028D01*
X134694710Y-21463000D01*
X134655738Y-21501972D01*
X134553414Y-21655111D01*
X134482932Y-21825271D01*
X134447000Y-22005911D01*
X134447000Y-22190089D01*
X134482932Y-22370729D01*
X134553414Y-22540889D01*
X134655738Y-22694028D01*
X134694710Y-22733000D01*
X134655738Y-22771972D01*
X134553414Y-22925111D01*
X134482932Y-23095271D01*
X134447000Y-23275911D01*
X134447000Y-23460089D01*
X134482932Y-23640729D01*
X134553414Y-23810889D01*
X134655738Y-23964028D01*
X134694710Y-24003000D01*
X134655738Y-24041972D01*
X134553414Y-24195111D01*
X134482932Y-24365271D01*
X134447000Y-24545911D01*
X134447000Y-24730089D01*
X134482932Y-24910729D01*
X134553414Y-25080889D01*
X134655738Y-25234028D01*
X134694710Y-25273000D01*
X134655738Y-25311972D01*
X134553414Y-25465111D01*
X134482932Y-25635271D01*
X134447000Y-25815911D01*
X134447000Y-26000089D01*
X134482932Y-26180729D01*
X134553414Y-26350889D01*
X134655738Y-26504028D01*
X134694710Y-26543000D01*
X134655738Y-26581972D01*
X134553414Y-26735111D01*
X134482932Y-26905271D01*
X134447000Y-27085911D01*
X134447000Y-27270089D01*
X134482932Y-27450729D01*
X134553414Y-27620889D01*
X134655738Y-27774028D01*
X134785972Y-27904262D01*
X134939111Y-28006586D01*
X135109271Y-28077068D01*
X135289911Y-28113000D01*
X135465826Y-28113000D01*
X135415000Y-28368514D01*
X135415000Y-28631486D01*
X135466304Y-28889405D01*
X135536031Y-29057741D01*
X135470028Y-28991738D01*
X135316889Y-28889414D01*
X135146729Y-28818932D01*
X134966089Y-28783000D01*
X134781911Y-28783000D01*
X134601271Y-28818932D01*
X134431111Y-28889414D01*
X134277972Y-28991738D01*
X134147738Y-29121972D01*
X134045414Y-29275111D01*
X133974932Y-29445271D01*
X133939000Y-29625911D01*
X133939000Y-29810089D01*
X133974932Y-29990729D01*
X134045414Y-30160889D01*
X134089000Y-30226121D01*
X134089001Y-31457438D01*
X134085203Y-31496000D01*
X134100359Y-31649886D01*
X134145246Y-31797859D01*
X134161670Y-31828586D01*
X134218139Y-31934233D01*
X134240737Y-31961768D01*
X134291655Y-32023812D01*
X134291659Y-32023816D01*
X134316237Y-32053764D01*
X134346185Y-32078342D01*
X134502843Y-32235000D01*
X133421158Y-32235000D01*
X131978374Y-30792216D01*
X131963068Y-30715271D01*
X131892586Y-30545111D01*
X131790262Y-30391972D01*
X131660028Y-30261738D01*
X131506889Y-30159414D01*
X131336729Y-30088932D01*
X131156089Y-30053000D01*
X130971911Y-30053000D01*
X130791271Y-30088932D01*
X130621111Y-30159414D01*
X130467972Y-30261738D01*
X130337738Y-30391972D01*
X130235414Y-30545111D01*
X130164932Y-30715271D01*
X130129000Y-30895911D01*
X130129000Y-31080089D01*
X130164932Y-31260729D01*
X130235414Y-31430889D01*
X130337738Y-31584028D01*
X130467972Y-31714262D01*
X130621111Y-31816586D01*
X130791271Y-31887068D01*
X130868216Y-31902374D01*
X132513658Y-33547816D01*
X132538236Y-33577764D01*
X132568184Y-33602342D01*
X132568187Y-33602345D01*
X132578981Y-33611203D01*
X132657767Y-33675862D01*
X132785506Y-33744139D01*
X132794140Y-33748754D01*
X132827916Y-33759000D01*
X131643158Y-33759000D01*
X130962374Y-33078216D01*
X130947068Y-33001271D01*
X130876586Y-32831111D01*
X130774262Y-32677972D01*
X130644028Y-32547738D01*
X130490889Y-32445414D01*
X130320729Y-32374932D01*
X130140089Y-32339000D01*
X129955911Y-32339000D01*
X129775271Y-32374932D01*
X129605111Y-32445414D01*
X129451972Y-32547738D01*
X129321738Y-32677972D01*
X129286000Y-32731458D01*
X129250262Y-32677972D01*
X129120028Y-32547738D01*
X128966889Y-32445414D01*
X128796729Y-32374932D01*
X128616089Y-32339000D01*
X128431911Y-32339000D01*
X128251271Y-32374932D01*
X128081111Y-32445414D01*
X128016000Y-32488920D01*
X127950889Y-32445414D01*
X127780729Y-32374932D01*
X127600089Y-32339000D01*
X127415911Y-32339000D01*
X127235271Y-32374932D01*
X127065111Y-32445414D01*
X126911972Y-32547738D01*
X126781738Y-32677972D01*
X126679414Y-32831111D01*
X126608932Y-33001271D01*
X126573000Y-33181911D01*
X126573000Y-33366089D01*
X126608932Y-33546729D01*
X126679414Y-33716889D01*
X126781738Y-33870028D01*
X126911972Y-34000262D01*
X127065111Y-34102586D01*
X127235271Y-34173068D01*
X127312217Y-34188374D01*
X129457663Y-36333820D01*
X129482246Y-36363774D01*
X129601777Y-36461872D01*
X129699088Y-36513885D01*
X129738150Y-36534764D01*
X129886123Y-36579652D01*
X129961036Y-36587030D01*
X130001449Y-36591010D01*
X130001454Y-36591010D01*
X130040010Y-36594807D01*
X130078566Y-36591010D01*
X135799133Y-36591010D01*
X135754774Y-36698102D01*
X135715000Y-36898061D01*
X135715000Y-37101939D01*
X135754774Y-37301898D01*
X135832795Y-37490256D01*
X135865000Y-37538455D01*
X135865001Y-39711544D01*
X135832795Y-39759744D01*
X135754774Y-39948102D01*
X135715000Y-40148061D01*
X135715000Y-40351939D01*
X135754774Y-40551898D01*
X135832795Y-40740256D01*
X135946063Y-40909774D01*
X136090226Y-41053937D01*
X136181613Y-41115000D01*
X135176464Y-41115000D01*
X135149068Y-40977271D01*
X135078586Y-40807111D01*
X134976262Y-40653972D01*
X134846028Y-40523738D01*
X134692889Y-40421414D01*
X134522729Y-40350932D01*
X134342089Y-40315000D01*
X134157911Y-40315000D01*
X133977271Y-40350932D01*
X133807111Y-40421414D01*
X133741880Y-40465000D01*
X127863169Y-40465000D01*
X127683169Y-40285000D01*
X127792089Y-40285000D01*
X127972729Y-40249068D01*
X128142889Y-40178586D01*
X128296028Y-40076262D01*
X128426262Y-39946028D01*
X128528586Y-39792889D01*
X128599068Y-39622729D01*
X128626464Y-39485000D01*
X130791880Y-39485000D01*
X130857111Y-39528586D01*
X131027271Y-39599068D01*
X131207911Y-39635000D01*
X131392089Y-39635000D01*
X131572729Y-39599068D01*
X131742889Y-39528586D01*
X131896028Y-39426262D01*
X132026262Y-39296028D01*
X132128586Y-39142889D01*
X132199068Y-38972729D01*
X132235000Y-38792089D01*
X132235000Y-38785000D01*
X134391880Y-38785000D01*
X134457111Y-38828586D01*
X134627271Y-38899068D01*
X134807911Y-38935000D01*
X134992089Y-38935000D01*
X135172729Y-38899068D01*
X135342889Y-38828586D01*
X135496028Y-38726262D01*
X135626262Y-38596028D01*
X135728586Y-38442889D01*
X135799068Y-38272729D01*
X135835000Y-38092089D01*
X135835000Y-37907911D01*
X135799068Y-37727271D01*
X135728586Y-37557111D01*
X135626262Y-37403972D01*
X135496028Y-37273738D01*
X135342889Y-37171414D01*
X135172729Y-37100932D01*
X134992089Y-37065000D01*
X134807911Y-37065000D01*
X134627271Y-37100932D01*
X134457111Y-37171414D01*
X134391880Y-37215000D01*
X121508120Y-37215000D01*
X121442889Y-37171414D01*
X121272729Y-37100932D01*
X121092089Y-37065000D01*
X120907911Y-37065000D01*
X120727271Y-37100932D01*
X120557111Y-37171414D01*
X120403972Y-37273738D01*
X120350000Y-37327710D01*
X120296028Y-37273738D01*
X120142889Y-37171414D01*
X119972729Y-37100932D01*
X119792089Y-37065000D01*
X119607911Y-37065000D01*
X119427271Y-37100932D01*
X119257111Y-37171414D01*
X119103972Y-37273738D01*
X119040843Y-37336867D01*
X118942894Y-37271419D01*
X118772734Y-37200937D01*
X118592094Y-37165005D01*
X118407916Y-37165005D01*
X118227276Y-37200937D01*
X118057116Y-37271419D01*
X117991885Y-37315005D01*
X110895152Y-37315005D01*
X112125157Y-36085000D01*
X115291880Y-36085000D01*
X115357111Y-36128586D01*
X115527271Y-36199068D01*
X115707911Y-36235000D01*
X115892089Y-36235000D01*
X116072729Y-36199068D01*
X116242889Y-36128586D01*
X116396028Y-36026262D01*
X116526262Y-35896028D01*
X116628586Y-35742889D01*
X116699068Y-35572729D01*
X116735000Y-35392089D01*
X116735000Y-35207911D01*
X116699068Y-35027271D01*
X116628586Y-34857111D01*
X116526262Y-34703972D01*
X116396028Y-34573738D01*
X116242889Y-34471414D01*
X116072729Y-34400932D01*
X115892089Y-34365000D01*
X115707911Y-34365000D01*
X115527271Y-34400932D01*
X115357111Y-34471414D01*
X115291880Y-34515000D01*
X112095158Y-34515000D01*
X112325158Y-34285000D01*
X116691880Y-34285000D01*
X116757111Y-34328586D01*
X116927271Y-34399068D01*
X117107911Y-34435000D01*
X117292089Y-34435000D01*
X117472729Y-34399068D01*
X117642889Y-34328586D01*
X117796028Y-34226262D01*
X117926262Y-34096028D01*
X118028586Y-33942889D01*
X118099068Y-33772729D01*
X118135000Y-33592089D01*
X118135000Y-33407911D01*
X118099068Y-33227271D01*
X118028586Y-33057111D01*
X117926262Y-32903972D01*
X117796028Y-32773738D01*
X117642889Y-32671414D01*
X117472729Y-32600932D01*
X117292089Y-32565000D01*
X117107911Y-32565000D01*
X116927271Y-32600932D01*
X116757111Y-32671414D01*
X116691880Y-32715000D01*
X113095157Y-32715000D01*
X114025157Y-31785000D01*
X116691880Y-31785000D01*
X116757111Y-31828586D01*
X116927271Y-31899068D01*
X117107911Y-31935000D01*
X117292089Y-31935000D01*
X117472729Y-31899068D01*
X117642889Y-31828586D01*
X117796028Y-31726262D01*
X117926262Y-31596028D01*
X118028586Y-31442889D01*
X118099068Y-31272729D01*
X118135000Y-31092089D01*
X118135000Y-30907911D01*
X118099068Y-30727271D01*
X118028586Y-30557111D01*
X117926262Y-30403972D01*
X117796028Y-30273738D01*
X117642889Y-30171414D01*
X117472729Y-30100932D01*
X117292089Y-30065000D01*
X117107911Y-30065000D01*
X116927271Y-30100932D01*
X116757111Y-30171414D01*
X116691880Y-30215000D01*
X113738556Y-30215000D01*
X113700000Y-30211203D01*
X113661444Y-30215000D01*
X113661439Y-30215000D01*
X113621026Y-30218980D01*
X113546113Y-30226358D01*
X113398140Y-30271246D01*
X113261767Y-30344138D01*
X113142236Y-30442236D01*
X113117653Y-30472190D01*
X112884999Y-30704844D01*
X112884999Y-27045000D01*
X115401445Y-27045000D01*
X115439998Y-27048797D01*
X115478551Y-27045000D01*
X115478559Y-27045000D01*
X115593885Y-27033641D01*
X115741858Y-26988754D01*
X115878231Y-26915862D01*
X115997762Y-26817764D01*
X116022345Y-26787810D01*
X117295783Y-25514372D01*
X117372728Y-25499067D01*
X117542888Y-25428585D01*
X117696027Y-25326261D01*
X117826261Y-25196027D01*
X117928585Y-25042888D01*
X117999067Y-24872728D01*
X118034999Y-24692088D01*
X118034999Y-24507910D01*
X117999067Y-24327270D01*
X117940137Y-24185000D01*
X118391880Y-24185000D01*
X118457111Y-24228586D01*
X118627271Y-24299068D01*
X118807911Y-24335000D01*
X118992089Y-24335000D01*
X119172729Y-24299068D01*
X119342889Y-24228586D01*
X119496028Y-24126262D01*
X119626262Y-23996028D01*
X119728586Y-23842889D01*
X119799068Y-23672729D01*
X119835000Y-23492089D01*
X119835000Y-23307911D01*
X119799068Y-23127271D01*
X119728586Y-22957111D01*
X119711263Y-22931186D01*
X119872729Y-22899068D01*
X120042889Y-22828586D01*
X120196028Y-22726262D01*
X120326262Y-22596028D01*
X120428586Y-22442889D01*
X120499068Y-22272729D01*
X120535000Y-22092089D01*
X120535000Y-21907911D01*
X120499068Y-21727271D01*
X120428586Y-21557111D01*
X120326262Y-21403972D01*
X120196028Y-21273738D01*
X120042889Y-21171414D01*
X119872729Y-21100932D01*
X119692089Y-21065000D01*
X119507911Y-21065000D01*
X119327271Y-21100932D01*
X119157111Y-21171414D01*
X119091880Y-21215000D01*
X117608119Y-21215000D01*
X117542888Y-21171414D01*
X117372728Y-21100932D01*
X117192088Y-21065000D01*
X117007910Y-21065000D01*
X116827270Y-21100932D01*
X116657110Y-21171414D01*
X116503971Y-21273738D01*
X116373737Y-21403972D01*
X116271413Y-21557111D01*
X116200931Y-21727271D01*
X116164999Y-21907911D01*
X116164999Y-22092089D01*
X116200931Y-22272729D01*
X116271413Y-22442889D01*
X116373737Y-22596028D01*
X116477709Y-22700000D01*
X116373737Y-22803972D01*
X116271413Y-22957111D01*
X116200931Y-23127271D01*
X116164999Y-23307911D01*
X116164999Y-23492089D01*
X116200931Y-23672729D01*
X116271413Y-23842889D01*
X116373737Y-23996028D01*
X116377709Y-24000000D01*
X116373737Y-24003971D01*
X116271413Y-24157110D01*
X116200931Y-24327270D01*
X116185626Y-24404215D01*
X115114841Y-25475000D01*
X112178555Y-25475000D01*
X112140000Y-25471203D01*
X112101445Y-25475000D01*
X112061474Y-25475000D01*
X111953475Y-25313368D01*
X111746632Y-25106525D01*
X111503411Y-24944010D01*
X111233158Y-24832068D01*
X110946260Y-24775000D01*
X110653740Y-24775000D01*
X110366842Y-24832068D01*
X110096589Y-24944010D01*
X109853368Y-25106525D01*
X109685025Y-25274868D01*
X108795154Y-24384997D01*
X109561450Y-24384997D01*
X109600003Y-24388794D01*
X109638556Y-24384997D01*
X109638564Y-24384997D01*
X109753890Y-24373638D01*
X109901863Y-24328751D01*
X110038236Y-24255859D01*
X110157767Y-24157761D01*
X110182350Y-24127807D01*
X110422085Y-23888072D01*
X111650000Y-23888072D01*
X111774482Y-23875812D01*
X111894180Y-23839502D01*
X112004494Y-23780537D01*
X112101185Y-23701185D01*
X112180537Y-23604494D01*
X112239502Y-23494180D01*
X112275812Y-23374482D01*
X112288072Y-23250000D01*
X112288072Y-21550000D01*
X112275812Y-21425518D01*
X112239502Y-21305820D01*
X112180537Y-21195506D01*
X112101185Y-21098815D01*
X112004494Y-21019463D01*
X111894180Y-20960498D01*
X111821620Y-20938487D01*
X111953475Y-20806632D01*
X112061474Y-20645000D01*
X118332015Y-20645000D01*
X118457111Y-20728586D01*
X118627271Y-20799068D01*
X118807911Y-20835000D01*
X118992089Y-20835000D01*
X119172729Y-20799068D01*
X119342889Y-20728586D01*
X119496028Y-20626262D01*
X119626262Y-20496028D01*
X119728586Y-20342889D01*
X119799068Y-20172729D01*
X119835000Y-19992089D01*
X119835000Y-19807911D01*
X119799068Y-19627271D01*
X119728586Y-19457111D01*
X119626262Y-19303972D01*
X119496028Y-19173738D01*
X119342889Y-19071414D01*
X119172729Y-19000932D01*
X118992089Y-18965000D01*
X118807911Y-18965000D01*
X118627271Y-19000932D01*
X118457111Y-19071414D01*
X118451744Y-19075000D01*
X112061474Y-19075000D01*
X111953475Y-18913368D01*
X111746632Y-18706525D01*
X111572240Y-18590000D01*
X111746632Y-18473475D01*
X111953475Y-18266632D01*
X112061474Y-18105000D01*
X119121812Y-18105000D01*
X119157111Y-18128586D01*
X119327271Y-18199068D01*
X119507911Y-18235000D01*
X119692089Y-18235000D01*
X119872729Y-18199068D01*
X120042889Y-18128586D01*
X120196028Y-18026262D01*
X120326262Y-17896028D01*
X120428586Y-17742889D01*
X120499068Y-17572729D01*
X120535000Y-17392089D01*
X120535000Y-17207911D01*
X120499068Y-17027271D01*
X120457080Y-16925902D01*
X128604991Y-16925902D01*
X128604991Y-17110080D01*
X128640923Y-17290720D01*
X128711405Y-17460880D01*
X128813729Y-17614019D01*
X128943963Y-17744253D01*
X129097102Y-17846577D01*
X129267262Y-17917059D01*
X129447902Y-17952991D01*
X129632080Y-17952991D01*
X129812720Y-17917059D01*
X129982880Y-17846577D01*
X130048098Y-17803000D01*
X138683878Y-17803000D01*
X138749109Y-17846586D01*
X138919269Y-17917068D01*
X139099909Y-17953000D01*
X139284087Y-17953000D01*
X139464727Y-17917068D01*
X139634887Y-17846586D01*
X139788026Y-17744262D01*
X139918260Y-17614028D01*
X140020584Y-17460889D01*
X140091066Y-17290729D01*
X140126998Y-17110089D01*
X140126998Y-16925911D01*
X140091066Y-16745271D01*
X140020584Y-16575111D01*
X139918260Y-16421972D01*
X139788026Y-16291738D01*
X139634887Y-16189414D01*
X139464727Y-16118932D01*
X139284087Y-16083000D01*
X139099909Y-16083000D01*
X138919269Y-16118932D01*
X138749109Y-16189414D01*
X138683878Y-16233000D01*
X130048125Y-16233000D01*
X129982880Y-16189405D01*
X129812720Y-16118923D01*
X129632080Y-16082991D01*
X129447902Y-16082991D01*
X129267262Y-16118923D01*
X129097102Y-16189405D01*
X128943963Y-16291729D01*
X128813729Y-16421963D01*
X128711405Y-16575102D01*
X128640923Y-16745262D01*
X128604991Y-16925902D01*
X120457080Y-16925902D01*
X120428586Y-16857111D01*
X120326262Y-16703972D01*
X120196028Y-16573738D01*
X120042889Y-16471414D01*
X119872729Y-16400932D01*
X119692089Y-16365000D01*
X119507911Y-16365000D01*
X119327271Y-16400932D01*
X119157111Y-16471414D01*
X119061948Y-16535000D01*
X112061474Y-16535000D01*
X111953475Y-16373368D01*
X111746632Y-16166525D01*
X111564466Y-16044805D01*
X111681355Y-15975178D01*
X111897588Y-15780269D01*
X112071641Y-15546920D01*
X112196825Y-15284099D01*
X112241476Y-15136890D01*
X112120155Y-14907000D01*
X110927000Y-14907000D01*
X110927000Y-14927000D01*
X110673000Y-14927000D01*
X110673000Y-14907000D01*
X109479845Y-14907000D01*
X109358524Y-15136890D01*
X109403175Y-15284099D01*
X109528359Y-15546920D01*
X109702412Y-15780269D01*
X109918645Y-15975178D01*
X110035534Y-16044805D01*
X109853368Y-16166525D01*
X109646525Y-16373368D01*
X109484010Y-16616589D01*
X109372068Y-16886842D01*
X109315000Y-17173740D01*
X109315000Y-17466260D01*
X109352924Y-17656918D01*
X108162687Y-18847155D01*
X108153475Y-18833368D01*
X107946632Y-18626525D01*
X107772240Y-18510000D01*
X107946632Y-18393475D01*
X108153475Y-18186632D01*
X108315990Y-17943411D01*
X108427932Y-17673158D01*
X108485000Y-17386260D01*
X108485000Y-17093740D01*
X108427932Y-16806842D01*
X108315990Y-16536589D01*
X108153475Y-16293368D01*
X107946632Y-16086525D01*
X107772240Y-15970000D01*
X107946632Y-15853475D01*
X108153475Y-15646632D01*
X108315990Y-15403411D01*
X108427932Y-15133158D01*
X108485000Y-14846260D01*
X108485000Y-14553740D01*
X108459016Y-14423110D01*
X109358524Y-14423110D01*
X109479845Y-14653000D01*
X110673000Y-14653000D01*
X110673000Y-13459186D01*
X110927000Y-13459186D01*
X110927000Y-14653000D01*
X112120155Y-14653000D01*
X112241476Y-14423110D01*
X112196825Y-14275901D01*
X112071641Y-14013080D01*
X111897588Y-13779731D01*
X111681355Y-13584822D01*
X111431252Y-13435843D01*
X111156891Y-13338519D01*
X110927000Y-13459186D01*
X110673000Y-13459186D01*
X110443109Y-13338519D01*
X110168748Y-13435843D01*
X109918645Y-13584822D01*
X109702412Y-13779731D01*
X109528359Y-14013080D01*
X109403175Y-14275901D01*
X109358524Y-14423110D01*
X108459016Y-14423110D01*
X108427932Y-14266842D01*
X108315990Y-13996589D01*
X108153475Y-13753368D01*
X107946632Y-13546525D01*
X107703411Y-13384010D01*
X107433158Y-13272068D01*
X107146260Y-13215000D01*
X106853740Y-13215000D01*
X106566842Y-13272068D01*
X106296589Y-13384010D01*
X106053368Y-13546525D01*
X105846525Y-13753368D01*
X105684010Y-13996589D01*
X105572068Y-14266842D01*
X105515000Y-14553740D01*
X105515000Y-14846260D01*
X105572068Y-15133158D01*
X105684010Y-15403411D01*
X105846525Y-15646632D01*
X106053368Y-15853475D01*
X106227760Y-15970000D01*
X106053368Y-16086525D01*
X105846525Y-16293368D01*
X105684010Y-16536589D01*
X105572068Y-16806842D01*
X105515000Y-17093740D01*
X105515000Y-17386260D01*
X105572068Y-17673158D01*
X105684010Y-17943411D01*
X105846525Y-18186632D01*
X106053368Y-18393475D01*
X106227760Y-18510000D01*
X106053368Y-18626525D01*
X105846525Y-18833368D01*
X105684010Y-19076589D01*
X105572068Y-19346842D01*
X105515000Y-19633740D01*
X105515000Y-19926260D01*
X105572068Y-20213158D01*
X105684010Y-20483411D01*
X105846525Y-20726632D01*
X106053368Y-20933475D01*
X106227760Y-21050000D01*
X106053368Y-21166525D01*
X105846525Y-21373368D01*
X105684010Y-21616589D01*
X105572068Y-21886842D01*
X105515000Y-22173740D01*
X105515000Y-22466260D01*
X105572068Y-22753158D01*
X105597682Y-22814997D01*
X105538559Y-22814997D01*
X105500003Y-22811200D01*
X105461447Y-22814997D01*
X105461442Y-22814997D01*
X105421029Y-22818977D01*
X105346116Y-22826355D01*
X105198143Y-22871243D01*
X105061770Y-22944135D01*
X104942239Y-23042233D01*
X104917658Y-23072185D01*
X104604217Y-23385626D01*
X104527271Y-23400932D01*
X104357111Y-23471414D01*
X104292000Y-23514920D01*
X104292000Y-12573000D01*
X147676001Y-12573000D01*
X147676000Y-67365000D01*
G37*
%TD.AperFunction*%
D22*
X144115000Y-57946260D02*
X144152925Y-58136918D01*
X143274844Y-59014999D01*
X139388072Y-59014999D01*
X139388072Y-57860000D01*
X139371008Y-57686746D01*
X139369265Y-57681000D01*
X143925447Y-57681000D01*
X143964000Y-57684797D01*
X144002553Y-57681000D01*
X144002561Y-57681000D01*
X144115000Y-57669925D01*
X144115000Y-57946260D01*
%TA.AperFunction,Conductor*%
D23*
G36*
X144115000Y-57946260D02*
G01*
X144152925Y-58136918D01*
X143274844Y-59014999D01*
X139388072Y-59014999D01*
X139388072Y-57860000D01*
X139371008Y-57686746D01*
X139369265Y-57681000D01*
X143925447Y-57681000D01*
X143964000Y-57684797D01*
X144002553Y-57681000D01*
X144002561Y-57681000D01*
X144115000Y-57669925D01*
X144115000Y-57946260D01*
G37*
%TD.AperFunction*%
D22*
X127543470Y-48345049D02*
X127571183Y-48378817D01*
X127604951Y-48406530D01*
X127604953Y-48406532D01*
X127672040Y-48461589D01*
X127705941Y-48489411D01*
X127859687Y-48571589D01*
X127942779Y-48596795D01*
X128026509Y-48622195D01*
X128041306Y-48623652D01*
X128156523Y-48635000D01*
X128156531Y-48635000D01*
X128200000Y-48639281D01*
X128243469Y-48635000D01*
X135961546Y-48635000D01*
X136009744Y-48667205D01*
X136198102Y-48745226D01*
X136398061Y-48785000D01*
X136601939Y-48785000D01*
X136801898Y-48745226D01*
X136883000Y-48711632D01*
X136883001Y-49458841D01*
X133856185Y-52485658D01*
X133826237Y-52510236D01*
X133801659Y-52540184D01*
X133801655Y-52540188D01*
X133774120Y-52573740D01*
X133728139Y-52629767D01*
X133700036Y-52682345D01*
X133655246Y-52766141D01*
X133610359Y-52914114D01*
X133595203Y-53068000D01*
X133599001Y-53106563D01*
X133599000Y-56570843D01*
X133156918Y-57012925D01*
X132966260Y-56975000D01*
X132673740Y-56975000D01*
X132386842Y-57032068D01*
X132116589Y-57144010D01*
X131873368Y-57306525D01*
X131666525Y-57513368D01*
X131550000Y-57687760D01*
X131433475Y-57513368D01*
X131226632Y-57306525D01*
X130983411Y-57144010D01*
X130713158Y-57032068D01*
X130426260Y-56975000D01*
X130133740Y-56975000D01*
X129943082Y-57012925D01*
X129662344Y-56732187D01*
X129637763Y-56702235D01*
X129518232Y-56604137D01*
X129381859Y-56531245D01*
X129233886Y-56486358D01*
X129118560Y-56474999D01*
X129118552Y-56474999D01*
X129079999Y-56471202D01*
X129041446Y-56474999D01*
X127435156Y-56474999D01*
X126870173Y-55910016D01*
X126870173Y-47671751D01*
X127543470Y-48345049D01*
%TA.AperFunction,Conductor*%
D23*
G36*
X127543470Y-48345049D02*
G01*
X127571183Y-48378817D01*
X127604951Y-48406530D01*
X127604953Y-48406532D01*
X127672040Y-48461589D01*
X127705941Y-48489411D01*
X127859687Y-48571589D01*
X127942779Y-48596795D01*
X128026509Y-48622195D01*
X128041306Y-48623652D01*
X128156523Y-48635000D01*
X128156531Y-48635000D01*
X128200000Y-48639281D01*
X128243469Y-48635000D01*
X135961546Y-48635000D01*
X136009744Y-48667205D01*
X136198102Y-48745226D01*
X136398061Y-48785000D01*
X136601939Y-48785000D01*
X136801898Y-48745226D01*
X136883000Y-48711632D01*
X136883001Y-49458841D01*
X133856185Y-52485658D01*
X133826237Y-52510236D01*
X133801659Y-52540184D01*
X133801655Y-52540188D01*
X133774120Y-52573740D01*
X133728139Y-52629767D01*
X133700036Y-52682345D01*
X133655246Y-52766141D01*
X133610359Y-52914114D01*
X133595203Y-53068000D01*
X133599001Y-53106563D01*
X133599000Y-56570843D01*
X133156918Y-57012925D01*
X132966260Y-56975000D01*
X132673740Y-56975000D01*
X132386842Y-57032068D01*
X132116589Y-57144010D01*
X131873368Y-57306525D01*
X131666525Y-57513368D01*
X131550000Y-57687760D01*
X131433475Y-57513368D01*
X131226632Y-57306525D01*
X130983411Y-57144010D01*
X130713158Y-57032068D01*
X130426260Y-56975000D01*
X130133740Y-56975000D01*
X129943082Y-57012925D01*
X129662344Y-56732187D01*
X129637763Y-56702235D01*
X129518232Y-56604137D01*
X129381859Y-56531245D01*
X129233886Y-56486358D01*
X129118560Y-56474999D01*
X129118552Y-56474999D01*
X129079999Y-56471202D01*
X129041446Y-56474999D01*
X127435156Y-56474999D01*
X126870173Y-55910016D01*
X126870173Y-47671751D01*
X127543470Y-48345049D01*
G37*
%TD.AperFunction*%
D22*
X135754774Y-42698102D02*
X135715000Y-42898061D01*
X135715000Y-43101939D01*
X135754774Y-43301898D01*
X135832795Y-43490256D01*
X135865000Y-43538455D01*
X135865001Y-44961545D01*
X135832795Y-45009744D01*
X135754774Y-45198102D01*
X135715000Y-45398061D01*
X135715000Y-45601939D01*
X135754774Y-45801898D01*
X135832795Y-45990256D01*
X135946063Y-46159774D01*
X135991289Y-46205000D01*
X134758120Y-46205000D01*
X134692889Y-46161414D01*
X134522729Y-46090932D01*
X134342089Y-46055000D01*
X134157911Y-46055000D01*
X133977271Y-46090932D01*
X133807111Y-46161414D01*
X133653972Y-46263738D01*
X133523738Y-46393972D01*
X133421414Y-46547111D01*
X133350932Y-46717271D01*
X133321546Y-46865000D01*
X128566579Y-46865000D01*
X127956535Y-46254957D01*
X127945226Y-46198102D01*
X127867205Y-46009744D01*
X127753937Y-45840226D01*
X127609774Y-45696063D01*
X127440256Y-45582795D01*
X127251898Y-45504774D01*
X127051939Y-45465000D01*
X126870173Y-45465000D01*
X126870173Y-42817548D01*
X126957911Y-42835000D01*
X127142089Y-42835000D01*
X127322729Y-42799068D01*
X127492889Y-42728586D01*
X127558120Y-42685000D01*
X135760201Y-42685000D01*
X135754774Y-42698102D01*
%TA.AperFunction,Conductor*%
D23*
G36*
X135754774Y-42698102D02*
G01*
X135715000Y-42898061D01*
X135715000Y-43101939D01*
X135754774Y-43301898D01*
X135832795Y-43490256D01*
X135865000Y-43538455D01*
X135865001Y-44961545D01*
X135832795Y-45009744D01*
X135754774Y-45198102D01*
X135715000Y-45398061D01*
X135715000Y-45601939D01*
X135754774Y-45801898D01*
X135832795Y-45990256D01*
X135946063Y-46159774D01*
X135991289Y-46205000D01*
X134758120Y-46205000D01*
X134692889Y-46161414D01*
X134522729Y-46090932D01*
X134342089Y-46055000D01*
X134157911Y-46055000D01*
X133977271Y-46090932D01*
X133807111Y-46161414D01*
X133653972Y-46263738D01*
X133523738Y-46393972D01*
X133421414Y-46547111D01*
X133350932Y-46717271D01*
X133321546Y-46865000D01*
X128566579Y-46865000D01*
X127956535Y-46254957D01*
X127945226Y-46198102D01*
X127867205Y-46009744D01*
X127753937Y-45840226D01*
X127609774Y-45696063D01*
X127440256Y-45582795D01*
X127251898Y-45504774D01*
X127051939Y-45465000D01*
X126870173Y-45465000D01*
X126870173Y-42817548D01*
X126957911Y-42835000D01*
X127142089Y-42835000D01*
X127322729Y-42799068D01*
X127492889Y-42728586D01*
X127558120Y-42685000D01*
X135760201Y-42685000D01*
X135754774Y-42698102D01*
G37*
%TD.AperFunction*%
D22*
X108917658Y-29327816D02*
X108942236Y-29357764D01*
X108972184Y-29382342D01*
X108972187Y-29382345D01*
X108992564Y-29399068D01*
X109061767Y-29455862D01*
X109198140Y-29528754D01*
X109217637Y-29534669D01*
X109211203Y-29600000D01*
X109215001Y-29638563D01*
X109215000Y-31291879D01*
X109171414Y-31357111D01*
X109100932Y-31527271D01*
X109065000Y-31707911D01*
X109065000Y-31892089D01*
X109100932Y-32072729D01*
X109171414Y-32242889D01*
X109273738Y-32396028D01*
X109403972Y-32526262D01*
X109557111Y-32628586D01*
X109727271Y-32699068D01*
X109907911Y-32735000D01*
X110092089Y-32735000D01*
X110272729Y-32699068D01*
X110442889Y-32628586D01*
X110596028Y-32526262D01*
X110726262Y-32396028D01*
X110828586Y-32242889D01*
X110899068Y-32072729D01*
X110900000Y-32068044D01*
X110900932Y-32072729D01*
X110971414Y-32242889D01*
X111073738Y-32396028D01*
X111133777Y-32456067D01*
X110694842Y-32895001D01*
X108431544Y-32895001D01*
X108485000Y-32626260D01*
X108485000Y-32333740D01*
X108427932Y-32046842D01*
X108315990Y-31776589D01*
X108153475Y-31533368D01*
X107946632Y-31326525D01*
X107772240Y-31210000D01*
X107946632Y-31093475D01*
X108153475Y-30886632D01*
X108315990Y-30643411D01*
X108427932Y-30373158D01*
X108485000Y-30086260D01*
X108485000Y-29793740D01*
X108427932Y-29506842D01*
X108315990Y-29236589D01*
X108153475Y-28993368D01*
X107946632Y-28786525D01*
X107772240Y-28670000D01*
X107946632Y-28553475D01*
X108044975Y-28455132D01*
X108917658Y-29327816D01*
%TA.AperFunction,Conductor*%
D23*
G36*
X108917658Y-29327816D02*
G01*
X108942236Y-29357764D01*
X108972184Y-29382342D01*
X108972187Y-29382345D01*
X108992564Y-29399068D01*
X109061767Y-29455862D01*
X109198140Y-29528754D01*
X109217637Y-29534669D01*
X109211203Y-29600000D01*
X109215001Y-29638563D01*
X109215000Y-31291879D01*
X109171414Y-31357111D01*
X109100932Y-31527271D01*
X109065000Y-31707911D01*
X109065000Y-31892089D01*
X109100932Y-32072729D01*
X109171414Y-32242889D01*
X109273738Y-32396028D01*
X109403972Y-32526262D01*
X109557111Y-32628586D01*
X109727271Y-32699068D01*
X109907911Y-32735000D01*
X110092089Y-32735000D01*
X110272729Y-32699068D01*
X110442889Y-32628586D01*
X110596028Y-32526262D01*
X110726262Y-32396028D01*
X110828586Y-32242889D01*
X110899068Y-32072729D01*
X110900000Y-32068044D01*
X110900932Y-32072729D01*
X110971414Y-32242889D01*
X111073738Y-32396028D01*
X111133777Y-32456067D01*
X110694842Y-32895001D01*
X108431544Y-32895001D01*
X108485000Y-32626260D01*
X108485000Y-32333740D01*
X108427932Y-32046842D01*
X108315990Y-31776589D01*
X108153475Y-31533368D01*
X107946632Y-31326525D01*
X107772240Y-31210000D01*
X107946632Y-31093475D01*
X108153475Y-30886632D01*
X108315990Y-30643411D01*
X108427932Y-30373158D01*
X108485000Y-30086260D01*
X108485000Y-29793740D01*
X108427932Y-29506842D01*
X108315990Y-29236589D01*
X108153475Y-28993368D01*
X107946632Y-28786525D01*
X107772240Y-28670000D01*
X107946632Y-28553475D01*
X108044975Y-28455132D01*
X108917658Y-29327816D01*
G37*
%TD.AperFunction*%
D22*
X143487001Y-26741159D02*
X143487000Y-28493447D01*
X143483203Y-28532000D01*
X143487000Y-28570553D01*
X143487000Y-28570560D01*
X143498359Y-28685886D01*
X143543246Y-28833859D01*
X143616138Y-28970232D01*
X143714236Y-29089764D01*
X143744190Y-29114347D01*
X144152925Y-29523082D01*
X144115000Y-29713740D01*
X144115000Y-30006260D01*
X144172068Y-30293158D01*
X144284010Y-30563411D01*
X144446525Y-30806632D01*
X144653368Y-31013475D01*
X144827760Y-31130000D01*
X144653368Y-31246525D01*
X144446525Y-31453368D01*
X144284010Y-31696589D01*
X144172068Y-31966842D01*
X144115000Y-32253740D01*
X144115000Y-32546260D01*
X144152925Y-32736918D01*
X144146843Y-32743000D01*
X143526277Y-32743000D01*
X142625466Y-31842189D01*
X142600883Y-31812235D01*
X142481352Y-31714137D01*
X142344979Y-31641245D01*
X142197006Y-31596358D01*
X142081680Y-31584999D01*
X142081672Y-31584999D01*
X142043119Y-31581202D01*
X142004566Y-31584999D01*
X137968848Y-31584999D01*
X138015934Y-31483758D01*
X138078183Y-31228260D01*
X138089390Y-30965527D01*
X138049125Y-30705656D01*
X137958935Y-30458634D01*
X137905037Y-30357797D01*
X137671269Y-30298336D01*
X136929605Y-31040000D01*
X136943748Y-31054143D01*
X136764143Y-31233748D01*
X136750000Y-31219605D01*
X136735858Y-31233748D01*
X136556253Y-31054143D01*
X136570395Y-31040000D01*
X135828731Y-30298336D01*
X135659000Y-30341509D01*
X135659000Y-30226120D01*
X135702586Y-30160889D01*
X135773068Y-29990729D01*
X135809000Y-29810089D01*
X135809000Y-29625911D01*
X135773068Y-29445271D01*
X135748865Y-29386840D01*
X135898987Y-29536962D01*
X136117641Y-29683061D01*
X136331444Y-29771621D01*
X136168634Y-29831065D01*
X136067797Y-29884963D01*
X136008336Y-30118731D01*
X136750000Y-30860395D01*
X137491664Y-30118731D01*
X137432203Y-29884963D01*
X137193758Y-29774066D01*
X137174173Y-29769294D01*
X137382359Y-29683061D01*
X137601013Y-29536962D01*
X137786962Y-29351013D01*
X137933061Y-29132359D01*
X138033696Y-28889405D01*
X138085000Y-28631486D01*
X138085000Y-28407911D01*
X140865000Y-28407911D01*
X140865000Y-28592089D01*
X140900932Y-28772729D01*
X140971414Y-28942889D01*
X141073738Y-29096028D01*
X141203972Y-29226262D01*
X141357111Y-29328586D01*
X141527271Y-29399068D01*
X141707911Y-29435000D01*
X141892089Y-29435000D01*
X142072729Y-29399068D01*
X142242889Y-29328586D01*
X142396028Y-29226262D01*
X142526262Y-29096028D01*
X142628586Y-28942889D01*
X142699068Y-28772729D01*
X142735000Y-28592089D01*
X142735000Y-28407911D01*
X142699068Y-28227271D01*
X142628586Y-28057111D01*
X142526262Y-27903972D01*
X142396028Y-27773738D01*
X142242889Y-27671414D01*
X142072729Y-27600932D01*
X141892089Y-27565000D01*
X141707911Y-27565000D01*
X141527271Y-27600932D01*
X141357111Y-27671414D01*
X141203972Y-27773738D01*
X141073738Y-27903972D01*
X140971414Y-28057111D01*
X140900932Y-28227271D01*
X140865000Y-28407911D01*
X138085000Y-28407911D01*
X138085000Y-28368514D01*
X138033696Y-28110595D01*
X137933061Y-27867641D01*
X137786962Y-27648987D01*
X137601013Y-27463038D01*
X137382359Y-27316939D01*
X137139405Y-27216304D01*
X136881486Y-27165000D01*
X136618514Y-27165000D01*
X136477010Y-27193147D01*
X138755158Y-24915000D01*
X141660843Y-24915000D01*
X143487001Y-26741159D01*
%TA.AperFunction,Conductor*%
D23*
G36*
X143487001Y-26741159D02*
G01*
X143487000Y-28493447D01*
X143483203Y-28532000D01*
X143487000Y-28570553D01*
X143487000Y-28570560D01*
X143498359Y-28685886D01*
X143543246Y-28833859D01*
X143616138Y-28970232D01*
X143714236Y-29089764D01*
X143744190Y-29114347D01*
X144152925Y-29523082D01*
X144115000Y-29713740D01*
X144115000Y-30006260D01*
X144172068Y-30293158D01*
X144284010Y-30563411D01*
X144446525Y-30806632D01*
X144653368Y-31013475D01*
X144827760Y-31130000D01*
X144653368Y-31246525D01*
X144446525Y-31453368D01*
X144284010Y-31696589D01*
X144172068Y-31966842D01*
X144115000Y-32253740D01*
X144115000Y-32546260D01*
X144152925Y-32736918D01*
X144146843Y-32743000D01*
X143526277Y-32743000D01*
X142625466Y-31842189D01*
X142600883Y-31812235D01*
X142481352Y-31714137D01*
X142344979Y-31641245D01*
X142197006Y-31596358D01*
X142081680Y-31584999D01*
X142081672Y-31584999D01*
X142043119Y-31581202D01*
X142004566Y-31584999D01*
X137968848Y-31584999D01*
X138015934Y-31483758D01*
X138078183Y-31228260D01*
X138089390Y-30965527D01*
X138049125Y-30705656D01*
X137958935Y-30458634D01*
X137905037Y-30357797D01*
X137671269Y-30298336D01*
X136929605Y-31040000D01*
X136943748Y-31054143D01*
X136764143Y-31233748D01*
X136750000Y-31219605D01*
X136735858Y-31233748D01*
X136556253Y-31054143D01*
X136570395Y-31040000D01*
X135828731Y-30298336D01*
X135659000Y-30341509D01*
X135659000Y-30226120D01*
X135702586Y-30160889D01*
X135773068Y-29990729D01*
X135809000Y-29810089D01*
X135809000Y-29625911D01*
X135773068Y-29445271D01*
X135748865Y-29386840D01*
X135898987Y-29536962D01*
X136117641Y-29683061D01*
X136331444Y-29771621D01*
X136168634Y-29831065D01*
X136067797Y-29884963D01*
X136008336Y-30118731D01*
X136750000Y-30860395D01*
X137491664Y-30118731D01*
X137432203Y-29884963D01*
X137193758Y-29774066D01*
X137174173Y-29769294D01*
X137382359Y-29683061D01*
X137601013Y-29536962D01*
X137786962Y-29351013D01*
X137933061Y-29132359D01*
X138033696Y-28889405D01*
X138085000Y-28631486D01*
X138085000Y-28407911D01*
X140865000Y-28407911D01*
X140865000Y-28592089D01*
X140900932Y-28772729D01*
X140971414Y-28942889D01*
X141073738Y-29096028D01*
X141203972Y-29226262D01*
X141357111Y-29328586D01*
X141527271Y-29399068D01*
X141707911Y-29435000D01*
X141892089Y-29435000D01*
X142072729Y-29399068D01*
X142242889Y-29328586D01*
X142396028Y-29226262D01*
X142526262Y-29096028D01*
X142628586Y-28942889D01*
X142699068Y-28772729D01*
X142735000Y-28592089D01*
X142735000Y-28407911D01*
X142699068Y-28227271D01*
X142628586Y-28057111D01*
X142526262Y-27903972D01*
X142396028Y-27773738D01*
X142242889Y-27671414D01*
X142072729Y-27600932D01*
X141892089Y-27565000D01*
X141707911Y-27565000D01*
X141527271Y-27600932D01*
X141357111Y-27671414D01*
X141203972Y-27773738D01*
X141073738Y-27903972D01*
X140971414Y-28057111D01*
X140900932Y-28227271D01*
X140865000Y-28407911D01*
X138085000Y-28407911D01*
X138085000Y-28368514D01*
X138033696Y-28110595D01*
X137933061Y-27867641D01*
X137786962Y-27648987D01*
X137601013Y-27463038D01*
X137382359Y-27316939D01*
X137139405Y-27216304D01*
X136881486Y-27165000D01*
X136618514Y-27165000D01*
X136477010Y-27193147D01*
X138755158Y-24915000D01*
X141660843Y-24915000D01*
X143487001Y-26741159D01*
G37*
%TD.AperFunction*%
D22*
X108977658Y-26787816D02*
X109002236Y-26817764D01*
X109032184Y-26842342D01*
X109032187Y-26842345D01*
X109061559Y-26866450D01*
X109121767Y-26915862D01*
X109258140Y-26988754D01*
X109406113Y-27033642D01*
X109481026Y-27041020D01*
X109521439Y-27045000D01*
X109521444Y-27045000D01*
X109539729Y-27046801D01*
X109646525Y-27206632D01*
X109778380Y-27338487D01*
X109705820Y-27360498D01*
X109595506Y-27419463D01*
X109498815Y-27498815D01*
X109419463Y-27595506D01*
X109414656Y-27604499D01*
X108682347Y-26872190D01*
X108657764Y-26842236D01*
X108538233Y-26744138D01*
X108401860Y-26671246D01*
X108272922Y-26632133D01*
X108153475Y-26453368D01*
X107946632Y-26246525D01*
X107772240Y-26130000D01*
X107946632Y-26013475D01*
X108074975Y-25885132D01*
X108977658Y-26787816D01*
%TA.AperFunction,Conductor*%
D23*
G36*
X108977658Y-26787816D02*
G01*
X109002236Y-26817764D01*
X109032184Y-26842342D01*
X109032187Y-26842345D01*
X109061559Y-26866450D01*
X109121767Y-26915862D01*
X109258140Y-26988754D01*
X109406113Y-27033642D01*
X109481026Y-27041020D01*
X109521439Y-27045000D01*
X109521444Y-27045000D01*
X109539729Y-27046801D01*
X109646525Y-27206632D01*
X109778380Y-27338487D01*
X109705820Y-27360498D01*
X109595506Y-27419463D01*
X109498815Y-27498815D01*
X109419463Y-27595506D01*
X109414656Y-27604499D01*
X108682347Y-26872190D01*
X108657764Y-26842236D01*
X108538233Y-26744138D01*
X108401860Y-26671246D01*
X108272922Y-26632133D01*
X108153475Y-26453368D01*
X107946632Y-26246525D01*
X107772240Y-26130000D01*
X107946632Y-26013475D01*
X108074975Y-25885132D01*
X108977658Y-26787816D01*
G37*
%TD.AperFunction*%
D22*
X109311928Y-22777915D02*
X109274846Y-22814997D01*
X108955160Y-22814997D01*
X109311928Y-22458229D01*
X109311928Y-22777915D01*
%TA.AperFunction,Conductor*%
D23*
G36*
X109311928Y-22777915D02*
G01*
X109274846Y-22814997D01*
X108955160Y-22814997D01*
X109311928Y-22458229D01*
X109311928Y-22777915D01*
G37*
%TD.AperFunction*%
D22*
X109315000Y-20006260D02*
X109352924Y-20196918D01*
X108162687Y-21387155D01*
X108153475Y-21373368D01*
X107946632Y-21166525D01*
X107772240Y-21050000D01*
X107946632Y-20933475D01*
X108153475Y-20726632D01*
X108261474Y-20565000D01*
X108301447Y-20565000D01*
X108340000Y-20568797D01*
X108378553Y-20565000D01*
X108378561Y-20565000D01*
X108493887Y-20553641D01*
X108641860Y-20508754D01*
X108778233Y-20435862D01*
X108897764Y-20337764D01*
X108922347Y-20307810D01*
X109315000Y-19915157D01*
X109315000Y-20006260D01*
%TA.AperFunction,Conductor*%
D23*
G36*
X109315000Y-20006260D02*
G01*
X109352924Y-20196918D01*
X108162687Y-21387155D01*
X108153475Y-21373368D01*
X107946632Y-21166525D01*
X107772240Y-21050000D01*
X107946632Y-20933475D01*
X108153475Y-20726632D01*
X108261474Y-20565000D01*
X108301447Y-20565000D01*
X108340000Y-20568797D01*
X108378553Y-20565000D01*
X108378561Y-20565000D01*
X108493887Y-20553641D01*
X108641860Y-20508754D01*
X108778233Y-20435862D01*
X108897764Y-20337764D01*
X108922347Y-20307810D01*
X109315000Y-19915157D01*
X109315000Y-20006260D01*
G37*
%TD.AperFunction*%
%TD*%
D24*
%TO.N,Shield*%
X130373500Y-68000000D02*
X130375931Y-68024679D01*
X130383129Y-68048409D01*
X130394819Y-68070280D01*
X130410551Y-68089449D01*
X130429720Y-68105181D01*
X130451591Y-68116871D01*
X130475321Y-68124069D01*
X130500000Y-68126500D01*
X147930500Y-68126500D01*
X147930500Y-70968500D01*
X104037500Y-70968500D01*
X104037500Y-68126500D01*
X112423340Y-68126500D01*
X112276616Y-68346088D01*
X112172552Y-68597323D01*
X112119500Y-68864033D01*
X112119500Y-69135967D01*
X112172552Y-69402677D01*
X112276616Y-69653912D01*
X112427695Y-69880018D01*
X112619982Y-70072305D01*
X112846088Y-70223384D01*
X113097323Y-70327448D01*
X113364033Y-70380500D01*
X113635967Y-70380500D01*
X113902677Y-70327448D01*
X114153912Y-70223384D01*
X114380018Y-70072305D01*
X114572305Y-69880018D01*
X114723384Y-69653912D01*
X114827448Y-69402677D01*
X114880500Y-69135967D01*
X114880500Y-68864033D01*
X114827448Y-68597323D01*
X114765974Y-68448911D01*
X115034386Y-68180499D01*
X116637259Y-68180499D01*
X116526616Y-68346088D01*
X116422552Y-68597323D01*
X116369500Y-68864033D01*
X116369500Y-69135967D01*
X116422552Y-69402677D01*
X116526616Y-69653912D01*
X116677695Y-69880018D01*
X116869982Y-70072305D01*
X117096088Y-70223384D01*
X117347323Y-70327448D01*
X117614033Y-70380500D01*
X117885967Y-70380500D01*
X118152677Y-70327448D01*
X118403912Y-70223384D01*
X118630018Y-70072305D01*
X118822305Y-69880018D01*
X118973384Y-69653912D01*
X119077448Y-69402677D01*
X119130500Y-69135967D01*
X119130500Y-68864033D01*
X119077448Y-68597323D01*
X118973384Y-68346088D01*
X118862741Y-68180499D01*
X125318110Y-68180499D01*
X125366198Y-68228587D01*
X125477654Y-68303060D01*
X125601497Y-68354357D01*
X125732969Y-68380508D01*
X125867015Y-68380508D01*
X125998487Y-68354357D01*
X126122330Y-68303060D01*
X126233786Y-68228587D01*
X126328571Y-68133802D01*
X126403044Y-68022346D01*
X126454341Y-67898503D01*
X126480492Y-67767031D01*
X126480492Y-67632985D01*
X126454341Y-67501513D01*
X126403044Y-67377670D01*
X126328571Y-67266214D01*
X126233786Y-67171429D01*
X126122330Y-67096956D01*
X125998487Y-67045659D01*
X125867015Y-67019508D01*
X125732969Y-67019508D01*
X125601497Y-67045659D01*
X125477654Y-67096956D01*
X125369086Y-67169499D01*
X120926500Y-67169499D01*
X120926500Y-65876500D01*
X130373500Y-65876500D01*
X130373500Y-68000000D01*
%TA.AperFunction,Conductor*%
D23*
G36*
X130373500Y-68000000D02*
G01*
X130375931Y-68024679D01*
X130383129Y-68048409D01*
X130394819Y-68070280D01*
X130410551Y-68089449D01*
X130429720Y-68105181D01*
X130451591Y-68116871D01*
X130475321Y-68124069D01*
X130500000Y-68126500D01*
X147930500Y-68126500D01*
X147930500Y-70968500D01*
X104037500Y-70968500D01*
X104037500Y-68126500D01*
X112423340Y-68126500D01*
X112276616Y-68346088D01*
X112172552Y-68597323D01*
X112119500Y-68864033D01*
X112119500Y-69135967D01*
X112172552Y-69402677D01*
X112276616Y-69653912D01*
X112427695Y-69880018D01*
X112619982Y-70072305D01*
X112846088Y-70223384D01*
X113097323Y-70327448D01*
X113364033Y-70380500D01*
X113635967Y-70380500D01*
X113902677Y-70327448D01*
X114153912Y-70223384D01*
X114380018Y-70072305D01*
X114572305Y-69880018D01*
X114723384Y-69653912D01*
X114827448Y-69402677D01*
X114880500Y-69135967D01*
X114880500Y-68864033D01*
X114827448Y-68597323D01*
X114765974Y-68448911D01*
X115034386Y-68180499D01*
X116637259Y-68180499D01*
X116526616Y-68346088D01*
X116422552Y-68597323D01*
X116369500Y-68864033D01*
X116369500Y-69135967D01*
X116422552Y-69402677D01*
X116526616Y-69653912D01*
X116677695Y-69880018D01*
X116869982Y-70072305D01*
X117096088Y-70223384D01*
X117347323Y-70327448D01*
X117614033Y-70380500D01*
X117885967Y-70380500D01*
X118152677Y-70327448D01*
X118403912Y-70223384D01*
X118630018Y-70072305D01*
X118822305Y-69880018D01*
X118973384Y-69653912D01*
X119077448Y-69402677D01*
X119130500Y-69135967D01*
X119130500Y-68864033D01*
X119077448Y-68597323D01*
X118973384Y-68346088D01*
X118862741Y-68180499D01*
X125318110Y-68180499D01*
X125366198Y-68228587D01*
X125477654Y-68303060D01*
X125601497Y-68354357D01*
X125732969Y-68380508D01*
X125867015Y-68380508D01*
X125998487Y-68354357D01*
X126122330Y-68303060D01*
X126233786Y-68228587D01*
X126328571Y-68133802D01*
X126403044Y-68022346D01*
X126454341Y-67898503D01*
X126480492Y-67767031D01*
X126480492Y-67632985D01*
X126454341Y-67501513D01*
X126403044Y-67377670D01*
X126328571Y-67266214D01*
X126233786Y-67171429D01*
X126122330Y-67096956D01*
X125998487Y-67045659D01*
X125867015Y-67019508D01*
X125732969Y-67019508D01*
X125601497Y-67045659D01*
X125477654Y-67096956D01*
X125369086Y-67169499D01*
X120926500Y-67169499D01*
X120926500Y-65876500D01*
X130373500Y-65876500D01*
X130373500Y-68000000D01*
G37*
%TD.AperFunction*%
%TD*%
M02*
