M48
; DRILL file {KiCad (5.1.10)-1} date 01/17/22 18:11:07
; FORMAT={-:-/ absolute / metric / decimal}
; #@! TF.CreationDate,2022-01-17T18:11:07+07:00
; #@! TF.GenerationSoftware,Kicad,Pcbnew,(5.1.10)-1
; #@! TF.FileFunction,Plated,1,2,PTH
FMAT,2
METRIC
T1C0.300
T2C0.400
T3C0.600
T4C0.800
T5C0.850
T6C1.000
%
G90
G05
T1
X104.8Y-24.3
X104.902Y-12.7
X104.902Y-14.427
X104.902Y-16.154
X104.902Y-17.882
X104.902Y-19.609
X104.902Y-21.336
X105.156Y-66.802
X107.442Y-66.802
X108.204Y-21.082
X108.458Y-16.764
X108.458Y-26.416
X108.458Y-28.956
X108.966Y-12.954
X108.966Y-15.24
X109.22Y-17.78
X109.22Y-20.32
X109.22Y-22.606
X109.22Y-24.384
X109.22Y-60.706
X109.22Y-62.23
X109.22Y-63.754
X109.728Y-47.752
X109.728Y-50.038
X109.728Y-53.848
X109.728Y-54.864
X109.728Y-66.802
X110.0Y-31.8
X110.236Y-58.42
X110.49Y-61.468
X110.49Y-62.992
X110.49Y-64.516
X110.744Y-24.384
X110.744Y-46.736
X110.744Y-49.022
X111.506Y-47.752
X111.506Y-50.038
X111.506Y-54.864
X111.76Y-58.42
X111.8Y-31.8
X112.014Y-66.802
X112.268Y-61.722
X112.522Y-46.736
X112.522Y-49.022
X112.776Y-26.924
X112.776Y-36.068
X112.776Y-37.338
X113.03Y-22.098
X113.03Y-23.876
X113.03Y-25.4
X113.284Y-53.848
X113.284Y-54.864
X113.284Y-58.42
X113.284Y-60.452
X113.284Y-62.992
X113.538Y-12.7
X113.538Y-15.494
X113.538Y-47.752
X113.538Y-50.038
X114.3Y-36.068
X114.3Y-37.338
X114.554Y-40.64
X114.554Y-42.926
X114.554Y-66.802
X115.147Y-62.992
X115.8Y-35.3
X115.824Y-37.338
X116.078Y-41.91
X117.009Y-62.992
X117.1Y-22.0
X117.1Y-23.4
X117.1Y-24.6
X117.2Y-31.0
X117.2Y-33.5
X117.348Y-37.338
X117.348Y-40.64
X117.348Y-42.926
X117.348Y-45.212
X117.602Y-48.768
X117.602Y-50.292
X117.9Y-38.8
X118.02Y-64.73
X118.02Y-67.05
X118.5Y-38.1
X118.509Y-39.45
X118.618Y-41.91
X118.618Y-43.942
X118.872Y-62.992
X118.872Y-49.53
X118.9Y-19.9
X118.9Y-23.4
X119.38Y-12.7
X119.38Y-15.24
X119.38Y-25.4
X119.38Y-27.94
X119.38Y-30.48
X119.38Y-33.02
X119.6Y-17.3
X119.6Y-22.0
X119.634Y-66.802
X119.7Y-38.0
X119.888Y-40.64
X119.888Y-42.926
X119.888Y-45.212
X120.142Y-48.768
X120.142Y-50.292
X120.735Y-62.992
X121.0Y-38.0
X121.158Y-41.91
X121.92Y-12.7
X121.92Y-15.24
X121.92Y-17.78
X121.92Y-20.32
X121.92Y-22.86
X121.92Y-25.4
X121.92Y-27.94
X121.92Y-30.48
X121.92Y-33.02
X122.174Y-37.084
X122.428Y-40.64
X122.428Y-42.926
X122.597Y-62.992
X124.25Y-41.9
X124.46Y-62.992
X124.46Y-12.7
X124.46Y-15.24
X124.46Y-17.78
X124.46Y-20.32
X124.46Y-22.86
X124.46Y-25.4
X124.46Y-27.94
X124.46Y-30.48
X124.46Y-33.02
X124.9Y-39.95
X125.55Y-40.6
X125.8Y-67.7
X126.085Y-41.195
X126.238Y-39.95
X126.323Y-62.992
X126.746Y-42.926
X126.746Y-44.196
X127.0Y-12.7
X127.0Y-15.24
X127.0Y-17.78
X127.0Y-20.32
X127.0Y-22.86
X127.0Y-25.4
X127.0Y-27.94
X127.0Y-30.48
X127.05Y-41.9
X127.254Y-37.338
X127.508Y-33.274
X127.508Y-51.816
X127.508Y-54.356
X127.7Y-39.35
X128.185Y-62.992
X128.524Y-33.274
X128.524Y-37.338
X128.524Y-40.386
X128.524Y-42.926
X128.524Y-45.72
X129.032Y-53.086
X129.54Y-17.018
X129.54Y-12.7
X129.54Y-15.24
X129.54Y-20.32
X129.54Y-22.86
X129.54Y-25.4
X129.54Y-27.94
X129.54Y-30.48
X129.54Y-44.196
X129.794Y-37.338
X130.048Y-62.992
X130.048Y-33.274
X130.302Y-40.386
X130.302Y-51.816
X130.302Y-54.356
X130.556Y-42.926
X130.556Y-45.72
X131.064Y-30.988
X131.3Y-38.7
X131.572Y-37.338
X131.826Y-53.086
X131.826Y-65.532
X131.911Y-62.992
X132.08Y-39.37
X132.334Y-42.926
X132.334Y-45.974
X132.842Y-36.576
X133.096Y-40.386
X133.096Y-51.816
X133.096Y-54.356
X133.124Y-65.532
X133.35Y-44.45
X133.773Y-62.992
X134.112Y-37.338
X134.112Y-39.37
X134.25Y-41.25
X134.25Y-46.99
X134.422Y-65.532
X134.62Y-12.7
X134.62Y-15.24
X134.874Y-29.718
X134.874Y-33.67
X134.9Y-38.0
X135.382Y-19.558
X135.382Y-20.828
X135.382Y-22.098
X135.382Y-23.368
X135.382Y-24.638
X135.382Y-25.908
X135.382Y-27.178
X135.382Y-36.576
X135.636Y-62.992
X135.721Y-65.532
X137.019Y-65.532
X137.414Y-12.7
X137.499Y-62.992
X137.922Y-20.066
X137.922Y-36.83
X137.922Y-39.116
X138.176Y-26.924
X138.317Y-65.532
X138.43Y-43.18
X138.43Y-44.958
X138.43Y-46.736
X138.684Y-25.146
X138.684Y-31.496
X138.684Y-38.1
X138.684Y-40.386
X138.938Y-18.796
X139.192Y-17.018
X139.192Y-36.83
X139.361Y-62.992
X139.446Y-39.116
X139.615Y-65.532
X139.7Y-26.924
X139.7Y-31.496
X139.7Y-44.196
X139.7Y-45.974
X139.7Y-57.912
X139.954Y-20.066
X139.954Y-25.146
X140.208Y-12.7
X140.208Y-38.1
X140.208Y-40.386
X140.462Y-36.83
X140.716Y-18.796
X140.716Y-31.496
X140.716Y-39.116
X140.716Y-58.928
X140.914Y-65.532
X140.97Y-43.18
X140.97Y-44.958
X140.97Y-46.736
X141.224Y-26.924
X141.224Y-62.992
X141.8Y-39.946
X141.8Y-28.5
X141.986Y-43.942
X141.986Y-45.974
X142.212Y-65.532
X142.748Y-27.178
X142.748Y-28.702
X142.748Y-30.226
X142.748Y-31.75
X143.002Y-12.7
X143.002Y-14.986
X143.002Y-17.526
X143.002Y-43.18
X143.002Y-44.958
X143.002Y-46.736
X143.002Y-57.912
X143.51Y-65.532
X143.764Y-61.976
X143.764Y-63.754
T2
X126.0Y-64.0
X126.95Y-46.5
X136.5Y-47.75
X136.5Y-64.0
X136.75Y-37.0
X136.75Y-40.25
X136.75Y-43.0
X136.75Y-45.5
X142.0Y-47.75
X142.0Y-50.25
X142.0Y-55.25
T4
X136.75Y-28.5
X136.75Y-31.04
T5
X123.3Y-66.55
X128.3Y-66.55
T6
X107.0Y-14.7
X107.0Y-17.24
X107.0Y-19.78
X107.0Y-22.32
X107.0Y-24.86
X107.0Y-27.4
X107.0Y-29.94
X107.0Y-32.48
X107.0Y-35.02
X107.0Y-37.56
X107.0Y-40.1
X107.0Y-42.64
X107.0Y-45.18
X107.0Y-47.72
X107.0Y-50.26
X107.0Y-52.8
X107.0Y-55.34
X107.0Y-57.88
X107.0Y-60.42
X107.0Y-62.96
X110.8Y-14.78
X110.8Y-17.32
X110.8Y-19.86
X110.8Y-22.4
X110.8Y-26.26
X110.8Y-28.8
X110.8Y-40.0
X110.8Y-42.54
X113.5Y-69.0
X115.04Y-58.46
X115.04Y-61.0
X117.58Y-58.46
X117.58Y-61.0
X117.75Y-69.0
X120.12Y-58.46
X120.12Y-61.0
X122.66Y-58.46
X122.66Y-61.0
X125.2Y-58.46
X125.2Y-61.0
X127.74Y-58.46
X127.74Y-61.0
X130.28Y-58.46
X130.28Y-61.0
X132.82Y-58.46
X132.82Y-61.0
X135.36Y-58.46
X135.36Y-61.0
X137.9Y-58.46
X137.9Y-61.0
X145.6Y-14.62
X145.6Y-17.16
X145.6Y-19.7
X145.6Y-22.24
X145.6Y-24.78
X145.6Y-27.32
X145.6Y-29.86
X145.6Y-32.4
X145.6Y-34.94
X145.6Y-37.48
X145.6Y-40.02
X145.6Y-42.56
X145.6Y-45.1
X145.6Y-47.64
X145.6Y-50.18
X145.6Y-52.72
X145.6Y-55.26
X145.6Y-57.8
X145.6Y-60.34
X145.6Y-62.88
T3
G00X122.3Y-69.6
M15
G01X122.3Y-68.9
M16
G05
G00X129.3Y-68.9
M15
G01X129.3Y-69.6
M16
G05
T0
M30
