%TF.GenerationSoftware,KiCad,Pcbnew,(5.1.10)-1*%
%TF.CreationDate,2022-01-17T18:11:01+07:00*%
%TF.ProjectId,CC2640R2F Module,43433236-3430-4523-9246-204d6f64756c,rev?*%
%TF.SameCoordinates,Original*%
%TF.FileFunction,Soldermask,Top*%
%TF.FilePolarity,Negative*%
%FSLAX46Y46*%
G04 Gerber Fmt 4.6, Leading zero omitted, Abs format (unit mm)*
G04 Created by KiCad (PCBNEW (5.1.10)-1) date 2022-01-17 18:11:01*
%MOMM*%
%LPD*%
G01*
G04 APERTURE LIST*
%ADD10R,1.200000X1.900000*%
%ADD11O,1.200000X1.900000*%
%ADD12R,1.500000X1.900000*%
%ADD13C,1.450000*%
%ADD14R,0.400000X1.350000*%
%ADD15R,2.000000X1.500000*%
%ADD16R,2.000000X3.800000*%
%ADD17R,1.300000X1.550000*%
%ADD18O,1.700000X1.700000*%
%ADD19R,1.700000X1.700000*%
%ADD20C,2.000000*%
%ADD21R,1.900000X0.900000*%
%ADD22R,0.900000X1.900000*%
%ADD23C,1.400000*%
%ADD24C,1.700000*%
G04 APERTURE END LIST*
D10*
%TO.C,JTAG CONNECTOR*%
X122900000Y-69250000D03*
X128700000Y-69250000D03*
D11*
X129300000Y-69250000D03*
X122300000Y-69250000D03*
D12*
X124800000Y-69250000D03*
D13*
X128300000Y-66550000D03*
D14*
X125800000Y-66550000D03*
X126450000Y-66550000D03*
X127100000Y-66550000D03*
X124500000Y-66550000D03*
X125150000Y-66550000D03*
D13*
X123300000Y-66550000D03*
D12*
X126800000Y-69250000D03*
%TD*%
D15*
%TO.C,U1*%
X115750000Y-45000000D03*
X115750000Y-49600000D03*
X115750000Y-47300000D03*
D16*
X122050000Y-47300000D03*
%TD*%
D17*
%TO.C,SW1*%
X141500000Y-17050000D03*
X137000000Y-17050000D03*
X137000000Y-25000000D03*
X141500000Y-25000000D03*
%TD*%
D18*
%TO.C,SDA SCL*%
X110800000Y-26260000D03*
D19*
X110800000Y-28800000D03*
%TD*%
D18*
%TO.C,3V3 TX RX GND*%
X110800000Y-14780000D03*
X110800000Y-17320000D03*
X110800000Y-19860000D03*
D19*
X110800000Y-22400000D03*
%TD*%
D18*
%TO.C,J2*%
X145600000Y-62880000D03*
X145600000Y-60340000D03*
X145600000Y-57800000D03*
X145600000Y-55260000D03*
X145600000Y-52720000D03*
X145600000Y-50180000D03*
X145600000Y-47640000D03*
X145600000Y-45100000D03*
X145600000Y-42560000D03*
X145600000Y-40020000D03*
X145600000Y-37480000D03*
X145600000Y-34940000D03*
X145600000Y-32400000D03*
X145600000Y-29860000D03*
X145600000Y-27320000D03*
X145600000Y-24780000D03*
X145600000Y-22240000D03*
X145600000Y-19700000D03*
X145600000Y-17160000D03*
D19*
X145600000Y-14620000D03*
%TD*%
D18*
%TO.C,J1*%
X107000000Y-14700000D03*
X107000000Y-17240000D03*
X107000000Y-19780000D03*
X107000000Y-22320000D03*
X107000000Y-24860000D03*
X107000000Y-27400000D03*
X107000000Y-29940000D03*
X107000000Y-32480000D03*
X107000000Y-35020000D03*
X107000000Y-37560000D03*
X107000000Y-40100000D03*
X107000000Y-42640000D03*
X107000000Y-45180000D03*
X107000000Y-47720000D03*
X107000000Y-50260000D03*
X107000000Y-52800000D03*
X107000000Y-55340000D03*
X107000000Y-57880000D03*
X107000000Y-60420000D03*
D19*
X107000000Y-62960000D03*
%TD*%
D20*
%TO.C,TP20*%
X117750000Y-69000000D03*
%TD*%
%TO.C,TP19*%
X113500000Y-69000000D03*
%TD*%
D18*
%TO.C,BOOT*%
X110800000Y-42540000D03*
D19*
X110800000Y-40000000D03*
%TD*%
%TO.C,R34*%
G36*
G01*
X136450001Y-67687500D02*
X135549999Y-67687500D01*
G75*
G02*
X135300000Y-67437501I0J249999D01*
G01*
X135300000Y-66912499D01*
G75*
G02*
X135549999Y-66662500I249999J0D01*
G01*
X136450001Y-66662500D01*
G75*
G02*
X136700000Y-66912499I0J-249999D01*
G01*
X136700000Y-67437501D01*
G75*
G02*
X136450001Y-67687500I-249999J0D01*
G01*
G37*
G36*
G01*
X136450001Y-69512500D02*
X135549999Y-69512500D01*
G75*
G02*
X135300000Y-69262501I0J249999D01*
G01*
X135300000Y-68737499D01*
G75*
G02*
X135549999Y-68487500I249999J0D01*
G01*
X136450001Y-68487500D01*
G75*
G02*
X136700000Y-68737499I0J-249999D01*
G01*
X136700000Y-69262501D01*
G75*
G02*
X136450001Y-69512500I-249999J0D01*
G01*
G37*
%TD*%
%TO.C,R14*%
G36*
G01*
X109725000Y-34000000D02*
X110275000Y-34000000D01*
G75*
G02*
X110475000Y-34200000I0J-200000D01*
G01*
X110475000Y-34600000D01*
G75*
G02*
X110275000Y-34800000I-200000J0D01*
G01*
X109725000Y-34800000D01*
G75*
G02*
X109525000Y-34600000I0J200000D01*
G01*
X109525000Y-34200000D01*
G75*
G02*
X109725000Y-34000000I200000J0D01*
G01*
G37*
G36*
G01*
X109725000Y-32350000D02*
X110275000Y-32350000D01*
G75*
G02*
X110475000Y-32550000I0J-200000D01*
G01*
X110475000Y-32950000D01*
G75*
G02*
X110275000Y-33150000I-200000J0D01*
G01*
X109725000Y-33150000D01*
G75*
G02*
X109525000Y-32950000I0J200000D01*
G01*
X109525000Y-32550000D01*
G75*
G02*
X109725000Y-32350000I200000J0D01*
G01*
G37*
%TD*%
%TO.C,R13*%
G36*
G01*
X111525000Y-34000000D02*
X112075000Y-34000000D01*
G75*
G02*
X112275000Y-34200000I0J-200000D01*
G01*
X112275000Y-34600000D01*
G75*
G02*
X112075000Y-34800000I-200000J0D01*
G01*
X111525000Y-34800000D01*
G75*
G02*
X111325000Y-34600000I0J200000D01*
G01*
X111325000Y-34200000D01*
G75*
G02*
X111525000Y-34000000I200000J0D01*
G01*
G37*
G36*
G01*
X111525000Y-32350000D02*
X112075000Y-32350000D01*
G75*
G02*
X112275000Y-32550000I0J-200000D01*
G01*
X112275000Y-32950000D01*
G75*
G02*
X112075000Y-33150000I-200000J0D01*
G01*
X111525000Y-33150000D01*
G75*
G02*
X111325000Y-32950000I0J200000D01*
G01*
X111325000Y-32550000D01*
G75*
G02*
X111525000Y-32350000I200000J0D01*
G01*
G37*
%TD*%
%TO.C,R11*%
G36*
G01*
X138725000Y-29750000D02*
X139275000Y-29750000D01*
G75*
G02*
X139475000Y-29950000I0J-200000D01*
G01*
X139475000Y-30350000D01*
G75*
G02*
X139275000Y-30550000I-200000J0D01*
G01*
X138725000Y-30550000D01*
G75*
G02*
X138525000Y-30350000I0J200000D01*
G01*
X138525000Y-29950000D01*
G75*
G02*
X138725000Y-29750000I200000J0D01*
G01*
G37*
G36*
G01*
X138725000Y-28100000D02*
X139275000Y-28100000D01*
G75*
G02*
X139475000Y-28300000I0J-200000D01*
G01*
X139475000Y-28700000D01*
G75*
G02*
X139275000Y-28900000I-200000J0D01*
G01*
X138725000Y-28900000D01*
G75*
G02*
X138525000Y-28700000I0J200000D01*
G01*
X138525000Y-28300000D01*
G75*
G02*
X138725000Y-28100000I200000J0D01*
G01*
G37*
%TD*%
%TO.C,R9*%
G36*
G01*
X127975000Y-48995000D02*
X127425000Y-48995000D01*
G75*
G02*
X127225000Y-48795000I0J200000D01*
G01*
X127225000Y-48395000D01*
G75*
G02*
X127425000Y-48195000I200000J0D01*
G01*
X127975000Y-48195000D01*
G75*
G02*
X128175000Y-48395000I0J-200000D01*
G01*
X128175000Y-48795000D01*
G75*
G02*
X127975000Y-48995000I-200000J0D01*
G01*
G37*
G36*
G01*
X127975000Y-50645000D02*
X127425000Y-50645000D01*
G75*
G02*
X127225000Y-50445000I0J200000D01*
G01*
X127225000Y-50045000D01*
G75*
G02*
X127425000Y-49845000I200000J0D01*
G01*
X127975000Y-49845000D01*
G75*
G02*
X128175000Y-50045000I0J-200000D01*
G01*
X128175000Y-50445000D01*
G75*
G02*
X127975000Y-50645000I-200000J0D01*
G01*
G37*
%TD*%
%TO.C,R8*%
G36*
G01*
X131575000Y-48995000D02*
X131025000Y-48995000D01*
G75*
G02*
X130825000Y-48795000I0J200000D01*
G01*
X130825000Y-48395000D01*
G75*
G02*
X131025000Y-48195000I200000J0D01*
G01*
X131575000Y-48195000D01*
G75*
G02*
X131775000Y-48395000I0J-200000D01*
G01*
X131775000Y-48795000D01*
G75*
G02*
X131575000Y-48995000I-200000J0D01*
G01*
G37*
G36*
G01*
X131575000Y-50645000D02*
X131025000Y-50645000D01*
G75*
G02*
X130825000Y-50445000I0J200000D01*
G01*
X130825000Y-50045000D01*
G75*
G02*
X131025000Y-49845000I200000J0D01*
G01*
X131575000Y-49845000D01*
G75*
G02*
X131775000Y-50045000I0J-200000D01*
G01*
X131775000Y-50445000D01*
G75*
G02*
X131575000Y-50645000I-200000J0D01*
G01*
G37*
%TD*%
%TO.C,R7*%
G36*
G01*
X135175000Y-48995000D02*
X134625000Y-48995000D01*
G75*
G02*
X134425000Y-48795000I0J200000D01*
G01*
X134425000Y-48395000D01*
G75*
G02*
X134625000Y-48195000I200000J0D01*
G01*
X135175000Y-48195000D01*
G75*
G02*
X135375000Y-48395000I0J-200000D01*
G01*
X135375000Y-48795000D01*
G75*
G02*
X135175000Y-48995000I-200000J0D01*
G01*
G37*
G36*
G01*
X135175000Y-50645000D02*
X134625000Y-50645000D01*
G75*
G02*
X134425000Y-50445000I0J200000D01*
G01*
X134425000Y-50045000D01*
G75*
G02*
X134625000Y-49845000I200000J0D01*
G01*
X135175000Y-49845000D01*
G75*
G02*
X135375000Y-50045000I0J-200000D01*
G01*
X135375000Y-50445000D01*
G75*
G02*
X135175000Y-50645000I-200000J0D01*
G01*
G37*
%TD*%
%TO.C,R1*%
G36*
G01*
X111200000Y-45575000D02*
X111200000Y-45025000D01*
G75*
G02*
X111400000Y-44825000I200000J0D01*
G01*
X111800000Y-44825000D01*
G75*
G02*
X112000000Y-45025000I0J-200000D01*
G01*
X112000000Y-45575000D01*
G75*
G02*
X111800000Y-45775000I-200000J0D01*
G01*
X111400000Y-45775000D01*
G75*
G02*
X111200000Y-45575000I0J200000D01*
G01*
G37*
G36*
G01*
X109550000Y-45575000D02*
X109550000Y-45025000D01*
G75*
G02*
X109750000Y-44825000I200000J0D01*
G01*
X110150000Y-44825000D01*
G75*
G02*
X110350000Y-45025000I0J-200000D01*
G01*
X110350000Y-45575000D01*
G75*
G02*
X110150000Y-45775000I-200000J0D01*
G01*
X109750000Y-45775000D01*
G75*
G02*
X109550000Y-45575000I0J200000D01*
G01*
G37*
%TD*%
D21*
%TO.C,M1*%
X132980000Y-13240000D03*
X132980000Y-14510000D03*
X132980000Y-18320000D03*
X132980000Y-19590000D03*
X132980000Y-20860000D03*
X132980000Y-22130000D03*
X132980000Y-23400000D03*
X132980000Y-24670000D03*
X132980000Y-25940000D03*
X132980000Y-27210000D03*
X132980000Y-28480000D03*
X132980000Y-29750000D03*
X132980000Y-31020000D03*
X132980000Y-32290000D03*
X115480000Y-13250000D03*
X115480000Y-14520000D03*
X115480000Y-18330000D03*
X115480000Y-19600000D03*
X115480000Y-20870000D03*
X115480000Y-22140000D03*
X115480000Y-23410000D03*
X115480000Y-24680000D03*
X115480000Y-25950000D03*
X115480000Y-27220000D03*
X115480000Y-28490000D03*
X115480000Y-29760000D03*
X115480000Y-31030000D03*
X115480000Y-32300000D03*
X115480000Y-33570000D03*
D22*
X117230000Y-35330000D03*
X118500000Y-35330000D03*
X119770000Y-35330000D03*
X121040000Y-35330000D03*
X122310000Y-35330000D03*
X123580000Y-35330000D03*
X124850000Y-35330000D03*
X126120000Y-35330000D03*
X127390000Y-35330000D03*
X128660000Y-35330000D03*
X129930000Y-35330000D03*
X131200000Y-35330000D03*
D21*
X132980000Y-33560000D03*
%TD*%
%TO.C,L3*%
G36*
G01*
X116862500Y-65493750D02*
X116862500Y-66006250D01*
G75*
G02*
X116643750Y-66225000I-218750J0D01*
G01*
X116206250Y-66225000D01*
G75*
G02*
X115987500Y-66006250I0J218750D01*
G01*
X115987500Y-65493750D01*
G75*
G02*
X116206250Y-65275000I218750J0D01*
G01*
X116643750Y-65275000D01*
G75*
G02*
X116862500Y-65493750I0J-218750D01*
G01*
G37*
G36*
G01*
X118437500Y-65493750D02*
X118437500Y-66006250D01*
G75*
G02*
X118218750Y-66225000I-218750J0D01*
G01*
X117781250Y-66225000D01*
G75*
G02*
X117562500Y-66006250I0J218750D01*
G01*
X117562500Y-65493750D01*
G75*
G02*
X117781250Y-65275000I218750J0D01*
G01*
X118218750Y-65275000D01*
G75*
G02*
X118437500Y-65493750I0J-218750D01*
G01*
G37*
%TD*%
D23*
%TO.C,Reset*%
X136750000Y-31040000D03*
X136750000Y-28500000D03*
%TD*%
D24*
%TO.C,J3*%
X115040000Y-61000000D03*
X117580000Y-61000000D03*
X120120000Y-61000000D03*
X122660000Y-61000000D03*
X125200000Y-61000000D03*
X127740000Y-61000000D03*
X130280000Y-61000000D03*
X132820000Y-61000000D03*
X135360000Y-61000000D03*
X137900000Y-61000000D03*
X115040000Y-58460000D03*
X117580000Y-58460000D03*
X120120000Y-58460000D03*
X122660000Y-58460000D03*
X125200000Y-58460000D03*
X127740000Y-58460000D03*
X130280000Y-58460000D03*
X132820000Y-58460000D03*
X135360000Y-58460000D03*
G36*
G01*
X137300000Y-57610000D02*
X138500000Y-57610000D01*
G75*
G02*
X138750000Y-57860000I0J-250000D01*
G01*
X138750000Y-59060000D01*
G75*
G02*
X138500000Y-59310000I-250000J0D01*
G01*
X137300000Y-59310000D01*
G75*
G02*
X137050000Y-59060000I0J250000D01*
G01*
X137050000Y-57860000D01*
G75*
G02*
X137300000Y-57610000I250000J0D01*
G01*
G37*
%TD*%
%TO.C,D5*%
G36*
G01*
X126156250Y-49030000D02*
X125643750Y-49030000D01*
G75*
G02*
X125425000Y-48811250I0J218750D01*
G01*
X125425000Y-48373750D01*
G75*
G02*
X125643750Y-48155000I218750J0D01*
G01*
X126156250Y-48155000D01*
G75*
G02*
X126375000Y-48373750I0J-218750D01*
G01*
X126375000Y-48811250D01*
G75*
G02*
X126156250Y-49030000I-218750J0D01*
G01*
G37*
G36*
G01*
X126156250Y-50605000D02*
X125643750Y-50605000D01*
G75*
G02*
X125425000Y-50386250I0J218750D01*
G01*
X125425000Y-49948750D01*
G75*
G02*
X125643750Y-49730000I218750J0D01*
G01*
X126156250Y-49730000D01*
G75*
G02*
X126375000Y-49948750I0J-218750D01*
G01*
X126375000Y-50386250D01*
G75*
G02*
X126156250Y-50605000I-218750J0D01*
G01*
G37*
%TD*%
%TO.C,D4*%
G36*
G01*
X129756250Y-49030000D02*
X129243750Y-49030000D01*
G75*
G02*
X129025000Y-48811250I0J218750D01*
G01*
X129025000Y-48373750D01*
G75*
G02*
X129243750Y-48155000I218750J0D01*
G01*
X129756250Y-48155000D01*
G75*
G02*
X129975000Y-48373750I0J-218750D01*
G01*
X129975000Y-48811250D01*
G75*
G02*
X129756250Y-49030000I-218750J0D01*
G01*
G37*
G36*
G01*
X129756250Y-50605000D02*
X129243750Y-50605000D01*
G75*
G02*
X129025000Y-50386250I0J218750D01*
G01*
X129025000Y-49948750D01*
G75*
G02*
X129243750Y-49730000I218750J0D01*
G01*
X129756250Y-49730000D01*
G75*
G02*
X129975000Y-49948750I0J-218750D01*
G01*
X129975000Y-50386250D01*
G75*
G02*
X129756250Y-50605000I-218750J0D01*
G01*
G37*
%TD*%
%TO.C,D3*%
G36*
G01*
X133356250Y-49030000D02*
X132843750Y-49030000D01*
G75*
G02*
X132625000Y-48811250I0J218750D01*
G01*
X132625000Y-48373750D01*
G75*
G02*
X132843750Y-48155000I218750J0D01*
G01*
X133356250Y-48155000D01*
G75*
G02*
X133575000Y-48373750I0J-218750D01*
G01*
X133575000Y-48811250D01*
G75*
G02*
X133356250Y-49030000I-218750J0D01*
G01*
G37*
G36*
G01*
X133356250Y-50605000D02*
X132843750Y-50605000D01*
G75*
G02*
X132625000Y-50386250I0J218750D01*
G01*
X132625000Y-49948750D01*
G75*
G02*
X132843750Y-49730000I218750J0D01*
G01*
X133356250Y-49730000D01*
G75*
G02*
X133575000Y-49948750I0J-218750D01*
G01*
X133575000Y-50386250D01*
G75*
G02*
X133356250Y-50605000I-218750J0D01*
G01*
G37*
%TD*%
%TO.C,C24*%
G36*
G01*
X138775000Y-68500000D02*
X139725000Y-68500000D01*
G75*
G02*
X139975000Y-68750000I0J-250000D01*
G01*
X139975000Y-69250000D01*
G75*
G02*
X139725000Y-69500000I-250000J0D01*
G01*
X138775000Y-69500000D01*
G75*
G02*
X138525000Y-69250000I0J250000D01*
G01*
X138525000Y-68750000D01*
G75*
G02*
X138775000Y-68500000I250000J0D01*
G01*
G37*
G36*
G01*
X138775000Y-66600000D02*
X139725000Y-66600000D01*
G75*
G02*
X139975000Y-66850000I0J-250000D01*
G01*
X139975000Y-67350000D01*
G75*
G02*
X139725000Y-67600000I-250000J0D01*
G01*
X138775000Y-67600000D01*
G75*
G02*
X138525000Y-67350000I0J250000D01*
G01*
X138525000Y-66850000D01*
G75*
G02*
X138775000Y-66600000I250000J0D01*
G01*
G37*
%TD*%
%TO.C,C23*%
G36*
G01*
X132125000Y-68500000D02*
X133075000Y-68500000D01*
G75*
G02*
X133325000Y-68750000I0J-250000D01*
G01*
X133325000Y-69250000D01*
G75*
G02*
X133075000Y-69500000I-250000J0D01*
G01*
X132125000Y-69500000D01*
G75*
G02*
X131875000Y-69250000I0J250000D01*
G01*
X131875000Y-68750000D01*
G75*
G02*
X132125000Y-68500000I250000J0D01*
G01*
G37*
G36*
G01*
X132125000Y-66600000D02*
X133075000Y-66600000D01*
G75*
G02*
X133325000Y-66850000I0J-250000D01*
G01*
X133325000Y-67350000D01*
G75*
G02*
X133075000Y-67600000I-250000J0D01*
G01*
X132125000Y-67600000D01*
G75*
G02*
X131875000Y-67350000I0J250000D01*
G01*
X131875000Y-66850000D01*
G75*
G02*
X132125000Y-66600000I250000J0D01*
G01*
G37*
%TD*%
%TO.C,C9*%
G36*
G01*
X141000000Y-28950000D02*
X140500000Y-28950000D01*
G75*
G02*
X140275000Y-28725000I0J225000D01*
G01*
X140275000Y-28275000D01*
G75*
G02*
X140500000Y-28050000I225000J0D01*
G01*
X141000000Y-28050000D01*
G75*
G02*
X141225000Y-28275000I0J-225000D01*
G01*
X141225000Y-28725000D01*
G75*
G02*
X141000000Y-28950000I-225000J0D01*
G01*
G37*
G36*
G01*
X141000000Y-30500000D02*
X140500000Y-30500000D01*
G75*
G02*
X140275000Y-30275000I0J225000D01*
G01*
X140275000Y-29825000D01*
G75*
G02*
X140500000Y-29600000I225000J0D01*
G01*
X141000000Y-29600000D01*
G75*
G02*
X141225000Y-29825000I0J-225000D01*
G01*
X141225000Y-30275000D01*
G75*
G02*
X141000000Y-30500000I-225000J0D01*
G01*
G37*
%TD*%
%TO.C,C8*%
G36*
G01*
X136450000Y-34500000D02*
X136450000Y-35000000D01*
G75*
G02*
X136225000Y-35225000I-225000J0D01*
G01*
X135775000Y-35225000D01*
G75*
G02*
X135550000Y-35000000I0J225000D01*
G01*
X135550000Y-34500000D01*
G75*
G02*
X135775000Y-34275000I225000J0D01*
G01*
X136225000Y-34275000D01*
G75*
G02*
X136450000Y-34500000I0J-225000D01*
G01*
G37*
G36*
G01*
X138000000Y-34500000D02*
X138000000Y-35000000D01*
G75*
G02*
X137775000Y-35225000I-225000J0D01*
G01*
X137325000Y-35225000D01*
G75*
G02*
X137100000Y-35000000I0J225000D01*
G01*
X137100000Y-34500000D01*
G75*
G02*
X137325000Y-34275000I225000J0D01*
G01*
X137775000Y-34275000D01*
G75*
G02*
X138000000Y-34500000I0J-225000D01*
G01*
G37*
%TD*%
%TO.C,C2*%
G36*
G01*
X125375000Y-45000000D02*
X124425000Y-45000000D01*
G75*
G02*
X124175000Y-44750000I0J250000D01*
G01*
X124175000Y-44250000D01*
G75*
G02*
X124425000Y-44000000I250000J0D01*
G01*
X125375000Y-44000000D01*
G75*
G02*
X125625000Y-44250000I0J-250000D01*
G01*
X125625000Y-44750000D01*
G75*
G02*
X125375000Y-45000000I-250000J0D01*
G01*
G37*
G36*
G01*
X125375000Y-46900000D02*
X124425000Y-46900000D01*
G75*
G02*
X124175000Y-46650000I0J250000D01*
G01*
X124175000Y-46150000D01*
G75*
G02*
X124425000Y-45900000I250000J0D01*
G01*
X125375000Y-45900000D01*
G75*
G02*
X125625000Y-46150000I0J-250000D01*
G01*
X125625000Y-46650000D01*
G75*
G02*
X125375000Y-46900000I-250000J0D01*
G01*
G37*
%TD*%
%TO.C,C1*%
G36*
G01*
X111875000Y-52100000D02*
X110925000Y-52100000D01*
G75*
G02*
X110675000Y-51850000I0J250000D01*
G01*
X110675000Y-51350000D01*
G75*
G02*
X110925000Y-51100000I250000J0D01*
G01*
X111875000Y-51100000D01*
G75*
G02*
X112125000Y-51350000I0J-250000D01*
G01*
X112125000Y-51850000D01*
G75*
G02*
X111875000Y-52100000I-250000J0D01*
G01*
G37*
G36*
G01*
X111875000Y-54000000D02*
X110925000Y-54000000D01*
G75*
G02*
X110675000Y-53750000I0J250000D01*
G01*
X110675000Y-53250000D01*
G75*
G02*
X110925000Y-53000000I250000J0D01*
G01*
X111875000Y-53000000D01*
G75*
G02*
X112125000Y-53250000I0J-250000D01*
G01*
X112125000Y-53750000D01*
G75*
G02*
X111875000Y-54000000I-250000J0D01*
G01*
G37*
%TD*%
M02*
